<svg width="52" height="52" viewBox="0 0 52 52" fill="none" xmlns="http://www.w3.org/2000/svg">
<g clip-path="url(#clip0)">
<path d="M43.8124 20.4682V39.0542C43.8124 39.5328 43.4243 39.9208 42.9457 39.9208C42.4671 39.9208 42.079 39.5328 42.079 39.0542V20.4682C42.079 19.9896 42.4671 19.6015 42.9457 19.6015C43.4243 19.6015 43.8124 19.9896 43.8124 20.4682ZM42.9457 43.225H7.95404C7.47543 43.225 7.08738 43.613 7.08738 44.0917C7.08738 44.5703 7.47543 44.9583 7.95404 44.9583H42.079V47.6667C42.079 49.1002 40.9126 50.2667 39.479 50.2667H5.89571C4.46214 50.2667 3.29571 49.1002 3.29571 47.6667V4.33333C3.29571 2.89976 4.46214 1.73333 5.89571 1.73333H39.479C40.1736 1.73333 40.8265 2.00373 41.3175 2.49481C41.6559 2.83324 42.2046 2.83335 42.543 2.49492C42.8816 2.15648 42.8816 1.60777 42.5431 1.26934C41.7248 0.450775 40.6367 0 39.479 0H5.89571C3.50631 0 1.56238 1.94393 1.56238 4.33333V47.6667C1.56238 50.0561 3.50631 52 5.89571 52H39.479C41.8684 52 43.8124 50.0561 43.8124 47.6667V44.0917C43.8124 43.613 43.4243 43.225 42.9457 43.225ZM23.4457 48.3167C23.9243 48.3167 24.3124 47.9286 24.3124 47.45C24.3124 46.9714 23.9243 46.5833 23.4457 46.5833H21.929C21.4504 46.5833 21.0624 46.9714 21.0624 47.45C21.0624 47.9286 21.4504 48.3167 21.929 48.3167H23.4457ZM44.608 14.982C44.608 15.8788 43.8831 16.607 42.983 16.607C42.0846 16.607 41.3581 15.8803 41.3581 14.982C41.3581 14.0838 42.0847 13.357 42.983 13.357C43.8811 13.357 44.608 14.0834 44.608 14.982ZM38.9996 10.9985C38.6611 11.3371 38.6611 11.8857 38.9996 12.2242C39.3381 12.5625 39.8867 12.5625 40.2252 12.2242C41.7494 10.7001 44.2162 10.6998 45.7406 12.2241C46.079 12.5625 46.6277 12.5628 46.9662 12.2242C47.3047 11.8858 47.3047 11.3371 46.9663 10.9987C44.7649 8.79688 41.2015 8.79677 38.9996 10.9985ZM50.1838 7.78126C46.2036 3.80131 39.7627 3.8012 35.7823 7.78126C35.4438 8.1198 35.4438 8.66851 35.7823 9.00694C36.1208 9.34527 36.6694 9.34527 37.008 9.00694C40.31 5.70451 45.6555 5.70397 48.958 9.00694C49.2966 9.34538 49.8451 9.34527 50.1837 9.00694C50.5222 8.66862 50.5222 8.1198 50.1838 7.78126Z" fill="black"/>
</g>
<defs>
<clipPath id="clip0">
<rect width="52" height="52" fill="white"/>
</clipPath>
</defs>
</svg>
