<svg width="56" height="56" viewBox="0 0 56 56" fill="none" xmlns="http://www.w3.org/2000/svg">
<g clip-path="url(#clip0)">
<path d="M45.0411 23.3333H47.8411C48.3565 23.3333 48.7744 22.9154 48.7744 22.4V19.6C48.7744 19.0846 48.3565 18.6667 47.8411 18.6667C47.3257 18.6667 46.9077 19.0846 46.9077 19.6V21.4667H45.0411C44.5257 21.4667 44.1077 21.8846 44.1077 22.4C44.1077 22.9154 44.5257 23.3333 45.0411 23.3333Z" fill="white"/>
<path d="M23.0836 19.6C25.1453 19.6 26.8169 17.9284 26.8169 15.8667C26.8169 13.8049 25.1453 12.1333 23.0836 12.1333C21.0214 12.1333 19.3503 13.8049 19.3503 15.8667C19.3503 17.9284 21.0214 19.6 23.0836 19.6ZM23.0836 14C24.1145 14 24.9503 14.8358 24.9503 15.8667C24.9503 16.8975 24.1145 17.7333 23.0836 17.7333C22.0523 17.7333 21.2169 16.8975 21.2169 15.8667C21.2169 14.8358 22.0523 14 23.0836 14Z" fill="white"/>
<path d="M2.69564 19.2901C3.09075 19.4943 3.52962 19.6005 3.97441 19.6C5.1625 19.6 6.21933 18.8458 6.60625 17.7219L13.9462 17.6085L12.6656 18.6667C12.3129 18.9565 12.2217 19.4587 12.4501 19.8538L14.1941 22.8667L14.2324 27.0667H9.57441C9.51973 27.0721 9.46549 27.0831 9.41263 27.0995C8.97194 25.802 7.65716 25.0141 6.30501 25.2374C4.95332 25.4607 3.96165 26.6296 3.96165 28C3.96165 29.3704 4.95332 30.5393 6.30501 30.7626C7.65716 30.9859 8.97194 30.198 9.41263 28.9005C9.46549 28.9169 9.51973 28.9279 9.57441 28.9333H15.1744C15.4232 28.9333 15.662 28.834 15.837 28.6572C16.0125 28.4803 16.11 28.2406 16.1077 27.9918L16.0649 23.2613L19.0513 22.1416C19.2541 22.2729 19.4601 22.3927 19.6684 22.5016L20.2982 26.2855C20.3734 26.7354 20.763 27.0653 21.2197 27.0648H21.7077V31.7315H18.9077C18.3923 31.7315 17.9744 32.1494 17.9744 32.6648V46.2802L9.84785 54.4068C9.58079 54.6738 9.50104 55.0753 9.64551 55.424C9.78997 55.7726 10.1304 56 10.5077 56H40.3744C40.7518 56 41.0922 55.7726 41.2362 55.424C41.3807 55.0753 41.3009 54.6738 41.0343 54.4068L34.7744 48.1469V43.1917L36.8639 39.7113C40.3895 41.8387 42.5209 42.9333 43.1744 42.9333H48.7744C49.2898 42.9333 49.7077 42.5154 49.7077 42V36.7865L51.3001 35.1941C51.4746 35.0187 51.5735 34.7812 51.5744 34.5333V31.7333H52.938C53.5696 31.7333 54.1589 31.4139 54.5034 30.8839C54.8475 30.3543 54.9008 29.6862 54.6442 29.1088L51.7421 22.5755C52.8436 21.2639 53.4452 19.6055 53.4411 17.8928C53.462 11.7154 49.9689 6.06393 44.4345 3.31999L41.7275 1.96465C41.3169 1.76003 40.8183 1.88398 40.5517 2.25768L40.1607 2.8H33.8411V0.933333C33.8411 0.417904 33.4232 0 32.9077 0H23.5744C23.059 0 22.6411 0.417904 22.6411 0.933333V4.66667H21.2169C20.7603 4.66621 20.3702 4.99661 20.2954 5.44688L19.6656 9.22988C19.4574 9.3388 19.2509 9.4582 19.0486 9.58991L15.4542 8.24323C15.0272 8.08281 14.5469 8.25508 14.3186 8.6502L13.3775 10.2808C13.3533 10.2808 13.3337 10.2667 13.3096 10.2667H7.70775V7.29486C8.99336 6.84049 9.76445 5.52572 9.53385 4.18177C9.30325 2.83737 8.13795 1.85527 6.77441 1.85527C5.41041 1.85527 4.24512 2.83737 4.01452 4.18177C3.78392 5.52572 4.55547 6.84049 5.84108 7.29486V11.2C5.84108 11.7154 6.25898 12.1333 6.77441 12.1333H12.3603C12.2746 12.4774 12.3931 12.8397 12.6656 13.0667L15.626 15.5044C15.626 15.5727 15.626 15.6424 15.6206 15.7117L6.6026 15.8507C6.17877 14.6676 5.01803 13.9116 3.76432 14.0027C2.51061 14.0934 1.47109 15.0085 1.22226 16.2404C0.972979 17.4727 1.57545 18.7195 2.69564 19.2901ZM6.77441 28.9333C6.25898 28.9333 5.84108 28.5154 5.84108 28C5.84108 27.4846 6.25898 27.0667 6.77441 27.0667C7.28984 27.0667 7.70775 27.4846 7.70775 28C7.70775 28.5154 7.28984 28.9333 6.77441 28.9333ZM6.77441 3.73333C7.28984 3.73333 7.70775 4.15124 7.70775 4.66667C7.70775 5.1821 7.28984 5.6 6.77441 5.6C6.25898 5.6 5.84108 5.1821 5.84108 4.66667C5.84108 4.15124 6.25898 3.73333 6.77441 3.73333ZM23.5744 27.0667H24.9503C25.406 27.0667 25.7952 26.7372 25.8704 26.2874L26.5011 22.5035C26.7085 22.3954 26.9149 22.2751 27.1173 22.1434L30.7134 23.4901C31.1404 23.6505 31.6208 23.4783 31.8491 23.0831L32.2442 22.4H36.6411C36.7099 22.3945 36.7778 22.3809 36.8434 22.359L38.5077 24.5775V26.1333H34.7744V28H36.9277L34.4281 28.9994C34.0735 29.1411 33.8406 29.4848 33.8411 29.8667V31.7333H23.5744V27.0667ZM33.7158 11.8831L33.322 11.2H35.7077V14.9333H31.238L33.5011 13.0667C33.8516 12.7768 33.9418 12.2773 33.7158 11.8831ZM35.7077 16.8V20.5333H33.322L33.7158 19.8502C33.9418 19.456 33.8516 18.9565 33.5011 18.6667L31.238 16.8H35.7077ZM29.4479 39.8599L32.9077 43.3198V43.8667H27.3077V33.6H29.1744V39.2C29.1744 39.4475 29.2728 39.6849 29.4479 39.8599ZM23.5316 52.2667H23.5744V52.2184L27.0771 48.2152C27.2262 48.0448 27.3077 47.826 27.3077 47.6V45.7333H29.1744V54.1333H21.8941L23.5316 52.2667ZM12.7609 54.1333L19.5676 47.3266C19.7426 47.1516 19.8411 46.9141 19.8411 46.6667V33.6H25.4411V47.2491L23.5744 49.3828V44.8H21.7077V51.5202L19.4173 54.1333H12.7609ZM38.1213 54.1333H31.0411V45.7333H32.9077V48.5333C32.9077 48.7808 33.0062 49.0182 33.1812 49.1932L38.1213 54.1333ZM33.6542 41.429L31.0411 38.8154V33.6H33.8411V37.3333C33.8411 37.6551 34.007 37.954 34.2795 38.1249C34.6277 38.3432 34.9421 38.5355 35.2707 38.7379L33.6542 41.429ZM41.6035 3.99082L43.5992 4.98978C48.4996 7.41882 51.5926 12.4232 51.5744 17.8928C51.5785 19.3366 51.0048 20.722 49.9812 21.7401C49.7082 22.0131 49.6312 22.426 49.788 22.7787L52.938 29.8667H50.6411C50.1257 29.8667 49.7077 30.2846 49.7077 30.8V33.6H49.5473C48.1036 33.6041 46.7186 33.0303 45.701 32.0068C45.3346 31.6531 44.7526 31.6581 44.3926 32.0182C44.0326 32.3782 44.0275 32.9602 44.3812 33.3266C45.4872 34.4363 46.9237 35.1568 48.4745 35.3801L48.1145 35.7401C47.9395 35.9151 47.8411 36.1525 47.8411 36.4V41.0667L43.2628 41.0721C41.1068 40.075 39.0245 38.9238 37.033 37.6282L37.0284 37.6236H37.0225C36.5832 37.3566 36.1425 37.0859 35.7077 36.8161V30.4983L39.7874 28.8673C40.142 28.7255 40.3744 28.3819 40.3744 28V24.2667C40.3744 24.0648 40.3088 23.8684 40.1876 23.7066L37.5744 20.2225V9.63184L41.6035 3.99082ZM24.5077 1.86667H31.9744V3.73333C31.9744 4.24876 32.3923 4.66667 32.9077 4.66667H38.8277L35.8823 8.79102C35.7684 8.94915 35.7073 9.13874 35.7077 9.33333H32.2442L31.8491 8.6502C31.6208 8.25508 31.1404 8.08281 30.7134 8.24323L27.1209 9.58991C26.9186 9.4582 26.7121 9.33789 26.5048 9.22988L25.8704 5.44596C25.7952 4.99616 25.406 4.66667 24.9503 4.66667H24.5077V1.86667ZM14.4621 12.1333L15.5381 10.2667L18.8526 11.509C19.1502 11.6202 19.4838 11.5728 19.7381 11.3827C20.0895 11.118 20.4709 10.8956 20.8742 10.7201C21.1663 10.5948 21.3746 10.3291 21.4266 10.0156L22.0072 6.53333H24.1596L24.7402 10.0165C24.7921 10.33 25.0004 10.5957 25.2925 10.721C25.6958 10.8969 26.0768 11.1193 26.4286 11.3837C26.6829 11.5737 27.0161 11.6211 27.3132 11.5099L30.6286 10.2667L31.7037 12.1333L28.9734 14.3801C28.7283 14.582 28.6025 14.8955 28.6403 15.2113C28.6977 15.647 28.6977 16.0882 28.6403 16.5238C28.6025 16.8396 28.7283 17.1532 28.9734 17.3555L31.7037 19.6L30.6286 21.4667L27.3132 20.2243C27.0161 20.1132 26.6829 20.1605 26.4286 20.3506C26.0768 20.6149 25.6958 20.8373 25.2925 21.0132C25.0004 21.1385 24.7921 21.4042 24.7402 21.7178L24.1596 25.2H22.0062L21.4275 21.7169C21.3755 21.4033 21.1673 21.1376 20.8751 21.0123C20.4718 20.8368 20.0904 20.6145 19.7395 20.3497C19.4847 20.1596 19.1511 20.1118 18.8535 20.2234L15.5381 21.4667L14.4621 19.6L17.1924 17.3533C17.2088 17.3373 17.2247 17.32 17.2398 17.3022C17.258 17.2849 17.2749 17.2671 17.2913 17.248C17.3615 17.1723 17.418 17.0853 17.459 16.9905L17.4649 16.98C17.5036 16.8775 17.5242 16.7681 17.5246 16.6583C17.5278 16.6451 17.5305 16.6314 17.5319 16.6182C17.5319 16.6068 17.5264 16.5977 17.5255 16.5863C17.5246 16.5749 17.5255 16.5434 17.5255 16.522C17.4681 16.0863 17.4681 15.6452 17.5255 15.2095C17.5629 14.8937 17.4371 14.5801 17.1915 14.3778L14.4621 12.1333ZM3.14453 16.3734C3.25573 16.1506 3.4526 15.9824 3.68958 15.9068C4.16719 15.7851 4.65709 16.0558 4.8084 16.5252C4.9597 16.9941 4.71953 17.5 4.26107 17.68C3.77025 17.8377 3.24433 17.5679 3.08665 17.0771C3.01237 16.8442 3.03288 16.5913 3.14453 16.3734Z" fill="white"/>
<path d="M21.7077 37.3333H23.5744V39.2H21.7077V37.3333Z" fill="white"/>
<path d="M21.7077 41.0667H23.5744V42.9333H21.7077V41.0667Z" fill="white"/>
<path d="M27.3077 26.1333H29.1744V28H27.3077V26.1333Z" fill="white"/>
<path d="M31.0411 26.1333H32.9077V28H31.0411V26.1333Z" fill="white"/>
<path d="M39.4411 9.33334H41.3077V13.0667H39.4411V9.33334Z" fill="white"/>
<path d="M39.4411 14.9333H41.3077V16.8H39.4411V14.9333Z" fill="white"/>
<path d="M39.4411 18.6667H41.3077V20.5333H39.4411V18.6667Z" fill="white"/>
</g>
<defs>
<clipPath id="clip0">
<rect width="56" height="56" fill="white"/>
</clipPath>
</defs>
</svg>
