<svg width="33" height="33" viewBox="0 0 33 33" fill="none" xmlns="http://www.w3.org/2000/svg">
<path d="M5.15625 9.28125C5.15625 10.9875 6.5438 12.375 8.25 12.375C9.9562 12.375 11.3438 10.9875 11.3438 9.28125C11.3438 7.57505 9.9562 6.1875 8.25 6.1875C6.5438 6.1875 5.15625 7.57505 5.15625 9.28125ZM10.3125 9.28125C10.3125 10.4187 9.38747 11.3438 8.25 11.3438C7.11253 11.3438 6.1875 10.4187 6.1875 9.28125C6.1875 8.14378 7.11253 7.21875 8.25 7.21875C9.38747 7.21875 10.3125 8.14378 10.3125 9.28125Z" fill="url(#paint0_linear)"/>
<path d="M15.8332 14.802L19.4425 11.1927C19.6442 10.991 19.6442 10.6652 19.4425 10.4636L17.8957 8.91669C17.7049 8.72591 17.3996 8.71456 17.1955 8.88988L13.6459 11.9321L10.2067 13.4062H4.12487C3.97586 13.4062 3.83509 13.4702 3.73712 13.5826L0.127749 17.7076C0.00709296 17.8453 -0.0315789 18.0365 0.0266867 18.2103L1.57356 22.8509C1.621 22.9922 1.72722 23.1067 1.86541 23.1639C2.00359 23.2201 2.1588 23.2155 2.29337 23.149L4.35587 22.1177C4.53222 22.0295 4.6405 21.8527 4.6405 21.666V30.4219C4.6405 31.8434 5.79705 33 7.21862 33H11.3436C11.6282 33 11.8592 32.7695 11.8592 32.4844V16.8186L15.6991 14.8985C15.7491 14.8742 15.794 14.8412 15.8332 14.802ZM4.6405 21.6459C4.6405 21.5851 4.62761 21.5242 4.60389 21.4644L3.68401 19.1658L4.6405 17.97V21.6459ZM11.1131 16.0385C10.9383 16.1262 10.828 16.3046 10.828 16.5V31.9687H8.7655V23.7187C8.7655 23.4336 8.5345 23.2031 8.24987 23.2031C7.96525 23.2031 7.73425 23.4336 7.73425 23.7187V31.9687H7.21862C6.36578 31.9687 5.67175 31.2747 5.67175 30.4219V16.5C5.67175 16.2808 5.53356 16.0859 5.3268 16.0138C5.12055 15.941 4.89006 16.007 4.75342 16.1777L2.69092 18.7558C2.57491 18.9007 2.54603 19.0972 2.61461 19.2694L3.47003 21.4072L2.3635 21.9605L1.09816 18.1644L4.35897 14.4375H10.3124C10.382 14.4375 10.4516 14.4236 10.5155 14.3957L14.1249 12.8488C14.1729 12.8282 14.2177 12.8004 14.2574 12.7663L17.5043 9.98403L18.3489 10.8281L15.1634 14.0136L11.1131 16.0385Z" fill="url(#paint1_linear)"/>
<path d="M7.21875 16.5H7.73438V20.625H8.76562V16.5H9.28125V15.4688H7.21875V16.5Z" fill="url(#paint2_linear)"/>
<path d="M33 25.7812C33 24.075 31.6125 22.6875 29.9062 22.6875C28.8307 22.6875 27.8829 23.2397 27.3281 24.0745C26.7733 23.2392 25.8256 22.6875 24.75 22.6875C23.6744 22.6875 22.7267 23.2397 22.1719 24.0745C21.6171 23.2392 20.6693 22.6875 19.5938 22.6875C17.8875 22.6875 16.5 24.075 16.5 25.7812C16.5 26.8568 17.0522 27.8046 17.887 28.3594C17.0517 28.9142 16.5 29.8619 16.5 30.9375V33H17.5312V30.9375C17.5312 29.8 18.4563 28.875 19.5938 28.875C20.7312 28.875 21.6562 29.8 21.6562 30.9375V33H22.6875V30.9375C22.6875 29.8 23.6125 28.875 24.75 28.875C25.8875 28.875 26.8125 29.8 26.8125 30.9375V33H27.8438V30.9375C27.8438 29.8 28.7688 28.875 29.9062 28.875C31.0437 28.875 31.9688 29.8 31.9688 30.9375V33H33V30.9375C33 29.8619 32.4478 28.9142 31.613 28.3594C32.4478 27.8046 33 26.8568 33 25.7812ZM24.75 23.7188C25.8875 23.7188 26.8125 24.6438 26.8125 25.7812C26.8125 26.9187 25.8875 27.8438 24.75 27.8438C23.6125 27.8438 22.6875 26.9187 22.6875 25.7812C22.6875 24.6438 23.613 23.7188 24.75 23.7188ZM17.5312 25.7812C17.5312 24.6438 18.4563 23.7188 19.5938 23.7188C20.7312 23.7188 21.6562 24.6438 21.6562 25.7812C21.6562 26.9187 20.7312 27.8438 19.5938 27.8438C18.4563 27.8438 17.5312 26.9187 17.5312 25.7812ZM22.1719 29.2308C21.9424 28.8853 21.6459 28.5888 21.3005 28.3594C21.6459 28.1299 21.9424 27.8334 22.1719 27.488C22.4013 27.8334 22.6978 28.1299 23.0433 28.3594C22.6978 28.5888 22.4013 28.8853 22.1719 29.2308ZM27.3281 29.2308C27.0987 28.8853 26.8022 28.5888 26.4567 28.3594C26.8022 28.1299 27.0987 27.8334 27.3281 27.488C27.5576 27.8334 27.8541 28.1299 28.1995 28.3594C27.8541 28.5888 27.5576 28.8853 27.3281 29.2308ZM29.9062 27.8438C28.7688 27.8438 27.8438 26.9187 27.8438 25.7812C27.8438 24.6438 28.7688 23.7188 29.9062 23.7188C31.0437 23.7188 31.9688 24.6438 31.9688 25.7812C31.9688 26.9187 31.0437 27.8438 29.9062 27.8438Z" fill="url(#paint3_linear)"/>
<path d="M32.4844 0H13.4062C13.1216 0 12.8906 0.230484 12.8906 0.515625V10.3125H13.9219V1.03125H31.9688V14.9531C31.9688 15.806 31.2747 16.5 30.4219 16.5H14.4375V17.5312H30.4219C31.8435 17.5312 33 16.3747 33 14.9531V0.515625C33 0.230484 32.769 0 32.4844 0Z" fill="url(#paint4_linear)"/>
<path d="M21.6562 2.57812H16.5C16.2154 2.57812 15.9844 2.80861 15.9844 3.09375V5.15625C15.9844 5.44139 16.2154 5.67188 16.5 5.67188H21.6562C21.9409 5.67188 22.1719 5.44139 22.1719 5.15625V4.64062H23.7188V5.15625C23.7188 5.44139 23.9497 5.67188 24.2344 5.67188H26.2969V7.21875H24.2344C23.9497 7.21875 23.7188 7.44923 23.7188 7.73438V9.79688C23.7188 10.082 23.9497 10.3125 24.2344 10.3125H26.2969V11.8594H24.2344C23.9497 11.8594 23.7188 12.0899 23.7188 12.375V14.4375C23.7188 14.7226 23.9497 14.9531 24.2344 14.9531H29.3906C29.6753 14.9531 29.9062 14.7226 29.9062 14.4375V12.375C29.9062 12.0899 29.6753 11.8594 29.3906 11.8594H27.3281V10.3125H29.3906C29.6753 10.3125 29.9062 10.082 29.9062 9.79688V7.73438C29.9062 7.44923 29.6753 7.21875 29.3906 7.21875H27.3281V5.67188H29.3906C29.6753 5.67188 29.9062 5.44139 29.9062 5.15625V3.09375C29.9062 2.80861 29.6753 2.57812 29.3906 2.57812H24.2344C23.9497 2.57812 23.7188 2.80861 23.7188 3.09375V3.60938H22.1719V3.09375C22.1719 2.80861 21.9409 2.57812 21.6562 2.57812ZM21.1406 4.64062H17.0156V3.60938H21.1406V4.64062ZM28.875 13.9219H24.75V12.8906H28.875V13.9219ZM28.875 9.28125H24.75V8.25H28.875V9.28125ZM24.75 3.60938H28.875V4.64062H24.75V3.60938Z" fill="url(#paint5_linear)"/>
<path d="M22.1719 6.70312H16.5V7.73438H22.1719V6.70312Z" fill="url(#paint6_linear)"/>
<path d="M22.1719 8.76562H20.1094V9.79688H22.1719V8.76562Z" fill="url(#paint7_linear)"/>
<path d="M22.1719 10.8281H20.625V11.8594H22.1719V10.8281Z" fill="url(#paint8_linear)"/>
<path d="M22.1719 12.8906H19.0781V13.9219H22.1719V12.8906Z" fill="url(#paint9_linear)"/>
<path d="M2.0625 5.15625H2.32031L3.7125 7.0125C3.81202 7.1445 3.96567 7.21875 4.125 7.21875C4.17914 7.21875 4.23431 7.20998 4.28794 7.19194C4.49883 7.12181 4.64062 6.92536 4.64062 6.70312V5.15625H7.73438C8.58722 5.15625 9.28125 4.46222 9.28125 3.60938V1.54688C9.28125 0.694031 8.58722 0 7.73438 0H2.0625C1.20966 0 0.515625 0.694031 0.515625 1.54688V3.60938C0.515625 4.46222 1.20966 5.15625 2.0625 5.15625ZM1.54688 1.54688C1.54688 1.26225 1.77839 1.03125 2.0625 1.03125H7.73438C8.01848 1.03125 8.25 1.26225 8.25 1.54688V3.60938C8.25 3.894 8.01848 4.125 7.73438 4.125H4.125C3.84037 4.125 3.60938 4.35548 3.60938 4.64062V5.15625L2.99063 4.33125C2.89317 4.20131 2.74055 4.125 2.57812 4.125H2.0625C1.77839 4.125 1.54688 3.894 1.54688 3.60938V1.54688Z" fill="url(#paint10_linear)"/>
<path d="M7.21875 2.0625H2.57812V3.09375H7.21875V2.0625Z" fill="url(#paint11_linear)"/>
<defs>
<linearGradient id="paint0_linear" x1="5.82718" y1="6.48933" x2="12.1231" y2="9.12768" gradientUnits="userSpaceOnUse">
<stop stop-color="#4BA5BB"/>
<stop offset="1" stop-color="#302E9F"/>
</linearGradient>
<linearGradient id="paint1_linear" x1="2.12462" y1="9.94779" x2="23.1493" y2="17.0712" gradientUnits="userSpaceOnUse">
<stop stop-color="#4BA5BB"/>
<stop offset="1" stop-color="#302E9F"/>
</linearGradient>
<linearGradient id="paint2_linear" x1="7.44239" y1="15.7203" x2="9.84214" y2="16.1225" gradientUnits="userSpaceOnUse">
<stop stop-color="#4BA5BB"/>
<stop offset="1" stop-color="#302E9F"/>
</linearGradient>
<linearGradient id="paint3_linear" x1="18.2892" y1="23.1905" x2="31.9053" y2="32.3201" gradientUnits="userSpaceOnUse">
<stop stop-color="#4BA5BB"/>
<stop offset="1" stop-color="#302E9F"/>
</linearGradient>
<linearGradient id="paint4_linear" x1="15.0712" y1="0.855182" x2="34.6112" y2="10.2478" gradientUnits="userSpaceOnUse">
<stop stop-color="#4BA5BB"/>
<stop offset="1" stop-color="#302E9F"/>
</linearGradient>
<linearGradient id="paint5_linear" x1="17.494" y1="3.18178" x2="31.1191" y2="9.60524" gradientUnits="userSpaceOnUse">
<stop stop-color="#4BA5BB"/>
<stop offset="1" stop-color="#302E9F"/>
</linearGradient>
<linearGradient id="paint6_linear" x1="17.115" y1="6.75343" x2="18.1899" y2="9.23079" gradientUnits="userSpaceOnUse">
<stop stop-color="#4BA5BB"/>
<stop offset="1" stop-color="#302E9F"/>
</linearGradient>
<linearGradient id="paint7_linear" x1="20.333" y1="8.81593" x2="21.7822" y2="10.0305" gradientUnits="userSpaceOnUse">
<stop stop-color="#4BA5BB"/>
<stop offset="1" stop-color="#302E9F"/>
</linearGradient>
<linearGradient id="paint8_linear" x1="20.7927" y1="10.8784" x2="22.1191" y2="11.7121" gradientUnits="userSpaceOnUse">
<stop stop-color="#4BA5BB"/>
<stop offset="1" stop-color="#302E9F"/>
</linearGradient>
<linearGradient id="paint9_linear" x1="19.4136" y1="12.9409" x2="20.8477" y2="14.7439" gradientUnits="userSpaceOnUse">
<stop stop-color="#4BA5BB"/>
<stop offset="1" stop-color="#302E9F"/>
</linearGradient>
<linearGradient id="paint10_linear" x1="1.46611" y1="0.352134" x2="9.79498" y2="4.59034" gradientUnits="userSpaceOnUse">
<stop stop-color="#4BA5BB"/>
<stop offset="1" stop-color="#302E9F"/>
</linearGradient>
<linearGradient id="paint11_linear" x1="3.08133" y1="2.1128" x2="4.29972" y2="4.41042" gradientUnits="userSpaceOnUse">
<stop stop-color="#4BA5BB"/>
<stop offset="1" stop-color="#302E9F"/>
</linearGradient>
</defs>
</svg>
