<svg width="41" height="44" viewBox="0 0 41 44" fill="none" xmlns="http://www.w3.org/2000/svg">
<g clip-path="url(#clip0)">
<path d="M36.3868 33.5566C36.7093 33.5566 36.9707 33.28 36.9707 32.9387V6.92787C36.9707 6.58661 36.7093 6.30994 36.3868 6.30994H34.454V4.18127C34.454 3.84 34.1926 3.56333 33.8701 3.56333H31.9373V1.51796C31.9373 1.1767 31.6759 0.900024 31.3534 0.900024H4.61322C4.29074 0.900024 4.0293 1.1767 4.0293 1.51796V37.0566C4.0293 37.3979 4.29074 37.6746 4.61322 37.6746H6.546V39.7199C6.546 40.0612 6.80744 40.3379 7.12992 40.3379H9.0627V42.4666C9.0627 42.8078 9.32414 43.0845 9.64662 43.0845H36.3867C36.7092 43.0845 36.9706 42.8078 36.9706 42.4666V35.8223C36.9706 35.481 36.7092 35.2043 36.3867 35.2043C36.0642 35.2043 35.8028 35.481 35.8028 35.8223V41.8486H10.2306V40.338H33.8701C34.1926 40.338 34.454 40.0613 34.454 39.72V29.2025C34.454 28.8612 34.1926 28.5846 33.8701 28.5846C33.5476 28.5846 33.2862 28.8612 33.2862 29.2025V39.102H7.71384V37.6746H31.3533C31.6758 37.6746 31.9372 37.3979 31.9372 37.0566V24.0205C31.9372 23.6792 31.6758 23.4026 31.3533 23.4026C31.0308 23.4026 30.7694 23.6792 30.7694 24.0205V36.4388H5.19714V2.1359H30.7694V21.1295C30.7694 21.4707 31.0308 21.7474 31.3533 21.7474C31.6758 21.7474 31.9372 21.4707 31.9372 21.1295V4.7992H33.2861V26.3168C33.2861 26.6581 33.5475 26.9348 33.87 26.9348C34.1925 26.9348 34.4539 26.6581 34.4539 26.3168V7.54581H35.8028V32.9388C35.8029 33.28 36.0643 33.5566 36.3868 33.5566Z" fill="black"/>
<path d="M16.0505 16.1663V4.68068C16.0505 4.33941 15.7891 4.06274 15.4666 4.06274H7.60181C7.27932 4.06274 7.01788 4.33941 7.01788 4.68068V16.1662C7.01788 16.5075 7.27932 16.7842 7.60181 16.7842H15.4666C15.7891 16.7842 16.0505 16.5076 16.0505 16.1663ZM14.8827 15.5484H8.18573V5.29862H14.8826V15.5484H14.8827Z" fill="black"/>
<path d="M28.9487 4.68068C28.9487 4.33941 28.6872 4.06274 28.3647 4.06274H18.2978C17.9754 4.06274 17.7139 4.33941 17.7139 4.68068V7.5105C17.7139 7.85177 17.9754 8.12844 18.2978 8.12844H28.3647C28.6872 8.12844 28.9487 7.85177 28.9487 7.5105V4.68068ZM27.7808 6.89256H18.8818V5.29862H27.7808V6.89256Z" fill="black"/>
<path d="M28.3647 9.88879H18.2978C17.9754 9.88879 17.7139 10.1655 17.7139 10.5067C17.7139 10.848 17.9754 11.1247 18.2978 11.1247H28.3647C28.6872 11.1247 28.9487 10.848 28.9487 10.5067C28.9487 10.1655 28.6872 9.88879 28.3647 9.88879Z" fill="black"/>
<path d="M28.3647 12.5521H18.2978C17.9754 12.5521 17.7139 12.8288 17.7139 13.1701C17.7139 13.5113 17.9754 13.788 18.2978 13.788H28.3647C28.6872 13.788 28.9487 13.5113 28.9487 13.1701C28.9487 12.8288 28.6872 12.5521 28.3647 12.5521Z" fill="black"/>
<path d="M28.3647 15.5483H18.2978C17.9754 15.5483 17.7139 15.825 17.7139 16.1663C17.7139 16.5075 17.9754 16.7842 18.2978 16.7842H28.3647C28.6872 16.7842 28.9487 16.5075 28.9487 16.1663C28.9487 15.825 28.6872 15.5483 28.3647 15.5483Z" fill="black"/>
<path d="M28.3647 18.5444H13.579C13.2565 18.5444 12.9951 18.8211 12.9951 19.1624C12.9951 19.5036 13.2565 19.7803 13.579 19.7803H28.3647C28.6872 19.7803 28.9486 19.5036 28.9486 19.1624C28.9486 18.8211 28.6872 18.5444 28.3647 18.5444Z" fill="black"/>
<path d="M10.7477 18.5444H7.6018C7.27932 18.5444 7.01788 18.8211 7.01788 19.1624C7.01788 19.5036 7.27932 19.7803 7.6018 19.7803H10.7477C11.0701 19.7803 11.3316 19.5036 11.3316 19.1624C11.3316 18.8211 11.0702 18.5444 10.7477 18.5444Z" fill="black"/>
<path d="M28.3647 21.5408H13.579C13.2565 21.5408 12.9951 21.8174 12.9951 22.1587C12.9951 22.5 13.2565 22.7766 13.579 22.7766H28.3647C28.6872 22.7766 28.9486 22.5 28.9486 22.1587C28.9486 21.8174 28.6872 21.5408 28.3647 21.5408Z" fill="black"/>
<path d="M10.7477 21.5408H7.6018C7.27932 21.5408 7.01788 21.8174 7.01788 22.1587C7.01788 22.5 7.27932 22.7766 7.6018 22.7766H10.7477C11.0701 22.7766 11.3316 22.5 11.3316 22.1587C11.3316 21.8174 11.0702 21.5408 10.7477 21.5408Z" fill="black"/>
<path d="M28.3647 24.537H13.579C13.2565 24.537 12.9951 24.8137 12.9951 25.1549C12.9951 25.4962 13.2565 25.7729 13.579 25.7729H28.3647C28.6872 25.7729 28.9486 25.4962 28.9486 25.1549C28.9486 24.8137 28.6872 24.537 28.3647 24.537Z" fill="black"/>
<path d="M10.7477 24.537H7.6018C7.27932 24.537 7.01788 24.8137 7.01788 25.1549C7.01788 25.4962 7.27932 25.7729 7.6018 25.7729H10.7477C11.0701 25.7729 11.3316 25.4962 11.3316 25.1549C11.3316 24.8137 11.0702 24.537 10.7477 24.537Z" fill="black"/>
<path d="M28.3647 27.5333H13.579C13.2565 27.5333 12.9951 27.81 12.9951 28.1513C12.9951 28.4925 13.2565 28.7692 13.579 28.7692H28.3647C28.6872 28.7692 28.9486 28.4925 28.9486 28.1513C28.9486 27.81 28.6872 27.5333 28.3647 27.5333Z" fill="black"/>
<path d="M10.7477 27.5333H7.6018C7.27932 27.5333 7.01788 27.81 7.01788 28.1513C7.01788 28.4925 7.27932 28.7692 7.6018 28.7692H10.7477C11.0701 28.7692 11.3316 28.4925 11.3316 28.1513C11.3316 27.81 11.0702 27.5333 10.7477 27.5333Z" fill="black"/>
<path d="M28.3647 30.5295H13.579C13.2565 30.5295 12.9951 30.8062 12.9951 31.1475C12.9951 31.4887 13.2565 31.7654 13.579 31.7654H28.3647C28.6872 31.7654 28.9486 31.4887 28.9486 31.1475C28.9486 30.8062 28.6872 30.5295 28.3647 30.5295Z" fill="black"/>
<path d="M10.7477 30.5295H7.6018C7.27932 30.5295 7.01788 30.8062 7.01788 31.1475C7.01788 31.4887 7.27932 31.7654 7.6018 31.7654H10.7477C11.0701 31.7654 11.3316 31.4887 11.3316 31.1475C11.3316 30.8062 11.0702 30.5295 10.7477 30.5295Z" fill="black"/>
</g>
<defs>
<clipPath id="clip0">
<rect width="39.8624" height="42.1845" fill="white" transform="translate(0.568817 0.900024)"/>
</clipPath>
</defs>
</svg>
