<svg width="53" height="57" viewBox="0 0 53 57" fill="none" xmlns="http://www.w3.org/2000/svg">
<path d="M51.1173 33.2924C52.0984 31.9001 52.5893 30.1629 52.5893 28.6577C52.5893 26.3885 51.5231 24.2801 49.6935 22.8505C50.0984 21.9357 50.303 20.9843 50.303 20.0113C50.303 17.0008 48.4447 14.1963 45.6818 12.8867C46.101 9.59955 43.8355 6.5865 40.4782 5.81794C39.1641 2.94594 36.2394 0.989258 33.1557 0.989258C30.2853 0.989258 27.7108 2.5722 26.2968 4.88186C24.8827 2.5722 22.3082 0.989258 19.4379 0.989258C16.354 0.989258 13.4293 2.94594 12.1154 5.81805C8.73799 6.59147 6.49375 9.61954 6.9118 12.8867C4.14903 14.1962 2.29061 17.0008 2.29061 20.0113C2.29061 20.9843 2.49523 21.9357 2.90014 22.8505C1.07052 24.2803 0.00430298 26.3885 0.00430298 28.6577C0.00430298 30.1708 0.499288 31.9057 1.47634 33.2923C0.521579 34.5665 0.00430298 36.0767 0.00430298 37.6283C0.00430298 39.6404 0.867154 41.557 2.39338 42.9802C1.60872 47.4647 5.39141 52.003 10.2927 52.003C10.3281 52.003 10.363 52.0024 10.3972 52.0014C12.0222 54.6518 15.0385 56.3262 18.2947 56.3262C21.6885 56.3262 24.7211 54.4002 26.2968 51.6253C27.8725 54.4002 30.9051 56.3262 34.2989 56.3262C37.5551 56.3262 40.5715 54.6518 42.1965 52.0014C42.2308 52.0024 42.2655 52.003 42.3009 52.003C46.6385 52.003 50.303 48.3899 50.303 44.1131C50.303 43.749 50.2692 43.3745 50.2002 42.9802C51.7265 41.557 52.5893 39.6405 52.5893 37.6283C52.5893 36.0767 52.072 34.5665 51.1173 33.2924ZM25.1537 17.3505C24.4806 16.9814 23.6999 16.7689 22.8674 16.7689C22.236 16.7689 21.7242 17.2528 21.7242 17.8497C21.7242 18.4466 22.236 18.9305 22.8674 18.9305C24.128 18.9305 25.1537 19.9002 25.1537 21.0921V41.6456C23.4765 39.847 21.0242 38.7091 18.2947 38.7091C17.6634 38.7091 17.1516 39.193 17.1516 39.7899C17.1516 40.3869 17.6634 40.8707 18.2947 40.8707C22.0767 40.8707 25.1537 43.7798 25.1537 47.3555C25.1537 51.0463 22.0126 54.1646 18.2947 54.1646C15.6481 54.1646 13.2117 52.6848 12.0875 50.3947C11.8803 49.9727 11.4109 49.7238 10.9215 49.7759C10.8407 49.7846 10.7603 49.7948 10.68 49.8052C7.42656 50.2258 3.76276 46.7427 4.75456 42.8462C4.85641 42.446 4.70895 42.026 4.37435 41.7627C3.05012 40.7209 2.29061 39.214 2.29061 37.6283C2.29061 36.6479 2.58383 35.6885 3.12945 34.8472C4.50055 35.9097 6.20602 36.5475 8.00637 36.5475C8.63773 36.5475 9.14952 36.0637 9.14952 35.4667C9.14952 34.8698 8.63773 34.3859 8.00637 34.3859C4.90397 34.3859 2.29061 31.7088 2.29061 28.6577C2.29061 26.8068 3.28847 25.1041 4.9601 24.103C5.47509 23.7945 5.64347 23.1583 5.34271 22.6569C4.83458 21.8097 4.57691 20.9195 4.57691 20.0113C4.57691 17.0942 7.09208 14.2831 10.2927 14.2831C13.3376 14.2831 16.0084 16.9599 16.0084 20.0113C16.0084 20.6082 16.5202 21.0921 17.1516 21.0921C17.783 21.0921 18.2947 20.6082 18.2947 20.0113C18.2947 15.7346 14.6303 12.1215 10.2927 12.1215C9.90995 12.1215 9.52928 12.1508 9.15238 12.2062C9.15181 12.1778 9.14952 12.1501 9.14952 12.1215C9.14952 9.70947 11.2206 7.79829 13.7221 7.79829C14.9432 7.79829 16.0919 8.24801 16.9563 9.06445C17.403 9.48628 18.1267 9.48585 18.573 9.06369C19.0192 8.64131 19.0188 7.95706 18.5722 7.53522C17.5293 6.55029 16.2102 5.92213 14.7807 5.71397C15.7888 4.2991 17.4653 3.15086 19.4379 3.15086C22.4828 3.15086 25.1537 5.82756 25.1537 8.87909V17.3505ZM44.5872 36.5475C46.3877 36.5475 48.0932 35.9095 49.4643 34.8475C50.0098 35.6887 50.303 36.6481 50.303 37.6283C50.303 39.214 49.5435 40.7209 48.2194 41.7627C47.8847 42.026 47.7373 42.4461 47.8392 42.8462C47.9604 43.3221 48.0167 43.7247 48.0167 44.113C48.0167 47.4678 44.8073 50.1791 41.9138 49.8052C41.8334 49.7948 41.7529 49.7845 41.6721 49.7759C41.182 49.7234 40.7132 49.9727 40.5062 50.3947C39.382 52.6848 36.9454 54.1646 34.2989 54.1646C30.581 54.1646 27.44 51.0463 27.44 47.3555C27.44 43.7798 30.5169 40.8707 34.2989 40.8707C34.9301 40.8707 35.442 40.3869 35.442 39.7899C35.442 39.193 34.9301 38.7091 34.2989 38.7091C31.5694 38.7091 29.1171 39.847 27.44 41.6456V21.0921C27.44 19.9002 28.4656 18.9305 29.7263 18.9305C30.3575 18.9305 30.8694 18.4466 30.8694 17.8497C30.8694 17.2528 30.3575 16.7689 29.7263 16.7689C28.8937 16.7689 28.1131 16.9814 27.44 17.3505V8.87909C27.44 5.82756 30.1108 3.15086 33.1557 3.15086C35.1283 3.15086 36.8047 4.2991 37.8128 5.71386C36.3834 5.92202 35.0644 6.55018 34.0214 7.53512C33.5747 7.95695 33.5742 8.64121 34.0204 9.06358C34.4666 9.48596 35.1905 9.48628 35.6371 9.06445C36.5018 8.24801 37.6504 7.79829 38.8715 7.79829C41.3856 7.79829 43.4441 9.72071 43.4441 12.1215C43.4441 12.15 43.4418 12.1778 43.4412 12.2062C43.0643 12.1508 42.6837 12.1215 42.3009 12.1215C37.9634 12.1215 34.2989 15.7346 34.2989 20.0113C34.2989 20.6082 34.8108 21.0921 35.442 21.0921C36.0733 21.0921 36.5852 20.6082 36.5852 20.0113C36.5852 16.9599 39.256 14.2831 42.3009 14.2831C45.4997 14.2831 48.0167 17.0928 48.0167 20.0113C48.0167 20.9195 47.759 21.8097 47.2509 22.6569C46.9503 23.1583 47.1186 23.7945 47.6336 24.103C49.3052 25.1041 50.303 26.8068 50.303 28.6577C50.303 31.7197 47.6805 34.3859 44.5872 34.3859C43.956 34.3859 43.4441 34.8698 43.4441 35.4667C43.4441 36.0637 43.956 36.5475 44.5872 36.5475Z" fill="black"/>
</svg>
