<svg width="58" height="58" viewBox="0 0 58 58" fill="none" xmlns="http://www.w3.org/2000/svg">
<path d="M42.899 4.5C42.434 2.221 40.415 0.5 38 0.5C37.447 0.5 37 0.947 37 1.5C37 2.053 37.447 2.5 38 2.5C39.654 2.5 41 3.846 41 5.5C41 7.154 39.654 8.5 38 8.5C37.447 8.5 37 8.947 37 9.5C37 10.053 37.447 10.5 38 10.5C40.414 10.5 42.434 8.779 42.899 6.5H56V15.5H2V6.5H16H19C19.553 6.5 20 6.053 20 5.5C20 4.947 19.553 4.5 19 4.5H17.184C17.598 3.338 18.698 2.5 20 2.5C21.654 2.5 23 3.846 23 5.5C23 7.154 21.654 8.5 20 8.5C19.447 8.5 19 8.947 19 9.5C19 10.053 19.447 10.5 20 10.5C22.757 10.5 25 8.257 25 5.5C25 2.743 22.757 0.5 20 0.5C17.586 0.5 15.566 2.221 15.101 4.5H0V17.5V57.5H58V17.5V4.5H42.899ZM56 55.5H2V17.5H56V55.5Z" fill="#2D4DBC"/>
<path d="M26 2.5C27.654 2.5 29 3.846 29 5.5C29 7.154 27.654 8.5 26 8.5C25.447 8.5 25 8.947 25 9.5C25 10.053 25.447 10.5 26 10.5C28.757 10.5 31 8.257 31 5.5C31 2.743 28.757 0.5 26 0.5C25.447 0.5 25 0.947 25 1.5C25 2.053 25.447 2.5 26 2.5Z" fill="#2D4DBC"/>
<path d="M32 2.5C33.654 2.5 35 3.846 35 5.5C35 7.154 33.654 8.5 32 8.5C31.447 8.5 31 8.947 31 9.5C31 10.053 31.447 10.5 32 10.5C34.757 10.5 37 8.257 37 5.5C37 2.743 34.757 0.5 32 0.5C31.447 0.5 31 0.947 31 1.5C31 2.053 31.447 2.5 32 2.5Z" fill="#2D4DBC"/>
<path d="M22 25.5C22.5523 25.5 23 25.0523 23 24.5C23 23.9477 22.5523 23.5 22 23.5C21.4477 23.5 21 23.9477 21 24.5C21 25.0523 21.4477 25.5 22 25.5Z" fill="#2D4DBC"/>
<path d="M29 25.5C29.5523 25.5 30 25.0523 30 24.5C30 23.9477 29.5523 23.5 29 23.5C28.4477 23.5 28 23.9477 28 24.5C28 25.0523 28.4477 25.5 29 25.5Z" fill="#2D4DBC"/>
<path d="M36 25.5C36.5523 25.5 37 25.0523 37 24.5C37 23.9477 36.5523 23.5 36 23.5C35.4477 23.5 35 23.9477 35 24.5C35 25.0523 35.4477 25.5 36 25.5Z" fill="#2D4DBC"/>
<path d="M43 25.5C43.5523 25.5 44 25.0523 44 24.5C44 23.9477 43.5523 23.5 43 23.5C42.4477 23.5 42 23.9477 42 24.5C42 25.0523 42.4477 25.5 43 25.5Z" fill="#2D4DBC"/>
<path d="M50 25.5C50.5523 25.5 51 25.0523 51 24.5C51 23.9477 50.5523 23.5 50 23.5C49.4477 23.5 49 23.9477 49 24.5C49 25.0523 49.4477 25.5 50 25.5Z" fill="#2D4DBC"/>
<path d="M8 33.5C8.55228 33.5 9 33.0523 9 32.5C9 31.9477 8.55228 31.5 8 31.5C7.44772 31.5 7 31.9477 7 32.5C7 33.0523 7.44772 33.5 8 33.5Z" fill="#2D4DBC"/>
<path d="M15 33.5C15.5523 33.5 16 33.0523 16 32.5C16 31.9477 15.5523 31.5 15 31.5C14.4477 31.5 14 31.9477 14 32.5C14 33.0523 14.4477 33.5 15 33.5Z" fill="#2D4DBC"/>
<path d="M22 33.5C22.5523 33.5 23 33.0523 23 32.5C23 31.9477 22.5523 31.5 22 31.5C21.4477 31.5 21 31.9477 21 32.5C21 33.0523 21.4477 33.5 22 33.5Z" fill="#2D4DBC"/>
<path d="M29 33.5C29.5523 33.5 30 33.0523 30 32.5C30 31.9477 29.5523 31.5 29 31.5C28.4477 31.5 28 31.9477 28 32.5C28 33.0523 28.4477 33.5 29 33.5Z" fill="#2D4DBC"/>
<path d="M36 33.5C36.5523 33.5 37 33.0523 37 32.5C37 31.9477 36.5523 31.5 36 31.5C35.4477 31.5 35 31.9477 35 32.5C35 33.0523 35.4477 33.5 36 33.5Z" fill="#2D4DBC"/>
<path d="M43 33.5C43.5523 33.5 44 33.0523 44 32.5C44 31.9477 43.5523 31.5 43 31.5C42.4477 31.5 42 31.9477 42 32.5C42 33.0523 42.4477 33.5 43 33.5Z" fill="#2D4DBC"/>
<path d="M50 33.5C50.5523 33.5 51 33.0523 51 32.5C51 31.9477 50.5523 31.5 50 31.5C49.4477 31.5 49 31.9477 49 32.5C49 33.0523 49.4477 33.5 50 33.5Z" fill="#2D4DBC"/>
<path d="M8 40.5C8.55228 40.5 9 40.0523 9 39.5C9 38.9477 8.55228 38.5 8 38.5C7.44772 38.5 7 38.9477 7 39.5C7 40.0523 7.44772 40.5 8 40.5Z" fill="#2D4DBC"/>
<path d="M15 40.5C15.5523 40.5 16 40.0523 16 39.5C16 38.9477 15.5523 38.5 15 38.5C14.4477 38.5 14 38.9477 14 39.5C14 40.0523 14.4477 40.5 15 40.5Z" fill="#2D4DBC"/>
<path d="M22 40.5C22.5523 40.5 23 40.0523 23 39.5C23 38.9477 22.5523 38.5 22 38.5C21.4477 38.5 21 38.9477 21 39.5C21 40.0523 21.4477 40.5 22 40.5Z" fill="#2D4DBC"/>
<path d="M29 40.5C29.5523 40.5 30 40.0523 30 39.5C30 38.9477 29.5523 38.5 29 38.5C28.4477 38.5 28 38.9477 28 39.5C28 40.0523 28.4477 40.5 29 40.5Z" fill="#2D4DBC"/>
<path d="M36 40.5C36.5523 40.5 37 40.0523 37 39.5C37 38.9477 36.5523 38.5 36 38.5C35.4477 38.5 35 38.9477 35 39.5C35 40.0523 35.4477 40.5 36 40.5Z" fill="#2D4DBC"/>
<path d="M43 40.5C43.5523 40.5 44 40.0523 44 39.5C44 38.9477 43.5523 38.5 43 38.5C42.4477 38.5 42 38.9477 42 39.5C42 40.0523 42.4477 40.5 43 40.5Z" fill="#2D4DBC"/>
<path d="M50 40.5C50.5523 40.5 51 40.0523 51 39.5C51 38.9477 50.5523 38.5 50 38.5C49.4477 38.5 49 38.9477 49 39.5C49 40.0523 49.4477 40.5 50 40.5Z" fill="#2D4DBC"/>
<path d="M8 48.5C8.55228 48.5 9 48.0523 9 47.5C9 46.9477 8.55228 46.5 8 46.5C7.44772 46.5 7 46.9477 7 47.5C7 48.0523 7.44772 48.5 8 48.5Z" fill="#2D4DBC"/>
<path d="M15 48.5C15.5523 48.5 16 48.0523 16 47.5C16 46.9477 15.5523 46.5 15 46.5C14.4477 46.5 14 46.9477 14 47.5C14 48.0523 14.4477 48.5 15 48.5Z" fill="#2D4DBC"/>
<path d="M22 48.5C22.5523 48.5 23 48.0523 23 47.5C23 46.9477 22.5523 46.5 22 46.5C21.4477 46.5 21 46.9477 21 47.5C21 48.0523 21.4477 48.5 22 48.5Z" fill="#2D4DBC"/>
<path d="M29 48.5C29.5523 48.5 30 48.0523 30 47.5C30 46.9477 29.5523 46.5 29 46.5C28.4477 46.5 28 46.9477 28 47.5C28 48.0523 28.4477 48.5 29 48.5Z" fill="#2D4DBC"/>
<path d="M36 48.5C36.5523 48.5 37 48.0523 37 47.5C37 46.9477 36.5523 46.5 36 46.5C35.4477 46.5 35 46.9477 35 47.5C35 48.0523 35.4477 48.5 36 48.5Z" fill="#2D4DBC"/>
</svg>
