<svg width="55" height="50" viewBox="0 0 55 50" fill="none" xmlns="http://www.w3.org/2000/svg">
<g clip-path="url(#clip0)">
<path d="M44.6875 50H10.3125C7.15456 50 4.58331 47.6625 4.58331 44.7917V5.20833C4.58331 2.3375 7.15456 0 10.3125 0H44.6875C47.8454 0 50.4166 2.3375 50.4166 5.20833V44.7917C50.4166 47.6625 47.8454 50 44.6875 50ZM10.3125 2.08333C8.41727 2.08333 6.87498 3.48542 6.87498 5.20833V44.7917C6.87498 46.5146 8.41727 47.9167 10.3125 47.9167H44.6875C46.5827 47.9167 48.125 46.5146 48.125 44.7917V5.20833C48.125 3.48542 46.5827 2.08333 44.6875 2.08333H10.3125Z" fill="black"/>
<path d="M19.4791 33.3333C19.1079 33.3333 18.7458 33.1708 18.5235 32.8687L13.9402 26.6187C13.6835 26.2687 13.6835 25.8124 13.9402 25.4624L18.5235 19.2124C18.8718 18.7333 19.5823 18.6041 20.1116 18.9229C20.6387 19.2416 20.7808 19.8874 20.4302 20.3666L16.2731 26.0416L20.4325 31.7145C20.7831 32.1937 20.641 32.8395 20.1139 33.1583C19.9191 33.277 19.6991 33.3333 19.4791 33.3333Z" fill="black"/>
<path d="M35.5209 33.3335C35.3032 33.3335 35.0832 33.2772 34.8861 33.1585C34.359 32.8397 34.2169 32.1939 34.5675 31.7147L38.7269 26.0418L34.5675 20.3689C34.2169 19.8897 34.359 19.2439 34.8861 18.9251C35.4132 18.6064 36.1236 18.7334 36.4742 19.2147L41.0575 25.4647C41.3142 25.8147 41.3142 26.2709 41.0575 26.6209L36.4742 32.8709C36.2542 33.1709 35.8898 33.3335 35.5209 33.3335Z" fill="black"/>
<path d="M24.0625 35.4166C23.9273 35.4166 23.7921 35.3958 23.6592 35.35C23.0679 35.1479 22.7677 34.5479 22.99 34.0083L29.865 17.3416C30.0873 16.8021 30.7473 16.5333 31.3408 16.7333C31.9321 16.9354 32.2323 17.5354 32.01 18.075L25.135 34.7416C24.9631 35.1583 24.5254 35.4166 24.0625 35.4166Z" fill="black"/>
</g>
<defs>
<clipPath id="clip0">
<rect width="55" height="50" fill="white"/>
</clipPath>
</defs>
</svg>
