<svg width="27" height="25" viewBox="0 0 27 25" fill="none" xmlns="http://www.w3.org/2000/svg">
<path d="M21.775 2.46428V0.423359C21.7817 0.31271 21.7293 0.204786 21.6299 0.124943C21.5308 0.0448901 21.3934 -0.000165779 21.2497 4.37831e-05H5.79184C5.48441 -0.00330921 5.23211 0.186344 5.22776 0.423359V2.46784H5.21445C2.33455 2.46784 0 4.26924 0 6.49143C0 8.71363 2.33455 10.515 5.21445 10.515H5.22776V10.6416C5.22776 13.4833 7.66117 15.8974 10.9984 16.7269V19.5815H9.71056C8.97728 19.5815 8.35643 20.0402 8.35643 20.6063V21.7274H6.61529C6.26359 21.7287 5.92709 21.8377 5.67968 22.0307C5.43254 22.2235 5.29484 22.4844 5.29729 22.7557V24.5766C5.29484 24.689 5.35133 24.7971 5.45372 24.8767C5.55611 24.9566 5.69597 25.001 5.84127 24.9999H21.2003C21.5096 25.0037 21.7657 24.8153 21.775 24.5766V22.7557C21.7657 22.1859 21.1647 21.7278 20.4263 21.7274H18.6463V20.6063C18.6493 20.3355 18.5121 20.075 18.265 19.8827C18.0181 19.6903 17.6819 19.5819 17.331 19.5815H16.0738V16.7269C19.4874 15.8712 21.7923 13.411 21.775 10.6416V10.5274C24.6606 10.5274 27 8.72243 27 6.49583C27 4.26924 24.6606 2.46428 21.775 2.46428ZM20.6625 0.858409V4.29187H6.34018V0.858409H20.6625ZM5.21445 9.65666C2.94915 9.65666 1.11242 8.2396 1.11242 6.49143C1.11242 4.74327 2.94915 3.32621 5.21445 3.32621H5.22776V9.65666H5.21445ZM20.6625 22.7557V24.1416H6.4097V22.7557C6.40699 22.7122 6.42736 22.6694 6.46592 22.6373C6.50476 22.6053 6.55853 22.5868 6.61529 22.5858H20.4263C20.5506 22.5856 20.6541 22.66 20.6625 22.7557ZM17.5339 20.6063V21.7274H9.46885V20.6063C9.48053 20.5105 9.58617 20.438 9.71056 20.4399H17.3307C17.3867 20.4399 17.4404 20.4579 17.4787 20.4893C17.5173 20.5208 17.5371 20.5631 17.5339 20.6063ZM14.9614 19.5815H12.1108V16.9394C12.5812 17.0043 13.0584 17.0362 13.5361 17.0345C14.0138 17.0339 14.4907 17.002 14.9614 16.9394V19.5815ZM13.5014 16.1761C9.54408 16.1719 6.33936 13.6951 6.34018 10.6416V5.15024H20.6625V10.6416C20.6636 13.6951 17.4586 16.1719 13.5014 16.1761ZM21.775 9.66902V3.32265C24.0462 3.32265 25.8876 4.74327 25.8876 6.49583C25.8876 8.2484 24.0462 9.66923 21.775 9.66923V9.66902Z" fill="#383838"/>
</svg>
