<svg width="26" height="31" viewBox="0 0 26 31" fill="none" xmlns="http://www.w3.org/2000/svg">
<path d="M24.6224 8.47894C23.9476 7.88725 23.5718 7.10035 23.5718 6.25856C23.5718 3.98327 21.4568 2.12889 18.8617 2.12889C17.9085 2.12889 17.004 1.79949 16.3291 1.20779C14.4924 -0.402597 11.5076 -0.402597 9.67086 1.20779C8.99599 1.79949 8.09848 2.12889 7.13835 2.12889C4.54322 2.12889 2.42815 3.98327 2.42815 6.25856C2.42815 7.09425 2.05941 7.88725 1.37758 8.47894C0.487022 9.25974 0 10.2967 0 11.4008C0 12.5049 0.487022 13.5419 1.37758 14.3227C2.05245 14.9144 2.42815 15.7013 2.42815 16.5431C2.42815 18.4158 3.85443 19.9957 5.80252 20.502L3.06824 29.4567L7.19401 27.4437L9.6152 31L12.1408 22.7346C12.426 22.7773 12.7113 22.8017 12.9965 22.8017C13.2818 22.8017 13.567 22.7773 13.8523 22.7346L16.3848 30.9939L18.806 27.4376L22.9318 29.4506L20.1975 20.4959C22.1456 19.9896 23.5718 18.4097 23.5718 16.537C23.5718 15.7013 23.9476 14.9083 24.6224 14.3166C26.4592 12.7123 26.4592 10.0893 24.6224 8.47894ZM9.22558 28.4746L7.61145 26.1078L4.86326 27.4498L6.93658 20.6667C7.01311 20.6728 7.08269 20.6728 7.15226 20.6728C8.10543 20.6728 9.0099 21.0022 9.68477 21.5939C9.79609 21.6915 9.90741 21.7769 10.0257 21.8623C10.0605 21.8867 10.0953 21.9111 10.1301 21.9355C10.2135 21.9904 10.297 22.0453 10.3875 22.1002C10.4362 22.1307 10.4918 22.1551 10.5405 22.1856C10.6171 22.2222 10.6866 22.2649 10.7632 22.3015C10.8258 22.332 10.8954 22.3625 10.958 22.3869C10.9858 22.3991 11.0276 22.4174 11.0693 22.4296L9.22558 28.4746ZM21.1576 27.4498L18.4094 26.1078L16.7953 28.4746L14.9516 22.4296C14.9933 22.4113 15.0281 22.393 15.0698 22.3808C15.1394 22.3503 15.202 22.3259 15.2716 22.2893C15.3481 22.2527 15.4177 22.2161 15.4873 22.1795C15.5429 22.149 15.5917 22.1246 15.6473 22.0941C15.7308 22.0453 15.8073 21.9904 15.8908 21.9355C15.9326 21.9111 15.9743 21.8867 16.0091 21.8562C16.1274 21.7708 16.2387 21.6854 16.35 21.5878C17.0249 20.9961 17.9224 20.6667 18.8825 20.6667C18.9382 20.6728 19.0078 20.6667 19.0843 20.6667L21.1576 27.4498ZM23.8223 13.6212C22.9318 14.402 22.4447 15.439 22.4447 16.5431C22.4447 18.0559 21.2202 19.3186 19.5922 19.6175L19.4113 19.6419C19.3139 19.6541 19.2304 19.6663 19.14 19.6724C19.0495 19.6785 18.9521 19.6846 18.8617 19.6846C18.3885 19.6846 17.9294 19.7456 17.491 19.8615C16.7605 20.0567 16.0856 20.4044 15.536 20.8924C15.4386 20.9778 15.3412 21.051 15.2368 21.1242C15.202 21.1486 15.1672 21.1669 15.1325 21.1913C15.0629 21.2401 14.9864 21.2828 14.9098 21.3255C14.875 21.3438 14.8333 21.3682 14.7915 21.3865C14.7081 21.4292 14.6246 21.4658 14.5411 21.5024C14.5063 21.5146 14.4785 21.5268 14.4437 21.5451C14.3393 21.5878 14.228 21.6244 14.1236 21.6549C14.1028 21.661 14.0749 21.6732 14.0541 21.6793L14.0123 21.6915C13.3583 21.8562 12.6556 21.8562 12.0016 21.6915L11.9459 21.6793C11.9251 21.6732 11.9112 21.6671 11.8903 21.661C11.779 21.6305 11.6676 21.5878 11.5563 21.5512C11.5285 21.539 11.4937 21.5268 11.4659 21.5146C11.3754 21.478 11.2919 21.4353 11.2085 21.3926C11.1737 21.3743 11.1389 21.356 11.1041 21.3377C11.0206 21.295 10.9441 21.2462 10.8675 21.1974C10.8397 21.1791 10.8049 21.1608 10.7771 21.1364C10.6727 21.0632 10.5753 20.9839 10.4779 20.9046C9.92133 20.4166 9.25341 20.0689 8.52288 19.8737C8.08456 19.7578 7.62537 19.6968 7.15226 19.6968C7.05486 19.6968 6.96441 19.6907 6.87396 19.6846C6.79047 19.6785 6.70003 19.6663 6.60262 19.6541L6.42173 19.6297C4.79368 19.3308 3.56917 18.0681 3.56917 16.5553C3.56917 15.4512 3.08215 14.4142 2.1916 13.6334C1.51672 13.0417 1.14102 12.2548 1.14102 11.413C1.14102 10.5773 1.51672 9.78434 2.1916 9.19264C3.08215 8.41185 3.56917 7.37485 3.56917 6.27076C3.56917 4.53837 5.17634 3.13538 7.1453 3.13538C8.4046 3.13538 9.58737 2.70838 10.4779 1.92759C11.1737 1.31759 12.0921 1.01259 13.0104 1.01259C13.9288 1.01259 14.8472 1.31759 15.5429 1.92759C16.4335 2.70838 17.6163 3.13538 18.8756 3.13538C20.8515 3.13538 22.4517 4.54447 22.4517 6.27076C22.4517 7.37485 22.9387 8.41185 23.8293 9.19264C25.2208 10.4065 25.2208 12.3951 23.8223 13.6212Z" fill="#383838"/>
<path d="M13.0036 3.97107C8.32819 3.97107 4.52246 7.30775 4.52246 11.4069C4.52246 15.5061 8.32819 18.8367 13.0036 18.8367C17.679 18.8367 21.4847 15.5 21.4847 11.4008C21.4847 7.30165 17.679 3.97107 13.0036 3.97107ZM13.0036 17.8424C8.95436 17.8424 5.65653 14.951 5.65653 11.4008C5.65653 7.85064 8.95436 4.95926 13.0036 4.95926C17.0528 4.95926 20.3507 7.85064 20.3507 11.4008C20.3507 14.951 17.0528 17.8424 13.0036 17.8424Z" fill="#383838"/>
<path d="M13.0035 6.33179L11.7442 9.73556H7.66016L10.9649 11.8401L9.70565 15.2438L13.0104 13.1393L16.3152 15.2438L15.049 11.8401L18.3538 9.73556H14.2697L13.0035 6.33179ZM14.1584 12.6513L13.0035 11.9133L11.8485 12.6513L12.2869 11.4619L11.1319 10.7238H12.5582L12.9965 9.53427L13.4348 10.7238H14.8611L13.7062 11.4619L14.1584 12.6513Z" fill="#383838"/>
</svg>
