<svg width="17" height="17" viewBox="0 0 17 17" fill="none" xmlns="http://www.w3.org/2000/svg">
<path d="M15.0352 14.1132H13.2259V2.65415C13.2259 2.59703 13.2048 2.54192 13.1668 2.49933C13.1287 2.45675 13.0763 2.42969 13.0195 2.42332L6.91012 1.73376C6.8776 1.7301 6.84468 1.73334 6.81351 1.74327C6.78234 1.75321 6.75361 1.76961 6.72922 1.79142C6.70482 1.81322 6.6853 1.83992 6.67194 1.86979C6.65857 1.89965 6.65166 1.932 6.65166 1.96472V2.42173H4.00657C3.94493 2.42173 3.88581 2.44622 3.84222 2.48981C3.79864 2.53339 3.77415 2.59251 3.77415 2.65415V14.1132H1.96484C1.9032 14.1132 1.84408 14.1377 1.8005 14.1813C1.75691 14.2249 1.73242 14.284 1.73242 14.3456C1.73242 14.4073 1.75691 14.4664 1.8005 14.51C1.84408 14.5536 1.9032 14.5781 1.96484 14.5781H6.65166V15.0351C6.65166 15.0967 6.67615 15.1558 6.71974 15.1994C6.76333 15.243 6.82244 15.2675 6.88409 15.2675C6.89296 15.2676 6.90183 15.2671 6.91065 15.266L13.0067 14.5781H15.0356C15.0972 14.5781 15.1563 14.5536 15.1999 14.51C15.2435 14.4664 15.268 14.4073 15.268 14.3456C15.268 14.284 15.2435 14.2249 15.1999 14.1813C15.1563 14.1377 15.0972 14.1132 15.0356 14.1132H15.0352ZM4.23899 2.88657H6.65166V3.48423H5.06894C5.0073 3.48423 4.94818 3.50872 4.90459 3.55231C4.861 3.59589 4.83652 3.65501 4.83652 3.71665V14.1132H4.23886L4.23899 2.88657ZM5.30149 14.1132V3.94907H6.65166V14.1132H5.30149ZM7.11651 2.22477L12.761 2.86227V14.1381L7.11651 14.7756V2.22477Z" fill="#383838"/>
<path d="M8.11796 7.80835C7.98116 7.80835 7.84743 7.84892 7.73368 7.92492C7.61993 8.00092 7.53127 8.10895 7.47892 8.23534C7.42657 8.36173 7.41287 8.5008 7.43956 8.63498C7.46625 8.76915 7.53213 8.8924 7.62886 8.98913C7.7256 9.08587 7.84884 9.15175 7.98302 9.17844C8.11719 9.20512 8.25627 9.19143 8.38266 9.13907C8.50905 9.08672 8.61708 8.99807 8.69308 8.88432C8.76909 8.77057 8.80965 8.63684 8.80965 8.50004C8.80944 8.31666 8.7365 8.14084 8.60683 8.01117C8.47716 7.8815 8.30134 7.80856 8.11796 7.80835ZM8.11796 8.72688C8.0731 8.72688 8.02924 8.71358 7.99193 8.68865C7.95463 8.66373 7.92555 8.6283 7.90838 8.58685C7.89121 8.5454 7.88672 8.49979 7.89547 8.45578C7.90423 8.41178 7.92583 8.37136 7.95756 8.33963C7.98928 8.30791 8.0297 8.28631 8.07371 8.27755C8.11771 8.2688 8.16332 8.27329 8.20477 8.29046C8.24622 8.30763 8.28165 8.33671 8.30658 8.37401C8.3315 8.41131 8.34481 8.45517 8.34481 8.50004C8.34474 8.56018 8.32081 8.61784 8.27829 8.66036C8.23576 8.70289 8.1781 8.72681 8.11796 8.72688Z" fill="#383838"/>
</svg>
