<svg width="30" height="30" viewBox="0 0 30 30" fill="none" xmlns="http://www.w3.org/2000/svg">
<g clip-path="url(#clip0)">
<path d="M27.1875 3.75024H2.81253C1.26161 3.75024 7.62939e-06 5.01184 7.62939e-06 6.56276V23.4378C7.62939e-06 24.9887 1.26161 26.2503 2.81253 26.2503H27.1875C28.7384 26.2503 30 24.9887 30 23.4378V6.56276C30 5.01184 28.7384 3.75024 27.1875 3.75024ZM27.1875 5.62524C27.3149 5.62524 27.436 5.65166 27.5468 5.69782L15 16.5722L2.45313 5.69782C2.56391 5.65173 2.68509 5.62524 2.81246 5.62524H27.1875ZM27.1875 24.3752H2.81253C2.29526 24.3752 1.875 23.955 1.875 23.4377V7.67877L14.3857 18.5214C14.5624 18.6742 14.7812 18.7502 15 18.7502C15.2188 18.7502 15.4376 18.6743 15.6143 18.5214L28.125 7.67877V23.4378C28.125 23.955 27.7048 24.3752 27.1875 24.3752Z" fill="url(#paint0_linear)"/>
</g>
<defs>
<linearGradient id="paint0_linear" x1="5.56452" y1="6.35355" x2="27.7713" y2="16.9365" gradientUnits="userSpaceOnUse">
<stop stop-color="#B71DFF"/>
<stop offset="1" stop-color="#FF1A35"/>
</linearGradient>
<clipPath id="clip0">
<rect width="30" height="30" fill="white"/>
</clipPath>
</defs>
</svg>
