<svg width="72" height="68" viewBox="0 0 72 68" fill="none" xmlns="http://www.w3.org/2000/svg">
<path d="M19.961 56.6621C13.9335 52.0333 10.1459 45.2769 9.56883 38.1254L7.06192 7.05545C7.0503 6.91108 7.13466 6.8213 7.18592 6.78052C7.23718 6.73988 7.34608 6.6764 7.50086 6.70708L11.774 7.56239C13.6827 7.94449 15.6441 8.13826 17.6033 8.13826C23.5013 8.13826 29.1087 6.43747 33.8195 3.21996L35.3379 2.18283C35.7211 1.92119 36.2563 1.92119 36.6393 2.18283L38.1577 3.21983C39.4975 4.13504 40.929 4.93815 42.4126 5.60713C42.9515 5.85004 43.6032 5.64737 43.8688 5.15451C44.1344 4.66177 43.9129 4.06545 43.3741 3.82253C42.0096 3.20748 40.6923 2.46838 39.459 1.62582L37.9406 0.58869C36.7912 -0.19623 35.1858 -0.19623 34.0363 0.58869L32.5178 1.62582C28.1858 4.58487 23.0284 6.14887 17.603 6.14887C15.7999 6.14887 13.995 5.97064 12.2387 5.61908L7.96537 4.76364C7.17503 4.60559 6.37134 4.79286 5.76018 5.27776C5.14902 5.76265 4.83277 6.4639 4.89231 7.20194L7.39922 38.272C8.01909 45.9557 12.0878 53.2142 18.5618 58.1861C18.7657 58.3426 19.0138 58.4191 19.2605 58.4191C19.5708 58.4191 19.8788 58.2983 20.094 58.0639C20.4808 57.6429 20.421 57.0155 19.961 56.6621Z" fill="white"/>
<path d="M56.4699 15.2311C55.9344 14.6712 55.1022 14.7597 54.374 14.7698C48.2629 14.7698 42.2754 13.2929 37.0587 10.499C36.3987 10.1456 35.5788 10.1454 34.919 10.499C29.7023 13.2929 23.7147 14.7698 17.6035 14.7698C16.885 14.7562 16.0614 14.6824 15.5404 15.2339C15.2169 15.5451 15.0513 15.9692 15.0858 16.3974L16.3926 32.6407L15.9576 33.8654H13.026C12.3143 33.8654 11.6887 34.2813 11.4688 34.9002C11.249 35.5193 11.488 36.1921 12.0636 36.5744L14.4353 38.1507L13.5294 40.7009C13.3094 41.3198 13.5484 41.9928 14.1241 42.3753C14.6997 42.7579 15.4734 42.7581 16.0489 42.3753L17.5069 41.4064C18.9492 46.2482 22.3615 50.4949 26.9998 53.1705L34.7993 57.6699C35.1632 57.8799 35.5807 57.985 35.9983 57.985C36.4137 57.985 36.8293 57.881 37.1921 57.673L45.0265 53.1809C49.6773 50.5143 53.0958 46.2824 54.5525 41.4459L55.9511 42.3753C56.5267 42.7579 57.3003 42.7579 57.876 42.3753C58.4518 41.9928 58.6908 41.3198 58.4708 40.7011L57.5649 38.1507L59.9365 36.5746C60.5122 36.1921 60.7512 35.5193 60.5313 34.9002C60.3115 34.2812 59.6857 33.8654 58.9742 33.8654H56.0426L55.6543 32.7723L56.927 16.3926C56.9602 15.9648 56.7935 15.5414 56.4699 15.2311ZM42.8852 26.2738L39.7358 28.3667C39.0744 28.8061 38.7997 29.5791 39.0522 30.2906L40.2552 33.6772L37.1056 31.584C36.775 31.3644 36.3874 31.2545 35.9999 31.2545C35.6123 31.2545 35.2248 31.3644 34.8942 31.5842L31.7446 33.677L32.9476 30.2904C33.2001 29.5791 32.9254 28.8061 32.264 28.3668L29.1145 26.2738H33.0075C33.8252 26.2738 34.5441 25.7958 34.7967 25.0846L36 21.6983L37.203 25.0847C37.4557 25.7959 38.1747 26.2739 38.9922 26.2739H42.8852V26.2738ZM16.0299 36.7514L14.681 35.8549H16.3483C17.0598 35.8549 17.6857 35.4389 17.9055 34.8201L18.4207 33.3698L18.9358 34.8201C19.1557 35.439 19.7815 35.8549 20.493 35.8549H22.1604L20.8116 36.7512C20.2357 37.1337 19.9965 37.8067 20.2167 38.4256L20.7319 39.876L19.3831 38.9797C18.8073 38.597 18.0336 38.597 17.4583 38.9797L16.1095 39.876L16.6247 38.4256C16.8446 37.8066 16.6054 37.1335 16.0299 36.7514ZM43.8711 51.4954L37.0937 55.3813V38.8258C37.0937 38.2763 36.6068 37.831 36.0061 37.831C35.4054 37.831 34.9185 38.2763 34.9185 38.8258V55.3868L28.16 51.4878C24.2698 49.2437 21.3371 45.7722 19.9012 41.7832L20.7923 42.3754C21.3678 42.7579 22.1413 42.7579 22.7171 42.3756C23.2926 41.9929 23.5318 41.3201 23.312 40.7012L22.406 38.1508L24.7776 36.5747C25.3532 36.1922 25.5924 35.5194 25.3725 34.9004C25.1527 34.2813 24.5269 33.8655 23.8154 33.8655H20.8837L19.9777 31.3152C19.7578 30.6962 19.132 30.2804 18.4205 30.2804C18.4092 30.2804 18.3982 30.2814 18.3868 30.2815L17.2958 16.7582C17.3987 16.759 17.5015 16.7594 17.6033 16.7594C23.6754 16.7594 29.6345 15.3868 34.9185 12.781V19.4204C34.5931 19.6295 34.3404 19.9322 34.2107 20.297L32.7942 24.2844H28.2106C27.393 24.2844 26.6741 24.7623 26.4213 25.4735C26.1687 26.1846 26.4434 26.9577 27.1048 27.3973L30.8131 29.8616L29.3967 33.849C29.144 34.5602 29.4187 35.3333 30.0801 35.7729C30.7414 36.2124 31.6303 36.2123 32.2915 35.7728L36 33.3085L39.7083 35.7728C40.3697 36.2124 41.2585 36.2123 41.9199 35.7729C42.5813 35.3333 42.856 34.5602 42.6034 33.849L41.1869 29.8616L44.8952 27.3973C45.5566 26.9577 45.8312 26.1846 45.5787 25.4735C45.3261 24.7623 44.607 24.2844 43.7894 24.2844H39.2058L37.7893 20.297C37.6614 19.9367 37.4134 19.6367 37.0938 19.428V12.7978C42.3692 15.3925 48.3153 16.7593 54.3742 16.7593C54.4882 16.7593 54.6029 16.7587 54.718 16.7577L53.6671 30.2834C53.6379 30.2819 53.6088 30.2802 53.5794 30.2802C52.8679 30.2802 52.242 30.6962 52.0222 31.3151L51.1161 33.8654H48.1845C47.4729 33.8654 46.8472 34.2813 46.6274 34.9002C46.4075 35.5193 46.6467 36.1921 47.2223 36.5744L49.594 38.1507L48.6881 40.7011C48.4681 41.32 48.7072 41.9928 49.283 42.3754C49.8585 42.7579 50.632 42.7579 51.2076 42.3753L52.1924 41.7209C50.7578 45.7445 47.8029 49.2409 43.8711 51.4954ZM57.319 35.855L55.9705 36.7512C55.3947 37.1336 55.1554 37.8066 55.3754 38.4257L55.8905 39.8762L54.542 38.9799C54.2541 38.7886 53.9168 38.6928 53.5794 38.6928C53.242 38.6928 52.9047 38.7886 52.617 38.9798L51.2682 39.8762L51.7832 38.426C52.0033 37.8068 51.7643 37.1339 51.1884 36.7515L49.8395 35.855H51.5069C52.2184 35.855 52.8442 35.439 53.064 34.8203L53.5792 33.37L54.0944 34.8203C54.3142 35.4392 54.94 35.855 55.6515 35.855H57.319Z" fill="white"/>
<path d="M66.2192 5.27143C65.6079 4.788 64.8046 4.60179 64.0158 4.76037L59.7525 5.61621C57.9923 5.96949 56.1828 6.14866 54.3742 6.14866C52.2457 6.14866 50.1383 5.90641 48.111 5.42882C47.5292 5.29109 46.9363 5.61183 46.7865 6.14388C46.6367 6.67592 46.9867 7.21833 47.5683 7.35539C49.7729 7.87495 52.0626 8.13818 54.374 8.13818C56.3394 8.13818 58.3057 7.94348 60.2187 7.55939L64.4821 6.70355C64.6362 6.6726 64.7454 6.73595 64.7968 6.77659C64.8482 6.8171 64.9326 6.90675 64.9214 7.05112L62.5141 38.0342C61.8549 46.5192 56.7571 54.282 48.8774 58.8002L36.5622 65.8613C36.2104 66.0631 35.7558 66.0626 35.4045 65.8598L24.0828 59.3285C23.5748 59.0356 22.9032 59.1747 22.5827 59.6393C22.2623 60.104 22.4145 60.7182 22.9225 61.0114L34.2442 67.5427C34.7726 67.8475 35.3785 67.9999 35.9848 67.9999C36.5878 67.9999 37.1911 67.8489 37.7176 67.547L50.0328 60.486C58.4987 55.6319 63.9757 47.2913 64.6838 38.1752L67.0911 7.19216C67.1483 6.45479 66.8305 5.7546 66.2192 5.27143Z" fill="white"/>
<path d="M6.86126 46.4835H4.85108C4.70703 46.4835 4.57926 46.3986 4.53468 46.2732L3.9135 44.5246C3.8139 44.2444 3.38047 44.2444 3.28086 44.5246L2.65968 46.2732C2.61511 46.3986 2.48747 46.4835 2.34329 46.4835H0.333254C0.0110499 46.4835 -0.122972 46.8605 0.137811 47.0338L1.76408 48.1145C1.88067 48.192 1.92946 48.3293 1.88488 48.4547L1.26371 50.2033C1.1641 50.4835 1.51491 50.7166 1.77555 50.5434L3.40181 49.4627C3.51841 49.3853 3.67624 49.3853 3.79284 49.4627L5.41911 50.5434C5.67974 50.7166 6.03055 50.4835 5.93094 50.2033L5.30977 48.4547C5.26519 48.3293 5.31398 48.192 5.43058 48.1145L7.05684 47.0338C7.31748 46.8605 7.18346 46.4835 6.86126 46.4835Z" fill="white"/>
<path d="M71.6667 46.4835H69.6565C69.5125 46.4835 69.3847 46.3986 69.3401 46.2732L68.719 44.5246C68.6193 44.2444 68.1859 44.2444 68.0863 44.5246L67.4651 46.2732C67.4206 46.3986 67.2929 46.4835 67.1487 46.4835H65.1386C64.8163 46.4835 64.6823 46.8605 64.9431 47.0338L66.5694 48.1145C66.686 48.192 66.7348 48.3293 66.6902 48.4547L66.069 50.2033C65.9694 50.4835 66.3202 50.7166 66.5809 50.5434L68.2071 49.4627C68.3237 49.3853 68.4816 49.3853 68.5981 49.4627L70.2244 50.5434C70.485 50.7166 70.8359 50.4835 70.7362 50.2033L70.1151 48.4547C70.0705 48.3293 70.1193 48.192 70.2359 48.1145L71.8621 47.0338C72.1229 46.8605 71.9889 46.4835 71.6667 46.4835Z" fill="white"/>
</svg>
