<svg width="66" height="68" viewBox="0 0 66 68" fill="none" xmlns="http://www.w3.org/2000/svg">
<g clip-path="url(#clip0)">
<path d="M65.7889 28.6309L55.2199 12.0261C54.9816 11.6518 54.5765 11.4263 54.1421 11.4263H11.9082C11.4747 11.4263 11.0703 11.6507 10.8318 12.0238L0.245799 28.5791C0.195397 28.6507 0.151698 28.728 0.115217 28.8106C-0.0937396 29.2853 -0.0138177 29.8419 0.319534 30.234L5.68526 36.5462C6.15435 37.098 6.96852 37.1535 7.50399 36.6703C8.03947 36.187 8.09335 35.3481 7.62439 34.7965L4.13142 30.6871H21.4694L30.1818 61.3332L20.3366 49.7513C19.8676 49.1995 19.0532 49.144 18.5179 49.6271C17.9824 50.1104 17.9285 50.9494 18.3975 51.501L32.0345 67.5435C32.2791 67.8315 32.6327 67.9967 33.0041 67.9967C33.3756 67.9967 33.7289 67.8315 33.9736 67.5434L48.4923 50.4595C48.9614 49.9076 48.9074 49.0687 48.3717 48.5856C47.8359 48.1023 47.0216 48.158 46.5529 48.7099L35.8266 61.3315L44.5386 30.687H61.8694L53.8536 40.1193C53.3846 40.6712 53.4386 41.5102 53.9743 41.9932C54.2188 42.2139 54.5215 42.3222 54.8229 42.3222C55.1815 42.3222 55.5383 42.1688 55.793 41.8689L65.6809 30.2338C66.0622 29.7852 66.1064 29.1296 65.7889 28.6309ZM3.68334 28.0312L11.9056 15.1721L20.0905 28.0312H3.68334ZM14.2948 14.0824H30.6173L22.4561 26.9042L14.2948 14.0824ZM33.004 15.176L41.1863 28.0312H24.8216L33.004 15.176ZM33.004 61.8117L24.1556 30.6871H41.8523L33.004 61.8117ZM43.573 26.9376L35.3907 14.0824H51.7556L43.573 26.9376ZM45.9597 28.0312L54.1421 15.176L62.3243 28.0312H45.9597Z" fill="white"/>
<path d="M20.2626 43.4318C16.9378 43.4318 14.2327 40.6447 14.2327 37.2191C14.2327 36.4857 13.6555 35.8911 12.9437 35.8911C12.2319 35.8911 11.6548 36.4857 11.6548 37.2191C11.6548 40.6447 8.94969 43.4318 5.62481 43.4318C4.91312 43.4318 4.33588 44.0264 4.33588 44.7598C4.33588 45.4932 4.91312 46.0878 5.62481 46.0878C8.94969 46.0878 11.6548 48.8749 11.6548 52.3005C11.6548 53.0339 12.232 53.6285 12.9437 53.6285C13.6554 53.6285 14.2327 53.0339 14.2327 52.3005C14.2327 48.8749 16.9378 46.0878 20.2626 46.0878C20.9745 46.0878 21.5516 45.4932 21.5516 44.7598C21.5516 44.0264 20.9745 43.4318 20.2626 43.4318ZM12.9437 47.6367C12.2411 46.4703 11.2835 45.4839 10.1516 44.7598C11.2835 44.0358 12.2409 43.0494 12.9437 41.883C13.6464 43.0493 14.6039 44.0357 15.7358 44.7598C14.6039 45.4839 13.6465 46.4702 12.9437 47.6367Z" fill="white"/>
<path d="M64.7111 5.31587C62.5789 5.31587 60.8443 3.52862 60.8443 1.3319C60.8443 0.598508 60.267 0.00390625 59.5553 0.00390625C58.8436 0.00390625 58.2664 0.598508 58.2664 1.3319C58.2664 3.52862 56.5317 5.31587 54.3996 5.31587C53.6879 5.31587 53.1107 5.91048 53.1107 6.64387C53.1107 7.37726 53.6879 7.97186 54.3996 7.97186C56.5317 7.97186 58.2664 9.75912 58.2664 11.9558C58.2664 12.6892 58.8436 13.2838 59.5553 13.2838C60.267 13.2838 60.8443 12.6892 60.8443 11.9558C60.8443 9.75912 62.5789 7.97186 64.7111 7.97186C65.4227 7.97186 66 7.37726 66 6.64387C66 5.91048 65.4227 5.31587 64.7111 5.31587ZM59.5553 7.97598C59.1876 7.47155 58.752 7.02278 58.2624 6.64387C58.752 6.26495 59.1876 5.81618 59.5553 5.31176C59.9231 5.81618 60.3587 6.26495 60.8483 6.64387C60.3587 7.02265 59.923 7.47155 59.5553 7.97598Z" fill="white"/>
<path d="M51.9212 44.5415C51.6816 44.2931 51.349 44.1523 51.0101 44.1523C50.671 44.1523 50.3399 44.2931 50.0989 44.5415C49.8591 44.7885 49.7212 45.1312 49.7212 45.4803C49.7212 45.8295 49.859 46.1722 50.0989 46.4192C50.3387 46.6662 50.671 46.8083 51.0101 46.8083C51.3491 46.8083 51.6816 46.6662 51.9212 46.4192C52.161 46.1722 52.2991 45.8295 52.2991 45.4803C52.2991 45.1312 52.1611 44.7885 51.9212 44.5415Z" fill="white"/>
</g>
<defs>
<clipPath id="clip0">
<rect width="66" height="68" fill="white"/>
</clipPath>
</defs>
</svg>
