<svg width="72" height="68" viewBox="0 0 72 68" fill="none" xmlns="http://www.w3.org/2000/svg">
<g clip-path="url(#clip0)">
<path d="M8.2914 24.9083C8.49684 25.1023 8.76656 25.1999 9.03627 25.1999C9.30599 25.1999 9.5757 25.1029 9.7817 24.9083C10.1931 24.5197 10.1931 23.8894 9.7817 23.5008L7.22297 21.0842L9.7817 18.6682C10.1931 18.2791 10.1931 17.6493 9.7817 17.2607C9.37026 16.8721 8.70284 16.8721 8.2914 17.2607L4.98779 20.3807C4.79004 20.5675 4.67908 20.8207 4.67908 21.0842C4.67908 21.3483 4.79004 21.6015 4.98779 21.7882L8.2914 24.9083Z" fill="white"/>
<path d="M18.7482 21.0843L16.1895 23.5008C15.7781 23.8894 15.7781 24.5198 16.19 24.9084C16.3955 25.1024 16.6652 25.1999 16.9349 25.1999C17.2046 25.1999 17.4743 25.1024 17.6798 24.9084L20.9839 21.7878C21.3954 21.3992 21.3954 20.7688 20.9839 20.3808L17.6798 17.2602C17.2684 16.8716 16.6015 16.8716 16.19 17.2602C15.7781 17.6493 15.7781 18.2791 16.19 18.6677L18.7482 21.0843Z" fill="white"/>
<path d="M11.4148 25.1311C11.5412 25.1778 11.6719 25.2001 11.7999 25.2001C12.2207 25.2001 12.6178 24.9605 12.781 24.5688L15.3765 18.3281C15.5897 17.8166 15.3227 17.2391 14.7811 17.0378C14.24 16.8371 13.628 17.0887 13.4155 17.6002L10.8194 23.8409C10.6068 24.3524 10.8732 24.9304 11.4148 25.1311Z" fill="white"/>
<path d="M6.32923 31.0385H13.4281C14.0098 31.0385 14.4817 30.5928 14.4817 30.0429C14.4817 29.4935 14.0098 29.0479 13.4281 29.0479H6.32923C5.74695 29.0479 5.27563 29.4935 5.27563 30.0429C5.27563 30.5928 5.74695 31.0385 6.32923 31.0385Z" fill="white"/>
<path d="M29.778 29.0479H17.2975C16.7158 29.0479 16.2439 29.4935 16.2439 30.0429C16.2439 30.5928 16.7158 31.0385 17.2975 31.0385H29.778C30.3603 31.0385 30.8321 30.5928 30.8321 30.0429C30.8321 29.4935 30.3603 29.0479 29.778 29.0479Z" fill="white"/>
<path d="M6.32923 35.2362H9.35322C9.93495 35.2362 10.4068 34.7906 10.4068 34.2407C10.4068 33.6913 9.93495 33.2456 9.35322 33.2456H6.32923C5.74695 33.2456 5.27563 33.6913 5.27563 34.2407C5.27563 34.7906 5.74695 35.2362 6.32923 35.2362Z" fill="white"/>
<path d="M25.9229 33.2456C25.3406 33.2456 24.8693 33.6913 24.8693 34.2407C24.8693 34.7906 25.3406 35.2362 25.9229 35.2362H27.7642C28.3464 35.2362 28.8183 34.7906 28.8183 34.2407C28.8183 33.6913 28.3464 33.2456 27.7642 33.2456H25.9229Z" fill="white"/>
<path d="M23.1493 34.2407C23.1493 33.6913 22.6775 33.2456 22.0957 33.2456H13.0507C12.4684 33.2456 11.9971 33.6913 11.9971 34.2407C11.9971 34.7906 12.4684 35.2362 13.0507 35.2362H22.0957C22.6775 35.2362 23.1493 34.7906 23.1493 34.2407Z" fill="white"/>
<path d="M30.0521 34.2407C30.0521 34.7906 30.524 35.2362 31.1057 35.2362H34.5549C35.1372 35.2362 35.609 34.7906 35.609 34.2407C35.609 33.6913 35.1372 33.2456 34.5549 33.2456H31.1057C30.524 33.2456 30.0521 33.6913 30.0521 34.2407Z" fill="white"/>
<path d="M24.3134 21.8827H27.9516C28.5338 21.8827 29.0057 21.4371 29.0057 20.8871C29.0057 20.3377 28.5338 19.8921 27.9516 19.8921H24.3134C23.7311 19.8921 23.2593 20.3377 23.2593 20.8871C23.2593 21.4371 23.7311 21.8827 24.3134 21.8827Z" fill="white"/>
<path d="M32.0264 21.8827H54.2249C54.8072 21.8827 55.2785 21.4371 55.2785 20.8871C55.2785 20.3377 54.8072 19.8921 54.2249 19.8921H32.0264C31.4442 19.8921 30.9723 20.3377 30.9723 20.8871C30.9723 21.4371 31.4442 21.8827 32.0264 21.8827Z" fill="white"/>
<path d="M50.8532 24.271H41.8608C41.2791 24.271 40.8073 24.7166 40.8073 25.2666C40.8073 25.816 41.2791 26.2616 41.8608 26.2616H50.8532C51.4349 26.2616 51.9068 25.816 51.9068 25.2666C51.9068 24.7166 51.4349 24.271 50.8532 24.271Z" fill="white"/>
<path d="M38.4891 24.271H35.3981C34.8158 24.271 34.3445 24.7166 34.3445 25.2666C34.3445 25.816 34.8158 26.2616 35.3981 26.2616H38.4891C39.0714 26.2616 39.5427 25.816 39.5427 25.2666C39.5427 24.7166 39.0714 24.271 38.4891 24.271Z" fill="white"/>
<path d="M24.3134 26.2616H31.8858C32.4675 26.2616 32.9394 25.816 32.9394 25.2666C32.9394 24.7166 32.4675 24.271 31.8858 24.271H24.3134C23.7311 24.271 23.2593 24.7166 23.2593 25.2666C23.2593 25.816 23.7311 26.2616 24.3134 26.2616Z" fill="white"/>
<path d="M22.109 37.4077H15.0107C14.4284 37.4077 13.9565 37.8534 13.9565 38.4028C13.9565 38.9522 14.4284 39.3978 15.0107 39.3978H22.109C22.6907 39.3978 23.1626 38.9522 23.1626 38.4028C23.1626 37.8534 22.6907 37.4077 22.109 37.4077Z" fill="white"/>
<path d="M11.7829 37.4077H6.32923C5.74695 37.4077 5.27563 37.8534 5.27563 38.4028C5.27563 38.9522 5.74695 39.3978 6.32923 39.3978H11.7829C12.3651 39.3978 12.8365 38.9522 12.8365 38.4028C12.8365 37.8534 12.3651 37.4077 11.7829 37.4077Z" fill="white"/>
<path d="M34.9768 37.4077H25.7037C25.1215 37.4077 24.6501 37.8534 24.6501 38.4028C24.6501 38.9522 25.1215 39.3978 25.7037 39.3978H34.9768C35.5585 39.3978 36.0304 38.9522 36.0304 38.4028C36.0304 37.8534 35.5585 37.4077 34.9768 37.4077Z" fill="white"/>
<path d="M47.5172 32.2959H42.4464C41.8647 32.2959 41.3928 32.7416 41.3928 33.291C41.3928 33.8409 41.8647 34.2866 42.4464 34.2866H47.5172C48.0994 34.2866 48.5708 33.8409 48.5708 33.291C48.5708 32.7416 48.0994 32.2959 47.5172 32.2959Z" fill="white"/>
<path d="M56.3162 34.2866H63.4743C64.0566 34.2866 64.5285 33.8409 64.5285 33.291C64.5285 32.7416 64.0566 32.2959 63.4743 32.2959H56.3162C55.7339 32.2959 55.2626 32.7416 55.2626 33.291C55.2626 33.8409 55.7344 34.2866 56.3162 34.2866Z" fill="white"/>
<path d="M52.7368 32.2959H51.0965C50.5142 32.2959 50.0424 32.7416 50.0424 33.291C50.0424 33.8409 50.5142 34.2866 51.0965 34.2866H52.7368C53.3191 34.2866 53.7904 33.8409 53.7904 33.291C53.7904 32.7416 53.3191 32.2959 52.7368 32.2959Z" fill="white"/>
<path d="M42.4464 45.1317H47.5172C48.0994 45.1317 48.5708 44.6866 48.5708 44.1367C48.5708 43.5873 48.0994 43.1416 47.5172 43.1416H42.4464C41.8647 43.1416 41.3928 43.5873 41.3928 44.1367C41.3928 44.6866 41.8647 45.1317 42.4464 45.1317Z" fill="white"/>
<path d="M56.3162 45.1317H63.4743C64.0566 45.1317 64.5285 44.6866 64.5285 44.1367C64.5285 43.5873 64.0566 43.1416 63.4743 43.1416H56.3162C55.7339 43.1416 55.2626 43.5873 55.2626 44.1367C55.2626 44.6866 55.7344 45.1317 56.3162 45.1317Z" fill="white"/>
<path d="M51.0966 45.1317H52.7368C53.3191 45.1317 53.791 44.6866 53.791 44.1367C53.791 43.5873 53.3191 43.1416 52.7368 43.1416H51.0966C50.5143 43.1416 50.043 43.5873 50.043 44.1367C50.043 44.6866 50.5143 45.1317 51.0966 45.1317Z" fill="white"/>
<path d="M47.5172 53.9868H42.4464C41.8647 53.9868 41.3928 54.4325 41.3928 54.9819C41.3928 55.5313 41.8647 55.9769 42.4464 55.9769H47.5172C48.0994 55.9769 48.5708 55.5313 48.5708 54.9819C48.5708 54.4325 48.0994 53.9868 47.5172 53.9868Z" fill="white"/>
<path d="M63.4743 53.9868H56.3162C55.7339 53.9868 55.2626 54.4325 55.2626 54.9819C55.2626 55.5313 55.7339 55.9769 56.3162 55.9769H63.4743C64.0566 55.9769 64.5285 55.5313 64.5285 54.9819C64.5285 54.4325 64.0566 53.9868 63.4743 53.9868Z" fill="white"/>
<path d="M52.7368 53.9868H51.0965C50.5142 53.9868 50.0424 54.4325 50.0424 54.9819C50.0424 55.5313 50.5142 55.9769 51.0965 55.9769H52.7368C53.3191 55.9769 53.7904 55.5313 53.7904 54.9819C53.7904 54.4325 53.3191 53.9868 52.7368 53.9868Z" fill="white"/>
<path d="M67.3629 0.132812H4.6379C2.08082 0.132812 0 2.09751 0 4.51305V52.6666C0 55.0816 2.08082 57.0463 4.6379 57.0463H8.60343C9.18516 57.0463 9.65702 56.6012 9.65702 56.0513C9.65702 55.5019 9.18516 55.0562 8.60343 55.0562H4.6379C3.24263 55.0562 2.10774 53.9844 2.10774 52.6666V48.8913H40.498V50.6065H39.6624C38.5193 50.6065 37.5899 51.4843 37.5899 52.5639V55.0562H15.0101C14.4284 55.0562 13.9565 55.5019 13.9565 56.0513C13.9565 56.6012 14.4284 57.0463 15.0101 57.0463H25.1418V60.6157H21.9601C19.8375 60.6157 18.111 62.2468 18.111 64.2509V66.4008C18.111 67.3155 18.8988 68.0594 19.8672 68.0594H52.0529C53.0213 68.0594 53.809 67.3155 53.809 66.4008V64.2509C53.809 62.2468 52.0825 60.6157 49.96 60.6157H46.7783V59.3576H66.2588C67.4014 59.3576 68.3308 58.4798 68.3308 57.4002V56.9317C70.3847 56.4814 71.9201 54.7408 71.9201 52.6666L71.9997 4.51253C72.0003 2.09751 69.92 0.132812 67.3629 0.132812ZM39.6976 46.5219V41.7516H66.2236V46.5219H39.6976ZM42.6051 39.7609V37.667H63.3156V39.7609H42.6051ZM63.3156 48.5121V50.6065H42.6051V48.5121H63.3156ZM27.2489 57.0463H37.5899V57.4007C37.5899 58.4798 38.5193 59.3576 39.6624 59.3576H44.6711V60.6157H27.2489V57.0463ZM49.9605 62.6063C50.9207 62.6063 51.7019 63.3441 51.7019 64.2509V66.0693H20.2182V64.2509C20.2182 63.3441 20.9999 62.6063 21.9601 62.6063H49.9605ZM66.2236 57.367H39.6976V52.5971H66.2236V57.367ZM69.8129 52.6666C69.8129 53.6305 69.2043 54.4611 68.3314 54.8383V52.5634C68.3314 51.4843 67.4014 50.6065 66.2588 50.6065H65.4233V48.8913H69.8129V52.6666ZM69.8129 46.9012H68.2968C68.3182 46.7886 68.3314 41.7184 68.3314 41.7184C68.3314 40.6387 67.4014 39.7609 66.2588 39.7609H65.4233V37.667H66.2588C67.4014 37.667 68.3314 36.7887 68.3314 35.7096V30.8728C68.3314 29.7937 67.4014 28.9154 66.2588 28.9154H60.3069C59.7247 28.9154 59.2533 29.361 59.2533 29.911C59.2533 30.4604 59.7247 30.906 60.3069 30.906H66.2236V35.6764H39.6976V30.906H53.7503C54.3326 30.906 54.8039 30.4604 54.8039 29.911C54.8039 29.361 54.3326 28.9154 53.7503 28.9154H39.6624C38.5193 28.9154 37.5899 29.7937 37.5899 30.8728V35.7096C37.5899 36.7887 38.5193 37.667 39.6624 37.667H40.498V39.7609H39.6624C38.5193 39.7609 37.5899 40.6392 37.5899 41.7184C37.5899 41.7184 37.6031 46.7886 37.6245 46.9012H2.10774V13.6704H69.8129V46.9012ZM69.8129 11.6798H2.18519V4.51253C2.18519 3.1953 3.32008 2.12345 4.71535 2.12345H67.2827C68.678 2.12345 69.8129 3.1953 69.8129 4.51305V11.6798Z" fill="white"/>
<path d="M7.77119 3.95264C6.06611 3.95264 4.67908 5.26261 4.67908 6.87297C4.67908 8.48333 6.06611 9.79382 7.77119 9.79382C9.47627 9.79382 10.8639 8.48333 10.8639 6.87297C10.8639 5.26261 9.47627 3.95264 7.77119 3.95264ZM7.77119 7.80318C7.22846 7.80318 6.78626 7.38606 6.78626 6.87297C6.78626 6.36039 7.22846 5.94276 7.77119 5.94276C8.31447 5.94276 8.75612 6.36039 8.75612 6.87297C8.75612 7.38606 8.31447 7.80318 7.77119 7.80318Z" fill="white"/>
<path d="M15.6445 3.95264C13.9395 3.95264 12.5519 5.26261 12.5519 6.87297C12.5519 8.48333 13.9395 9.79382 15.6445 9.79382C17.3496 9.79382 18.7367 8.48333 18.7367 6.87297C18.7367 5.26261 17.3491 3.95264 15.6445 3.95264ZM15.6445 7.80318C15.1013 7.80318 14.6596 7.38606 14.6596 6.87297C14.6596 6.36039 15.1013 5.94276 15.6445 5.94276C16.1873 5.94276 16.6295 6.36039 16.6295 6.87297C16.6295 7.38606 16.1873 7.80318 15.6445 7.80318Z" fill="white"/>
<path d="M23.5174 3.95264C21.8123 3.95264 20.4253 5.26261 20.4253 6.87297C20.4253 8.48333 21.8123 9.79382 23.5174 9.79382C25.2225 9.79382 26.6101 8.48333 26.6101 6.87297C26.6101 5.26261 25.2225 3.95264 23.5174 3.95264ZM23.5174 7.80318C22.9747 7.80318 22.5325 7.38606 22.5325 6.87297C22.5325 6.36039 22.9747 5.94276 23.5174 5.94276C24.0607 5.94276 24.5023 6.36039 24.5023 6.87297C24.5023 7.38606 24.0607 7.80318 23.5174 7.80318Z" fill="white"/>
</g>
<defs>
<clipPath id="clip0">
<rect width="72" height="68" fill="white"/>
</clipPath>
</defs>
</svg>
