<svg width="72" height="68" viewBox="0 0 72 68" fill="none" xmlns="http://www.w3.org/2000/svg">
<g clip-path="url(#clip0)">
<path d="M72.0242 13.532C71.7973 12.9021 71.2227 12.4575 70.5246 12.3719L65.2187 11.7182C66.0383 10.2832 65.8081 8.4498 64.5271 7.23996C63.7696 6.52402 62.7627 6.13025 61.6916 6.13025C61.6905 6.13025 61.6894 6.13025 61.6888 6.13025C61.0609 6.13077 60.4561 6.26721 59.9096 6.5235L59.2174 1.50983C59.1262 0.849914 58.6555 0.30725 57.9892 0.0929859C57.3223 -0.120759 56.5988 0.0379931 56.1006 0.508544L48.5365 7.65241C48.1212 8.04462 47.929 8.60544 48.0224 9.15277L49.2462 16.3454L48.8963 16.6769C43.6278 12.8409 37.2052 10.7616 30.4431 10.7616C24.0881 10.7616 18.0044 12.5992 12.8502 16.0761C12.3756 16.3962 12.2657 17.0188 12.6046 17.467C12.9435 17.9153 13.6027 18.0191 14.0773 17.699C18.8712 14.4648 24.5308 12.7553 30.4431 12.7553C36.7954 12.7553 42.6627 14.7511 47.3813 18.1119L43.0961 22.1726C39.5047 19.8094 35.1425 18.4211 30.4431 18.4211C18.2066 18.4211 8.25129 27.8233 8.25129 39.3806C8.25129 50.9374 18.2066 60.3396 30.4431 60.3396C42.6797 60.3396 52.635 50.9374 52.635 39.3806C52.635 34.9926 51.1985 30.9169 48.7486 27.5473L53.0398 23.4804C56.5516 27.9208 58.6341 33.4248 58.6341 39.3806C58.6341 54.0616 45.9877 66.0054 30.4431 66.0054C14.8986 66.0054 2.2522 54.0616 2.2522 39.3806C2.2522 32.8152 4.80377 26.5092 9.43726 21.6237C9.82618 21.2138 9.78937 20.583 9.35541 20.2156C8.9209 19.8483 8.25348 19.8831 7.86457 20.2929C2.88336 25.5448 0.140625 32.3234 0.140625 39.3806C0.140625 47.0251 3.2926 54.212 9.01593 59.6174C14.7393 65.0228 22.3489 67.9996 30.4431 67.9996C38.5373 67.9996 46.147 65.0228 51.8703 59.6174C57.5937 54.212 60.7456 47.0251 60.7456 39.3806C60.7456 33.0331 58.5698 27.0026 54.5559 22.0444L54.824 21.7902L62.4315 22.945C62.5282 22.9596 62.6248 22.9668 62.7215 22.9668C63.2038 22.9668 63.6746 22.7863 64.0207 22.4595L65.6444 20.9259C66.057 20.5363 66.057 19.9054 65.6444 19.5158C65.2319 19.1267 64.5639 19.1267 64.1514 19.5158L62.6276 20.9549L56.6917 20.0538L63.5993 13.5299L69.6945 14.2806L68.7788 15.1454C68.3669 15.535 68.3669 16.1659 68.7788 16.5555C69.1914 16.9446 69.8599 16.9446 70.2719 16.5555L71.5847 15.3156C72.0824 14.845 72.2511 14.1618 72.0242 13.532ZM57.1959 2.29373L57.9914 8.05033L51.0832 14.5742L50.129 8.96808L57.1959 2.29373ZM50.5234 39.3806C50.5234 49.8375 41.5157 58.3453 30.4431 58.3453C19.3706 58.3453 10.3629 49.8375 10.3629 39.3806C10.3629 28.9232 19.3706 20.4159 30.4431 20.4159C34.5608 20.4159 38.3917 21.5925 41.5811 23.6081L37.1986 27.7611C35.1931 26.7162 32.8909 26.1196 30.4431 26.1196C22.7011 26.1196 16.4026 32.0686 16.4026 39.3806C16.4026 46.692 22.7011 52.6411 30.4431 52.6411C38.1852 52.6411 44.4837 46.692 44.4837 39.3806C44.4837 37.1301 43.8849 35.0102 42.8335 33.1519L47.2308 28.9849C49.3116 31.9727 50.5234 35.5451 50.5234 39.3806ZM28.4804 41.3785C29.2379 42.0939 30.2454 42.4877 31.3165 42.4877H31.3193C32.3916 42.4872 33.399 42.0918 34.1565 41.3743L35.6528 39.9565C35.3496 42.4182 33.1293 44.3351 30.4431 44.3351C27.5504 44.3351 25.1972 42.1126 25.1972 39.3806C25.1972 36.7389 27.3966 34.5739 30.1569 34.4333L28.4766 36.0255C26.9176 37.5025 26.9193 39.9035 28.4804 41.3785ZM23.0856 39.3806C23.0856 43.2119 26.3864 46.3294 30.4431 46.3294C34.4998 46.3294 37.8007 43.2124 37.8007 39.3806C37.8007 38.9256 37.7523 38.482 37.6633 38.0514L41.2625 34.6409C41.9738 36.0826 42.3726 37.6883 42.3726 39.3806C42.3726 45.5927 37.0212 50.6468 30.4431 50.6468C23.8651 50.6468 18.5142 45.5927 18.5142 39.3806C18.5142 33.168 23.8651 28.1138 30.4431 28.1138C32.3042 28.1138 34.0659 28.5201 35.6369 29.2412L32.0834 32.6082C31.556 32.4935 31.0073 32.4318 30.4431 32.4318C26.3864 32.4318 23.0856 35.5488 23.0856 39.3806ZM32.6613 39.9663C32.3026 40.3061 31.8252 40.4934 31.3176 40.4934C31.3171 40.4934 31.3165 40.4934 31.3165 40.4934C30.809 40.4934 30.3322 40.3072 29.9735 39.9684C29.2346 39.2701 29.2335 38.1334 29.9718 37.4341L60.3468 8.65161C60.7055 8.3118 61.1823 8.12451 61.6899 8.12399H61.6916C62.1986 8.12399 62.6754 8.31076 63.0341 8.64954C63.7735 9.34784 63.7746 10.4845 63.0357 11.1839L32.6613 39.9663Z" fill="white"/>
</g>
<defs>
<clipPath id="clip0">
<rect width="72" height="68" fill="white"/>
</clipPath>
</defs>
</svg>
