<svg width="72" height="68" viewBox="0 0 72 68" fill="none" xmlns="http://www.w3.org/2000/svg">
<g clip-path="url(#clip0)">
<path d="M15.4454 65.9028L13.3283 63.0863C12.8788 62.4882 12.0009 62.3475 11.3675 62.7721C10.7343 63.1967 10.5852 64.0257 11.035 64.6239L13.1521 67.4405C13.4263 67.8053 13.8597 67.9999 14.3 67.9999C14.5815 67.9999 14.8657 67.9202 15.1128 67.7546C15.746 67.33 15.8951 66.501 15.4454 65.9028Z" fill="white"/>
<path d="M31.6703 66.3986L29.3663 56.0275C28.246 50.9844 25.1353 46.6237 20.6078 43.7484L15.6886 40.6244C13.7161 39.372 11.0647 39.6413 9.41606 41.2291V25.2258C9.41606 23.1252 7.89971 21.3405 5.72847 20.8854C4.32715 20.5913 2.88181 20.9098 1.7623 21.7581C0.642927 22.6063 0.000976562 23.8703 0.000976562 25.2258V45.8185C0.000976562 48.5164 0.875098 51.1053 2.5287 53.3053L5.03646 56.6417C5.31067 57.0065 5.74408 57.2011 6.18437 57.2011C6.4659 57.2011 6.75011 57.1214 6.99718 56.9558C7.63041 56.5312 7.77948 55.7021 7.32976 55.104L4.822 51.7676C3.50801 50.0194 2.81347 47.9623 2.81347 45.8184V25.2258C2.81347 24.6802 3.07193 24.1714 3.52249 23.8298C3.97291 23.4883 4.55468 23.3602 5.11914 23.4785C5.99312 23.6617 6.60357 24.3802 6.60357 25.2258V41.5638C6.60357 43.8766 7.50329 46.0801 9.13777 47.7944C9.2078 47.8737 9.2798 47.9522 9.35588 48.0283C10.2898 48.9629 11.3878 50.0641 12.4219 51.1022L13.8696 52.5574C13.8743 52.5621 13.8793 52.5661 13.8841 52.5706C15.1226 53.8146 16.036 54.7333 16.0551 54.7524C16.5865 55.287 17.4767 55.3135 18.0428 54.8114C18.609 54.3092 18.6369 53.4688 18.1051 52.9341C18.0795 52.9083 16.4334 51.2528 14.5535 49.3657L11.3291 46.1247C11.321 46.1164 11.3135 46.1078 11.3054 46.0996C10.5494 45.2456 10.5588 44.0074 11.3512 43.1624C12.0522 42.4152 13.2425 42.2718 14.1195 42.8287L19.0384 45.9527C22.9545 48.4396 25.6448 52.2112 26.6137 56.573L28.9179 66.9441C29.0569 67.5701 29.6415 67.9997 30.2927 67.9997C30.3884 67.9997 30.4855 67.9904 30.5829 67.9712C31.3429 67.8206 31.8298 67.1164 31.6703 66.3986Z" fill="white"/>
<path d="M10.4187 59.2153L10.4097 59.2033C9.9583 58.6062 9.08024 58.4675 8.44813 58.8936C7.81603 59.3197 7.66921 60.1491 8.1202 60.7461L8.1292 60.758C8.40369 61.1213 8.83612 61.3149 9.27514 61.3149C9.5578 61.3149 9.84313 61.2347 10.0908 61.0677C10.7227 60.6417 10.8697 59.8123 10.4187 59.2153Z" fill="white"/>
<path d="M70.2384 21.7583C69.1191 20.9101 67.673 20.5921 66.2724 20.8856C64.1012 21.3406 62.5847 23.1255 62.5847 25.2261V41.2294C60.9361 39.6416 58.2845 39.3723 56.3121 40.6247L51.3929 43.7486C46.8652 46.6237 43.7548 50.9846 42.6344 56.0277L40.3304 66.3989C40.171 67.1167 40.6578 67.8207 41.4179 67.9714C41.5152 67.9906 41.6125 67.9999 41.708 67.9999C42.3593 67.9999 42.9438 67.5701 43.0829 66.9442L45.3869 56.573C46.3559 52.2113 49.046 48.4396 52.9622 45.9528L57.8813 42.829C58.7581 42.272 59.9484 42.4154 60.6497 43.1626C61.4411 44.0065 61.4517 45.2427 60.6985 46.0967C60.6895 46.106 60.6809 46.1155 60.6719 46.1248C60.6719 46.1248 53.9212 52.9087 53.8958 52.9342C53.3641 53.4689 53.392 54.3094 53.9581 54.8115C54.5242 55.3137 55.4141 55.2873 55.9458 54.7526C55.9649 54.7334 61.7111 48.9632 62.645 48.0286C62.7211 47.9525 62.7931 47.874 62.8631 47.7947C64.4974 46.0803 65.3973 43.8769 65.3973 41.5641V25.2259C65.3973 24.3803 66.0077 23.6618 66.8819 23.4787C67.4462 23.3604 68.0278 23.4886 68.4785 23.8299C68.9291 24.1714 69.1875 24.6802 69.1875 25.2259V45.8187C69.1875 47.9626 68.493 50.0197 67.179 51.7679L56.5547 65.9027C56.1051 66.5007 56.254 67.3299 56.8873 67.7545C57.1345 67.9201 57.4185 67.9998 57.7001 67.9998C58.1402 67.9998 58.5738 67.8051 58.848 67.4404L69.4723 53.3056C71.1259 51.1056 72 48.5166 72 45.8188V25.2259C71.9996 23.8704 71.3578 22.6066 70.2384 21.7583Z" fill="white"/>
<path d="M53.8111 25.4548L51.3092 24.8903V24.4667C52.9353 23.3909 54.0015 21.6095 54.0015 19.5963V16.5245C54.0015 13.2468 51.1782 10.5804 47.7077 10.5804C46.1503 10.5804 44.7243 11.1185 43.6242 12.0068C42.3994 9.17388 39.4522 7.17188 36.0176 7.17188C32.5788 7.17188 29.6285 9.17906 28.4064 12.0174C27.3046 11.1228 25.8735 10.5801 24.3098 10.5801C20.8393 10.5801 18.016 13.2466 18.016 16.5242V16.7284V19.596C18.016 21.6092 19.0822 23.3906 20.7082 24.4664V24.8901L18.2064 25.4545C15.2192 26.1285 13.1329 28.625 13.1329 31.5256V34.006C13.1329 34.7395 13.7627 35.3341 14.5392 35.3341H21.0012C20.9912 35.4952 20.9843 35.6571 20.9843 35.8203V40.596C20.9843 41.3295 21.614 41.9241 22.3905 41.9241H30.8435C31.62 41.9241 32.2497 41.3295 32.2497 40.596C32.2497 39.8625 31.62 39.2679 30.8435 39.2679H29.3905V36.5233C29.3905 35.7898 28.7608 35.1952 27.9843 35.1952C27.2078 35.1952 26.578 35.7898 26.578 36.5233V39.2681H23.7969V35.8206C23.7969 33.2591 25.6391 31.0532 28.2764 30.4563L32.1354 29.583L34.7179 35.1321C34.9424 35.6144 35.4475 35.9258 36.0051 35.9258H36.0052C36.5629 35.9258 37.0681 35.6145 37.2925 35.1322L39.8724 29.5913L43.7192 30.4593C46.359 31.0549 48.2027 33.2611 48.2027 35.8245V39.2681H45.4216V36.5233C45.4216 35.7898 44.7918 35.1952 44.0153 35.1952C43.2388 35.1952 42.6091 35.7898 42.6091 36.5233V39.2681H41.0154C40.2388 39.2681 39.6091 39.8627 39.6091 40.5963C39.6091 41.3298 40.2388 41.9244 41.0154 41.9244H49.6091C50.3856 41.9244 51.0153 41.3298 51.0153 40.5963V35.8245C51.0153 35.6599 51.0083 35.4968 50.9982 35.3344H57.4784C58.2549 35.3344 58.8847 34.7398 58.8847 34.0063V31.5259C58.8847 28.6253 56.7984 26.1287 53.8111 25.4548ZM47.7077 13.2363C49.5502 13.2363 51.0627 14.5951 51.1814 16.3073H49.2263C47.5827 16.3073 45.9652 15.9336 44.5113 15.222C45.0461 14.0549 46.2777 13.2363 47.7077 13.2363ZM44.2264 19.4021C44.2281 19.3375 44.2316 19.273 44.2316 19.208V18.0251C45.8095 18.6419 47.5065 18.9636 49.2263 18.9636H51.189V19.5962C51.189 21.4091 49.6274 22.8841 47.7077 22.8841C45.788 22.8841 44.2264 21.4091 44.2264 19.596V19.4021ZM30.6162 14.9294C30.6162 12.1166 33.0392 9.82811 36.0176 9.82811C38.7039 9.82811 40.9383 11.6899 41.3509 14.1187L38.9835 12.8051C38.3913 12.4765 37.6345 12.5999 37.1933 13.0973C36.0364 14.4012 34.3398 15.1491 32.5384 15.1491H30.6162V14.9294ZM24.3099 13.2363C25.7399 13.2363 26.9714 14.055 27.5063 15.2219C26.0522 15.9335 24.4349 16.3072 22.7913 16.3072H20.8362C20.9549 14.5951 22.4676 13.2363 24.3099 13.2363ZM20.8286 18.9635H22.7913C24.513 18.9635 26.2117 18.6411 27.7912 18.023V19.5959C27.7912 21.4088 26.2296 22.8838 24.3099 22.8838C22.3902 22.8838 20.8286 21.4091 20.8286 19.596V18.9635ZM27.621 27.8731C24.8544 28.4992 22.6801 30.321 21.6452 32.678H15.9454V31.5257C15.9454 29.8595 17.1438 28.4252 18.8599 28.0381L22.4413 27.2301C23.0742 27.0873 23.5209 26.553 23.5209 25.9383V25.4918C23.7796 25.5225 24.0426 25.5402 24.3099 25.5402C24.5753 25.5402 24.8364 25.5228 25.0932 25.4925V25.8714C25.0922 25.8912 25.0918 25.911 25.0916 25.9308C25.0914 26.3665 25.3182 26.7934 25.7347 27.0479C25.8916 27.1439 26.0612 27.2063 26.2343 27.2375L28.332 27.7122L27.621 27.8731ZM31.5436 25.8114C31.1824 25.6609 30.8058 25.5406 30.4176 25.4528L27.9055 24.8842V24.4704C28.3589 24.1711 28.7688 23.8175 29.1243 23.4188C29.7523 24.3325 30.5775 25.1138 31.5436 25.709V25.8114ZM37.6512 27.7628L36.0056 31.2976L34.3563 27.7537V26.806C34.893 26.9105 35.4486 26.9656 36.0176 26.9656C36.5769 26.9656 37.123 26.9121 37.6512 26.811V27.7628ZM36.0176 24.3093C33.0392 24.3094 30.6162 22.0209 30.6162 19.208V17.8052H32.5384C34.7684 17.8052 36.8888 17.022 38.5138 15.6251L41.4138 17.2342V19.4023C41.3052 22.1253 38.9271 24.3093 36.0176 24.3093ZM40.4637 25.8156V25.7257C41.4377 25.131 42.2702 24.3477 42.9031 23.4299C43.2562 23.8241 43.6626 24.1739 44.1116 24.4704V24.8842L41.5994 25.4528C41.2079 25.5415 40.8281 25.6633 40.4637 25.8156ZM56.072 32.678H50.3528C49.317 30.321 47.1411 28.5003 44.3728 27.8757L43.6667 27.7164L45.7757 27.2391C45.9512 27.2083 46.1236 27.1451 46.2826 27.0479C46.6984 26.7938 46.9246 26.3669 46.9246 25.9312C46.9246 25.9208 46.9244 25.9103 46.9241 25.9V25.4925C47.1811 25.5228 47.4421 25.5402 47.7074 25.5402C47.9747 25.5402 48.2377 25.5225 48.4965 25.4918V25.9383C48.4965 26.553 48.9431 27.0873 49.576 27.2301L53.1575 28.0381C54.8735 28.4254 56.072 29.8595 56.072 31.5257V32.678Z" fill="white"/>
<path d="M36.9939 39.6564C36.7311 39.4093 36.3697 39.2686 35.9999 39.2686C35.6285 39.2686 35.2672 39.4093 35.0057 39.6564C34.7427 39.9047 34.5936 40.246 34.5936 40.5967C34.5936 40.946 34.7427 41.2873 35.0057 41.5356C35.2672 41.7827 35.6286 41.9248 35.9999 41.9248C36.3697 41.9248 36.7311 41.7827 36.9939 41.5356C37.2555 41.2873 37.4061 40.946 37.4061 40.5967C37.4061 40.246 37.2556 39.9047 36.9939 39.6564Z" fill="white"/>
<path d="M35.9989 0C35.2224 0 34.5927 0.594599 34.5927 1.32812V3.31539C34.5927 4.04891 35.2224 4.64351 35.9989 4.64351C36.7754 4.64351 37.4051 4.04891 37.4051 3.31539V1.32812C37.4051 0.594599 36.7756 0 35.9989 0Z" fill="white"/>
<path d="M30.8188 4.33225L29.3437 2.94038C28.7943 2.42188 27.904 2.42228 27.355 2.94118C26.806 3.46008 26.8065 4.30104 27.3559 4.81941L28.8312 6.21128C29.1057 6.47039 29.4655 6.59989 29.825 6.59989C30.1852 6.59989 30.5452 6.47 30.8198 6.21048C31.3685 5.69158 31.3682 4.85062 30.8188 4.33225Z" fill="white"/>
<path d="M44.6092 2.9745C44.0598 2.45613 43.1692 2.4564 42.6205 2.97543L41.1567 4.35919C40.6079 4.87809 40.6083 5.71906 41.1577 6.23742C41.4324 6.49654 41.7919 6.62603 42.1516 6.62603C42.5118 6.62603 42.8719 6.49614 43.1464 6.23649L44.6102 4.85272C45.1591 4.33383 45.1586 3.49286 44.6092 2.9745Z" fill="white"/>
</g>
<defs>
<clipPath id="clip0">
<rect width="72" height="68" fill="white"/>
</clipPath>
</defs>
</svg>
