<svg width="72" height="68" viewBox="0 0 72 68" fill="none" xmlns="http://www.w3.org/2000/svg">
<g clip-path="url(#clip0)">
<path d="M63.5381 0.101365C63.0127 -0.104362 62.4077 0.00945847 62.0055 0.389169L57.5999 4.55004L53.1944 0.389169C52.9308 0.140146 52.573 0.000161599 52.2001 0.000161599C51.8271 0.000161599 51.4695 0.140146 51.2057 0.389169L46.7999 4.55004L42.3944 0.389169C42.1306 0.140146 41.773 0.000161599 41.4001 0.000161599C41.0271 0.000161599 40.6695 0.140146 40.4057 0.389169L36 4.55004L31.5943 0.389169C31.3305 0.140146 30.9729 0.000161599 30.6 0.000161599C30.227 0.000161599 29.8694 0.140146 29.6056 0.389169L25.2 4.55004L20.7943 0.389169C20.5305 0.140146 20.1729 0.000161599 19.8 0.000161599C19.4271 0.000161599 19.0693 0.140146 18.8056 0.389169L14.4001 4.54991L9.99451 0.389036C9.59232 0.00919283 8.98735 -0.104494 8.46198 0.101232C7.93661 0.306825 7.5939 0.791191 7.5939 1.32828V27.4259C7.5939 28.1594 8.22362 28.754 9.00015 28.754C9.77668 28.754 10.4064 28.1594 10.4064 27.4259V4.53464L13.4058 7.36739C13.6696 7.61641 14.0272 7.7564 14.4001 7.7564C14.7731 7.7564 15.1307 7.61641 15.3945 7.36739L19.8 3.20651L24.2058 7.36739C24.4696 7.61641 24.8272 7.7564 25.2001 7.7564C25.5731 7.7564 25.9308 7.61641 26.1945 7.36739L30.6 3.20651L35.0055 7.36739C35.5549 7.88602 36.445 7.88602 36.9943 7.36739L41.3999 3.20651L45.8054 7.36739C46.0691 7.61641 46.4269 7.7564 46.7998 7.7564C47.1727 7.7564 47.5303 7.61641 47.7942 7.36739L52.1998 3.20651L56.6053 7.36739C56.8691 7.61641 57.2267 7.7564 57.5996 7.7564C57.9726 7.7564 58.3302 7.61641 58.594 7.36739L61.5934 4.53464V63.4656L58.594 60.6328C58.3302 60.3838 57.9726 60.2438 57.5996 60.2438C57.2267 60.2438 56.8691 60.3838 56.6053 60.6328L52.1998 64.7937L47.7942 60.6328C47.5303 60.3838 47.1727 60.2438 46.7998 60.2438C46.4269 60.2438 46.0691 60.3838 45.8054 60.6328L41.3999 64.7937L36.9943 60.6328C36.4449 60.1142 35.5547 60.1142 35.0055 60.6328L30.5998 64.7937L26.1943 60.6328C25.9307 60.3838 25.5729 60.2438 25.2 60.2438C24.827 60.2438 24.4694 60.3838 24.2056 60.6328L19.8 64.7937L15.3945 60.6328C15.1307 60.3838 14.7731 60.2438 14.4001 60.2438C14.0272 60.2438 13.6696 60.3838 13.4058 60.6328L10.4067 63.4654V39.8437C10.4067 39.1102 9.77696 38.5156 9.00043 38.5156C8.2239 38.5156 7.59418 39.1102 7.59418 39.8437V66.6718C7.59418 67.209 7.93689 67.6932 8.46226 67.8988C8.98763 68.1046 9.5926 67.9907 9.99479 67.611L14.4004 63.4501L18.8059 67.611C19.0696 67.86 19.4273 68 19.8003 68C20.1732 68 20.5308 67.86 20.7946 67.611L25.2003 63.4501L29.6057 67.611C29.8696 67.86 30.2272 68 30.6001 68C30.973 68 31.3307 67.86 31.5945 67.611L36.0001 63.4501L40.4057 67.611C40.6695 67.86 41.0271 68 41.4001 68C41.773 68 42.1306 67.86 42.3944 67.611L46.7999 63.4501L51.2057 67.611C51.4695 67.86 51.8271 68 52.2001 68C52.573 68 52.9308 67.86 53.1944 67.611L57.5999 63.4501L62.0057 67.611C62.2747 67.8651 62.6343 68 63.0003 68C63.1814 68 63.3643 67.967 63.5381 67.8991C64.0634 67.6935 64.4062 67.2091 64.4062 66.672V1.32842C64.4062 0.791191 64.0634 0.306958 63.5381 0.101365Z" fill="white"/>
<path d="M36.0179 21.4366C34.205 21.4366 32.7301 20.2275 32.7301 18.7414C32.7301 17.2554 34.205 16.0463 36.0179 16.0463C37.8309 16.0463 39.3057 17.2554 39.3057 18.7414C39.3057 19.475 39.9354 20.0696 40.712 20.0696C41.4885 20.0696 42.1182 19.475 42.1182 18.7414C42.1182 16.2152 40.1119 14.0938 37.4242 13.5351V12.2261C37.4242 11.4925 36.7945 10.8979 36.0179 10.8979C35.2414 10.8979 34.6117 11.4925 34.6117 12.2261V13.5351C31.9239 14.0938 29.9176 16.2152 29.9176 18.7414C29.9176 21.6923 32.6542 24.0928 36.0179 24.0928C37.8309 24.0928 39.3057 25.302 39.3057 26.7881C39.3057 28.2743 37.8309 29.4833 36.0179 29.4833C34.205 29.4833 32.7301 28.2742 32.7301 26.7881C32.7301 26.0546 32.1004 25.46 31.3239 25.46C30.5473 25.46 29.9176 26.0546 29.9176 26.7881C29.9176 29.3144 31.9239 31.4358 34.6117 31.9945V33.0557C34.6117 33.7892 35.2414 34.3838 36.0179 34.3838C36.7945 34.3838 37.4242 33.7892 37.4242 33.0557V31.9945C40.1119 31.4358 42.1182 29.3144 42.1182 26.7881C42.1182 23.8372 39.3817 21.4366 36.0179 21.4366Z" fill="white"/>
<path d="M47.4188 53.603C47.1573 53.3547 46.7945 53.2139 46.4246 53.2139C46.0548 53.2139 45.692 53.3547 45.4304 53.603C45.1674 53.8487 45.0184 54.1914 45.0184 54.542C45.0184 54.8913 45.1674 55.2339 45.4304 55.481C45.692 55.728 46.0548 55.8701 46.4246 55.8701C46.7943 55.8701 47.1573 55.728 47.4188 55.481C47.6804 55.2339 47.8309 54.8913 47.8309 54.542C47.8309 54.1914 47.6803 53.85 47.4188 53.603Z" fill="white"/>
<path d="M40.2801 53.2134H25.6117C24.8352 53.2134 24.2055 53.808 24.2055 54.5415C24.2055 55.275 24.8352 55.8696 25.6117 55.8696H40.28C41.0567 55.8696 41.6864 55.275 41.6864 54.5415C41.6864 53.808 41.0567 53.2134 40.2801 53.2134Z" fill="white"/>
<path d="M46.4242 45.2446H25.6117C24.8352 45.2446 24.2055 45.8392 24.2055 46.5728C24.2055 47.3063 24.8352 47.9009 25.6117 47.9009H46.4242C47.2007 47.9009 47.8304 47.3063 47.8304 46.5728C47.8304 45.8392 47.2007 45.2446 46.4242 45.2446Z" fill="white"/>
<path d="M46.4242 37.2759H25.6117C24.8352 37.2759 24.2055 37.8705 24.2055 38.604C24.2055 39.3375 24.8352 39.9321 25.6117 39.9321H46.4242C47.2007 39.9321 47.8304 39.3375 47.8304 38.604C47.8304 37.8705 47.2007 37.2759 46.4242 37.2759Z" fill="white"/>
<path d="M9.99423 33.061C9.7328 32.814 9.36999 32.6719 9.00015 32.6719C8.63031 32.6719 8.2675 32.814 8.00593 33.061C7.74423 33.308 7.5939 33.6507 7.5939 34C7.5939 34.3493 7.74437 34.6919 8.00593 34.939C8.2675 35.186 8.63031 35.3281 9.00015 35.3281C9.36999 35.3281 9.7328 35.186 9.99423 34.939C10.2559 34.6919 10.4064 34.3493 10.4064 34C10.4064 33.6507 10.2558 33.308 9.99423 33.061Z" fill="white"/>
</g>
<defs>
<clipPath id="clip0">
<rect width="72" height="68" fill="white"/>
</clipPath>
</defs>
</svg>
