<svg width="72" height="68" viewBox="0 0 72 68" fill="none" xmlns="http://www.w3.org/2000/svg">
<path d="M60 0H16.8C13.8648 0 11.4252 2.00373 10.9104 4.6376C8.1216 5.1238 6 7.42787 6 10.2V62.3333C6 65.4579 8.6916 68 12 68H55.2C58.1352 68 60.5748 65.9963 61.0896 63.3624C63.8784 62.8762 66 60.5721 66 57.8V5.66667C66 2.54207 63.3084 0 60 0ZM58.8 62.3333C58.8 64.2079 57.1848 65.7333 55.2 65.7333H12C10.0152 65.7333 8.4 64.2079 8.4 62.3333V10.2C8.4 8.32547 10.0152 6.8 12 6.8H48V15.8667C48 16.4934 48.5364 17 49.2 17H58.8V62.3333ZM50.4 14.7333V8.40253L57.1032 14.7333H50.4ZM63.6 57.8C63.6 59.2756 62.5932 60.5223 61.2 60.9915V15.8667C61.2 15.5527 61.0644 15.2694 60.8472 15.0643L50.0508 4.86767C49.8324 4.6614 49.5324 4.53333 49.2 4.53333H13.4208C13.9176 3.21753 15.2376 2.26667 16.8 2.26667H60C61.9848 2.26667 63.6 3.79213 63.6 5.66667V57.8Z" fill="white"/>
<path d="M33.6 10.2002C30.2916 10.2002 27.6 12.7423 27.6 15.8669C27.6 18.9915 30.2916 21.5335 33.6 21.5335C36.9084 21.5335 39.6 18.9915 39.6 15.8669C39.6 12.7423 36.9084 10.2002 33.6 10.2002ZM33.6 19.2669C31.6152 19.2669 30 17.7414 30 15.8669C30 13.9923 31.6152 12.4669 33.6 12.4669C35.5848 12.4669 37.2 13.9923 37.2 15.8669C37.2 17.7414 35.5848 19.2669 33.6 19.2669Z" fill="white"/>
<path d="M24 24.9331H12V27.1998H24V24.9331Z" fill="white"/>
<path d="M31.2 24.9331H27.6V27.1998H31.2V24.9331Z" fill="white"/>
<path d="M48 24.9331H36V27.1998H48V24.9331Z" fill="white"/>
<path d="M55.2 24.9331H51.6V27.1998H55.2V24.9331Z" fill="white"/>
<path d="M24 29.4668H12V31.7335H24V29.4668Z" fill="white"/>
<path d="M31.2 29.4668H27.6V31.7335H31.2V29.4668Z" fill="white"/>
<path d="M48 29.4668H36V31.7335H48V29.4668Z" fill="white"/>
<path d="M55.2 29.4668H51.6V31.7335H55.2V29.4668Z" fill="white"/>
<path d="M24 34H12V36.2667H24V34Z" fill="white"/>
<path d="M31.2 34H27.6V36.2667H31.2V34Z" fill="white"/>
<path d="M48 34H36V36.2667H48V34Z" fill="white"/>
<path d="M55.2 34H51.6V36.2667H55.2V34Z" fill="white"/>
<path d="M24 38.5332H12V40.7999H24V38.5332Z" fill="white"/>
<path d="M31.2 38.5332H27.6V40.7999H31.2V38.5332Z" fill="white"/>
<path d="M48 38.5332H36V40.7999H48V38.5332Z" fill="white"/>
<path d="M55.2 38.5332H51.6V40.7999H55.2V38.5332Z" fill="white"/>
<path d="M24 45.3335H12V47.6002H24V45.3335Z" fill="white"/>
<path d="M31.2 45.3335H27.6V47.6002H31.2V45.3335Z" fill="white"/>
<path d="M48 45.3335H36V47.6002H48V45.3335Z" fill="white"/>
<path d="M55.2 45.3335H51.6V47.6002H55.2V45.3335Z" fill="white"/>
<path d="M24 49.8667H12V52.1334H24V49.8667Z" fill="white"/>
<path d="M31.2 49.8667H27.6V52.1334H31.2V49.8667Z" fill="white"/>
<path d="M48 49.8667H36V52.1334H48V49.8667Z" fill="white"/>
<path d="M55.2 49.8667H51.6V52.1334H55.2V49.8667Z" fill="white"/>
<path d="M24 54.3999H12V56.6666H24V54.3999Z" fill="white"/>
<path d="M31.2 54.3999H27.6V56.6666H31.2V54.3999Z" fill="white"/>
<path d="M48 54.3999H36V56.6666H48V54.3999Z" fill="white"/>
<path d="M55.2 54.3999H51.6V56.6666H55.2V54.3999Z" fill="white"/>
<path d="M24 58.9336H12V61.2002H24V58.9336Z" fill="white"/>
<path d="M31.2 58.9336H27.6V61.2002H31.2V58.9336Z" fill="white"/>
<path d="M48 58.9336H36V61.2002H48V58.9336Z" fill="white"/>
<path d="M55.2 58.9336H51.6V61.2002H55.2V58.9336Z" fill="white"/>
</svg>
