<svg width="72" height="68" viewBox="0 0 72 68" fill="none" xmlns="http://www.w3.org/2000/svg">
<path d="M13.6851 67.9974C14.2674 67.9974 14.7398 67.5518 14.7398 67.0013V41.6814C14.7398 40.1919 13.4566 38.98 11.879 38.98H2.86084C1.2832 38.98 0 40.1919 0 41.6814V67.0013C0 67.5518 0.472412 67.9974 1.05469 67.9974H13.6851ZM2.10938 41.6814C2.10938 41.2902 2.44611 40.9722 2.86084 40.9722H11.879C12.2932 40.9722 12.6299 41.2902 12.6299 41.6814V66.0052H2.10938V41.6814Z" fill="white"/>
<path d="M21.9474 32.2998C20.3704 32.2998 19.0872 33.5117 19.0872 35.0017V67.0012C19.0872 67.5517 19.559 67.9973 20.1418 67.9973H32.7717C33.3546 67.9973 33.8264 67.5517 33.8264 67.0012V35.0017C33.8264 33.5117 32.5432 32.2998 30.9661 32.2998H21.9474ZM31.717 35.0017V66.0051H21.196V35.0017C21.196 34.6105 21.5333 34.292 21.9474 34.292H30.9656C31.3803 34.292 31.717 34.6105 31.717 35.0017Z" fill="white"/>
<path d="M52.9134 67.0011V28.322C52.9134 26.832 51.6302 25.6201 50.0526 25.6201H41.0344C39.4568 25.6201 38.1736 26.832 38.1736 28.322V67.0011C38.1736 67.5515 38.646 67.9972 39.2283 67.9972H51.8587C52.441 67.9972 52.9134 67.5515 52.9134 67.0011ZM50.804 66.005H40.283V28.322C40.283 27.9308 40.6197 27.6123 41.0344 27.6123H50.0526C50.4667 27.6123 50.8035 27.9308 50.8035 28.322V66.005H50.804Z" fill="white"/>
<path d="M58.3154 67.9975H70.9453C71.5276 67.9975 72 67.5518 72 67.0014V21.6423C72 20.1528 70.7168 18.9409 69.1392 18.9409H60.121C58.5439 18.9409 57.2607 20.1528 57.2607 21.6423V67.0014C57.2607 67.5518 57.7326 67.9975 58.3154 67.9975ZM59.3701 21.6423C59.3701 21.2511 59.7068 20.9331 60.121 20.9331H69.1392C69.5533 20.9331 69.8906 21.2511 69.8906 21.6423V66.0053H59.3701V21.6423Z" fill="white"/>
<path d="M62.2447 14.1439C62.7231 14.7945 63.5361 15.128 64.3661 15.0155C65.1962 14.9024 65.8762 14.3654 66.141 13.6142L69.7456 3.38244C69.9664 2.75469 69.8643 2.08337 69.4644 1.54019C69.065 0.997005 68.4344 0.672237 67.7346 0.648891L56.3247 0.267055C55.4832 0.238002 54.7163 0.65356 54.3142 1.34875C53.9127 2.04394 53.9604 2.87973 54.4389 3.5303L55.6304 5.15051C49.4648 8.51025 34.9316 15.2935 15.1298 17.2795C14.5503 17.3376 14.1306 17.8284 14.1921 18.3752C14.2498 18.8867 14.7074 19.2665 15.2397 19.266C15.277 19.266 15.3144 19.2644 15.3523 19.2608C36.702 17.1197 52.0708 9.497 57.6876 6.31884C58.2034 6.02728 58.355 5.36322 58.0117 4.8963C58.0117 4.8963 56.2044 2.43927 56.1714 2.39465C56.1264 2.33343 56.1736 2.25665 56.2495 2.25769C56.2495 2.25769 67.6126 2.63797 67.6599 2.63952C67.7208 2.6416 67.7626 2.69918 67.7439 2.75366C67.7439 2.75366 64.1453 12.9683 64.1393 12.9849C64.1157 13.0529 64.019 13.0648 63.9767 13.0072L62.3447 10.7883C62.0261 10.3546 61.4053 10.2316 60.9291 10.5061C58.4687 11.9255 54.3538 14.093 48.7183 16.3597C48.1822 16.5755 47.9328 17.1602 48.1613 17.6665C48.3898 18.1729 49.0089 18.4084 49.545 18.1926C54.691 16.1226 58.6038 14.1283 61.1757 12.6907L62.2447 14.1439Z" fill="white"/>
<path d="M11.0918 19.6059C11.673 19.5701 12.113 19.0954 12.0745 18.5465C12.0366 17.9976 11.5334 17.5826 10.9528 17.6184C8.66382 17.7605 6.35944 17.8331 4.10339 17.8331C3.52057 17.8331 3.04871 18.2788 3.04871 18.8292V25.9861C3.04871 26.536 3.52057 26.9822 4.10339 26.9822C21.5667 26.9822 36.1379 23.0818 45.2862 19.8103C45.8311 19.6157 46.1058 19.0404 45.8992 18.5263C45.6932 18.0116 45.084 17.7522 44.5397 17.9473C35.7402 21.0938 21.8342 24.8328 5.15808 24.9848V19.8201C7.12079 19.8009 9.11206 19.7294 11.0918 19.6059Z" fill="white"/>
</svg>
