<svg width="27" height="27" viewBox="0 0 27 27" fill="none" xmlns="http://www.w3.org/2000/svg">
<path d="M20.6719 9.70312V8.85938C21.3697 8.85938 21.9375 8.29153 21.9375 7.59375C21.9375 6.89597 21.3697 6.32812 20.6719 6.32812H19.8281C19.5953 6.32812 19.4062 6.13913 19.4062 5.90625C19.4062 5.67338 19.5953 5.48438 19.8281 5.48438H21.0938V5.90625H21.9375V4.64062H20.6719V3.79688H19.8281V4.64062C19.1303 4.64062 18.5625 5.20847 18.5625 5.90625C18.5625 6.60403 19.1303 7.17188 19.8281 7.17188H20.6719C20.9048 7.17188 21.0938 7.36087 21.0938 7.59375C21.0938 7.82662 20.9048 8.01562 20.6719 8.01562H19.4062V7.59375H18.5625V8.85938H19.8281V9.70312H20.6719Z" fill="url(#paint0_linear)"/>
<path d="M24.8906 6.75C24.8906 4.19133 22.8087 2.10938 20.25 2.10938C17.6913 2.10938 15.6094 4.19133 15.6094 6.75C15.6094 9.30867 17.6913 11.3906 20.25 11.3906C22.8087 11.3906 24.8906 9.30867 24.8906 6.75ZM16.4531 6.75C16.4531 4.65623 18.1562 2.95312 20.25 2.95312C22.3438 2.95312 24.0469 4.65623 24.0469 6.75C24.0469 8.84377 22.3438 10.5469 20.25 10.5469C18.1562 10.5469 16.4531 8.84377 16.4531 6.75Z" fill="url(#paint1_linear)"/>
<path d="M26.5781 6.75C26.5781 3.26067 23.7393 0.421875 20.25 0.421875C16.7607 0.421875 13.9219 3.26067 13.9219 6.75C13.9219 9.4365 15.6073 11.7315 17.9744 12.6478L17.1222 13.5H13.7303L10.7772 16.875H5.72189L0.534094 22.4948L1.15383 23.0673L6.09103 17.7188H11.1607L14.1138 14.3438H17.472L18.889 12.9267C19.2755 13.0119 19.675 13.0591 20.0842 13.0697L17.966 15.1875H14.1328L11.6016 18.5625H6.55847L0.421875 25.5758V26.5781H24.8906V11.0379C25.9343 9.909 26.5781 8.40502 26.5781 6.75ZM14.7656 6.75C14.7656 3.726 17.226 1.26562 20.25 1.26562C23.274 1.26562 25.7344 3.726 25.7344 6.75C25.7344 9.774 23.274 12.2344 20.25 12.2344C17.226 12.2344 14.7656 9.774 14.7656 6.75ZM21.5156 12.9507V25.7344H19.8281V14.5184L21.3743 12.9722C21.4211 12.9638 21.4692 12.96 21.5156 12.9507ZM18.3153 16.0312L18.9844 15.3622V25.7344H17.2969V16.0312H18.3153ZM6.32812 25.7344H4.64062V22.0358L6.32812 20.1074V25.7344ZM7.17188 19.4062H8.85938V25.7344H7.17188V19.4062ZM9.70312 19.4062H11.3906V25.7344H9.70312V19.4062ZM12.2344 19.1249L13.9219 16.875V25.7344H12.2344V19.1249ZM14.7656 16.0312H16.4531V25.7344H14.7656V16.0312ZM3.79688 23.0002V25.7344H1.40442L3.79688 23.0002ZM22.3594 25.7344V12.709C22.9707 12.4917 23.5381 12.1842 24.0469 11.8007V25.7344H22.3594Z" fill="url(#paint2_linear)"/>
<path d="M2.95312 16.0312H3.79688V14.3438H4.64062V9.28125H3.79688V7.59375H2.95312V9.28125H2.10938V14.3438H2.95312V16.0312ZM2.95312 10.125H3.79688V13.5H2.95312V10.125Z" fill="url(#paint3_linear)"/>
<path d="M6.32812 13.9219H7.17188V12.2344H8.01562V8.01562H7.17188V6.32812H6.32812V8.01562H5.48438V12.2344H6.32812V13.9219ZM6.32812 8.85938H7.17188V11.3906H6.32812V8.85938Z" fill="url(#paint4_linear)"/>
<path d="M9.70312 10.9688H10.5469V9.28125H11.3906V5.90625H10.5469V4.21875H9.70312V5.90625H8.85938V9.28125H9.70312V10.9688ZM9.70312 6.75H10.5469V8.4375H9.70312V6.75Z" fill="url(#paint5_linear)"/>
<defs>
<linearGradient id="paint0_linear" x1="19.1885" y1="4.48024" x2="22.1314" y2="5.08131" gradientUnits="userSpaceOnUse">
<stop stop-color="#B71DFF"/>
<stop offset="1" stop-color="#FF1A35"/>
</linearGradient>
<linearGradient id="paint1_linear" x1="17.3309" y1="3.18324" x2="24.8064" y2="5.85518" gradientUnits="userSpaceOnUse">
<stop stop-color="#B71DFF"/>
<stop offset="1" stop-color="#FF1A35"/>
</linearGradient>
<linearGradient id="paint2_linear" x1="5.27344" y1="3.44822" x2="26.3408" y2="10.9782" gradientUnits="userSpaceOnUse">
<stop stop-color="#B71DFF"/>
<stop offset="1" stop-color="#FF1A35"/>
</linearGradient>
<linearGradient id="paint3_linear" x1="2.57888" y1="8.56999" x2="4.85199" y2="8.81373" gradientUnits="userSpaceOnUse">
<stop stop-color="#B71DFF"/>
<stop offset="1" stop-color="#FF1A35"/>
</linearGradient>
<linearGradient id="paint4_linear" x1="5.95388" y1="7.20674" x2="8.22094" y2="7.47684" gradientUnits="userSpaceOnUse">
<stop stop-color="#B71DFF"/>
<stop offset="1" stop-color="#FF1A35"/>
</linearGradient>
<linearGradient id="paint5_linear" x1="9.32888" y1="4.99974" x2="11.5875" y2="5.30248" gradientUnits="userSpaceOnUse">
<stop stop-color="#B71DFF"/>
<stop offset="1" stop-color="#FF1A35"/>
</linearGradient>
</defs>
</svg>
