<svg width="17" height="17" viewBox="0 0 17 17" fill="none" xmlns="http://www.w3.org/2000/svg">
<path d="M16.7258 6.85484H15.4371C15.2621 6.11366 14.9683 5.40566 14.5671 4.75836L15.4788 3.84666C15.5858 3.73959 15.5858 3.56602 15.4788 3.45895L13.541 1.52013C13.434 1.41309 13.2604 1.41309 13.1533 1.52013L12.2414 2.43182C11.5941 2.03092 10.8862 1.73746 10.1452 1.5629V0.274194C10.1452 0.12277 10.0224 0 9.87097 0H7.12903C6.97761 0 6.85484 0.12277 6.85484 0.274194V1.5629C6.11369 1.7378 5.40579 2.0316 4.75863 2.43292L3.84666 1.52013C3.73959 1.41309 3.56602 1.41309 3.45895 1.52013L1.52013 3.45895C1.41309 3.56602 1.41309 3.73959 1.52013 3.84666L2.43182 4.75836C2.03099 5.40573 1.73756 6.11373 1.5629 6.85484H0.274194C0.12277 6.85484 0 6.97761 0 7.12903V9.87097C0 10.0224 0.12277 10.1452 0.274194 10.1452H1.5629C1.73791 10.8863 2.03171 11.5943 2.43292 12.2416L1.52013 13.1533C1.41309 13.2604 1.41309 13.434 1.52013 13.541L3.45895 15.4799C3.56774 15.5827 3.73788 15.5827 3.84666 15.4799L4.75836 14.5682C5.40573 14.969 6.11373 15.2624 6.85484 15.4371V16.7258C6.85484 16.8772 6.97761 17 7.12903 17H9.87097C10.0224 17 10.1452 16.8772 10.1452 16.7258V15.4371C10.8863 15.2621 11.5943 14.9683 12.2416 14.5671L13.1533 15.4788C13.2604 15.5858 13.434 15.5858 13.541 15.4788L15.4799 13.54C15.5869 13.4329 15.5869 13.2593 15.4799 13.1522L14.5682 12.2405C14.9689 11.5935 15.2623 10.8859 15.4371 10.1452H16.7258C16.8772 10.1452 17 10.0224 17 9.87097V7.12903C17 6.97761 16.8772 6.85484 16.7258 6.85484ZM16.4516 9.59677H15.2177C15.0874 9.59674 14.9751 9.68846 14.949 9.81613C14.7815 10.6414 14.4557 11.4264 13.9894 12.1276C13.9172 12.2363 13.9316 12.3808 14.0239 12.4731L14.898 13.3469L13.3469 14.898L12.4731 14.0239C12.3808 13.9316 12.2363 13.9172 12.1276 13.9894C11.4264 14.4557 10.6414 14.7815 9.81613 14.949C9.68846 14.9751 9.59674 15.0874 9.59677 15.2177V16.4516H7.40323V15.2177C7.40326 15.0874 7.31154 14.9751 7.18387 14.949C6.35862 14.7815 5.57364 14.4557 4.87242 13.9894C4.7637 13.9172 4.6192 13.9316 4.52694 14.0239L3.65308 14.898L2.10169 13.3472L2.97582 12.4733C3.06809 12.3811 3.08252 12.2366 3.01037 12.1279C2.54407 11.4266 2.21819 10.6417 2.05069 9.8164C2.02475 9.6887 1.91257 9.59691 1.78226 9.59677H0.548387V7.40323H1.78226C1.91257 7.40326 2.02492 7.31154 2.05097 7.18387C2.21847 6.35862 2.54434 5.57364 3.01065 4.87242C3.08279 4.7637 3.06833 4.6192 2.9761 4.52694L2.10169 3.65281L3.65281 2.10169L4.52694 2.97582C4.6192 3.06809 4.7637 3.08252 4.87242 3.01037C5.57357 2.54417 6.35845 2.21826 7.1836 2.05069C7.3113 2.02475 7.40309 1.91257 7.40323 1.78226V0.548387H9.59677V1.78226C9.59674 1.91257 9.68846 2.02492 9.81613 2.05097C10.6413 2.21853 11.4262 2.54445 12.1273 3.01065C12.236 3.08279 12.3805 3.06836 12.4728 2.9761L13.3469 2.10197L14.898 3.65308L14.0239 4.52694C13.9316 4.6192 13.9172 4.7637 13.9894 4.87242C14.4557 5.57364 14.7815 6.35862 14.949 7.18387C14.9751 7.31154 15.0874 7.40326 15.2177 7.40323H16.4516V9.59677Z" fill="#383838"/>
<path d="M8.50002 5.48389C6.83426 5.48389 5.48389 6.83426 5.48389 8.50002C5.48389 10.1658 6.83426 11.5161 8.50002 11.5161C10.1658 11.5161 11.5161 10.1658 11.5161 8.50002C11.5142 6.83508 10.165 5.48584 8.50002 5.48389ZM8.50002 10.9678C7.13714 10.9678 6.03227 9.8629 6.03227 8.50002C6.03227 7.1371 7.13714 6.03227 8.50002 6.03227C9.86293 6.03227 10.9678 7.1371 10.9678 8.50002C10.9662 9.86228 9.86228 10.9662 8.50002 10.9678Z" fill="#383838"/>
</svg>
