<svg width="23" height="25" viewBox="0 0 23 25" fill="none" xmlns="http://www.w3.org/2000/svg">
<path d="M21.7941 5.95819L11.8652 0.0887884C11.6645 -0.0295962 11.4076 -0.0295962 11.2069 0.0887884L1.27178 5.95819C1.09464 6.06004 0.986304 6.23927 0.985352 6.43239V11.5229C0.990351 15.7164 3.18627 19.6487 6.87932 22.0766L11.1764 24.8984C11.3895 25.0338 11.6704 25.0338 11.8835 24.8984L16.1806 22.0766C19.8734 19.6487 22.0696 15.7164 22.0746 11.5229V6.43239C22.0772 6.23972 21.9708 6.05982 21.7941 5.95819ZM20.8615 11.5284C20.8572 15.3571 18.8518 18.9468 15.4797 21.1623L11.5359 23.7527L7.5924 21.1623C4.22031 18.9468 2.21462 15.3571 2.21033 11.5284V6.74831L11.5359 1.24023L20.8615 6.74831V11.5284Z" fill="#2D4DBC"/>
<path d="M8.29298 11.8164C8.05918 11.5935 7.67442 11.5884 7.43371 11.8051C7.193 12.0216 7.18752 12.3779 7.42133 12.6008L9.95082 15.0051C10.1858 15.224 10.5656 15.2315 10.8103 15.022L15.6438 10.8005C15.8879 10.5869 15.8988 10.2307 15.6681 10.0047C15.4376 9.77872 15.0529 9.76858 14.8088 9.9822L10.4141 13.8256L8.29298 11.8164Z" fill="#2D4DBC"/>
</svg>
