<svg width="55" height="52" viewBox="0 0 55 52" fill="none" xmlns="http://www.w3.org/2000/svg">
<g clip-path="url(#clip0)">
<path d="M51.9444 47.0476C50.5006 47.0476 49.3254 48.1587 49.3254 49.5238C49.3254 50.8888 50.5006 52 51.9444 52C53.3882 52 54.5635 50.8888 54.5635 49.5238C54.5635 48.1587 53.3882 47.0476 51.9444 47.0476ZM51.9444 50.3492C51.4636 50.3492 51.0714 49.9792 51.0714 49.5238C51.0714 49.0684 51.4636 48.6984 51.9444 48.6984C52.4253 48.6984 52.8175 49.0684 52.8175 49.5238C52.8175 49.9792 52.4253 50.3492 51.9444 50.3492Z" fill="black"/>
<path d="M5.67462 2.47619C5.67462 1.11114 4.49937 0 3.05557 0C1.61177 0 0.436523 1.11114 0.436523 2.47619C0.436523 3.84124 1.61177 4.95238 3.05557 4.95238C4.49937 4.95238 5.67462 3.84124 5.67462 2.47619ZM2.18256 2.47619C2.18256 2.02158 2.57473 1.65079 3.05557 1.65079C3.53641 1.65079 3.92859 2.02158 3.92859 2.47619C3.92859 2.9308 3.53641 3.30159 3.05557 3.30159C2.57473 3.30159 2.18256 2.9308 2.18256 2.47619Z" fill="black"/>
<path d="M47.3359 32.7096L45.6117 29.4495C45.9774 28.7479 46.2907 28.0389 46.5482 27.3333L50.1984 26.1826V16.7381L46.5482 15.5875C46.2916 14.8818 45.9774 14.1728 45.6117 13.4712L47.3376 10.2079L40.2747 3.53015L36.8231 5.162C36.0809 4.8162 35.3311 4.51917 34.5847 4.27655L33.3677 0.825439H23.3783L22.1613 4.27655C21.4149 4.51917 20.6651 4.8162 19.9229 5.162L16.4713 3.53015L9.40835 10.2079L11.1343 13.4712C10.7686 14.1728 10.4544 14.8818 10.1978 15.5875L6.54761 16.7381V26.1818L10.1978 27.332C10.4527 28.0329 10.7626 28.7354 11.125 29.4314L10.0022 31.3651H4.80157V47.8731H10.9127V45.3969H17.5353L20.1544 47.8731H24.8809V48.6985C24.8809 50.5193 26.4471 52 28.373 52C30.2989 52 31.8651 50.5193 31.8651 48.6985V47.8731H37.977C39.4208 47.8731 40.5961 46.7619 40.5961 45.3969C40.5961 44.7605 40.3335 44.1854 39.9153 43.7461C40.3343 43.3068 40.5961 42.7317 40.5961 42.0953C40.5961 41.4589 40.3335 40.8838 39.9153 40.4445C40.2487 40.0947 40.4763 39.6578 40.556 39.1709L47.3359 32.7096ZM12.8868 29.0655C12.4064 28.1933 12.0146 27.3067 11.7218 26.4317L11.5875 26.0307L8.29364 24.9921V17.9278L11.5875 16.89L11.7209 16.4882C12.0125 15.6141 12.4047 14.7274 12.8855 13.8553L13.091 13.4813L11.5325 10.5339L16.8153 5.53923L19.9327 7.01269L20.3283 6.81884C21.2516 6.36382 22.1886 5.99344 23.1132 5.71737L23.5382 5.59122L24.6375 2.47623H32.1093L33.207 5.59041L33.632 5.71656C34.5566 5.99223 35.4944 6.36301 36.4169 6.81763L36.8124 7.01189L39.9298 5.53842L45.2127 10.5331L43.6542 13.4804L43.8592 13.8545C44.3405 14.7274 44.7322 15.6133 45.0242 16.4874L45.1577 16.8892L48.4524 17.9286V24.9929L45.1585 26.0307L45.0242 26.4317C44.7314 27.3067 44.3396 28.1933 43.8592 29.0655L43.6542 29.4395L45.2144 32.3888L40.0556 37.3037C40.0112 37.2485 39.9639 37.1941 39.9153 37.1429C40.3343 36.7036 40.5961 36.1285 40.5961 35.4921C40.5961 34.2044 39.5474 33.1562 38.2179 33.0389C41.9214 30.2326 44.0873 26.0214 44.0873 21.4604C44.0873 13.2685 37.0375 6.60322 28.373 6.60322C19.7085 6.60322 12.6587 13.2685 12.6587 21.4604C12.6587 25.9662 14.8255 30.2048 18.5034 33.0159H11.0359L13.102 29.4568L12.8868 29.0655ZM38.85 42.0953C38.85 42.5507 38.4579 42.9207 37.977 42.9207H30.992C30.5112 42.9207 30.119 42.5507 30.119 42.0953C30.119 41.6399 30.5112 41.2699 30.992 41.2699H37.977C38.4579 41.2699 38.85 41.6399 38.85 42.0953ZM26.2655 21.4604H30.4805L31.8651 20.1513V16.508C32.828 16.508 33.6111 17.2483 33.6111 18.1588V21.944L30.6306 24.7619H26.1154L23.1349 21.944V18.1588C23.1349 17.2483 23.918 16.508 24.8809 16.508V20.1513L26.2655 21.4604ZM26.627 26.4127H30.119V29.7143H26.627V26.4127ZM31.8651 25.9291L35.3571 22.6275V18.1588C35.3571 16.3379 33.791 14.8572 31.8651 14.8572H30.119V19.4678L29.7575 19.8096H26.9885L26.627 19.4678V14.8572H24.8809C22.955 14.8572 21.3889 16.3379 21.3889 18.1588V22.6275L24.8809 25.9291V29.7143H22.7734L22.7184 29.7663C19.7379 27.9479 17.8968 24.8305 17.8968 21.4604C17.8968 15.9986 22.5961 11.5556 28.373 11.5556C34.1499 11.5556 38.8492 15.9986 38.8492 21.4604C38.8492 24.8059 37.0814 27.8697 34.1226 29.7143H31.8651V25.9291ZM40.5952 21.4604C40.5952 15.0881 35.1129 9.9048 28.373 9.9048C21.6331 9.9048 16.1508 15.0881 16.1508 21.4604C16.1508 25.273 18.1568 28.8228 21.4473 30.9681L20.1902 32.1567C16.5647 29.674 14.4047 25.7006 14.4047 21.4604C14.4047 14.1789 20.6714 8.25401 28.373 8.25401C36.0746 8.25401 42.3413 14.1789 42.3413 21.4604C42.3413 25.5394 40.391 29.3032 37.0614 31.7984C36.9616 31.2132 36.6458 30.7013 36.1918 30.3293C38.9741 28.1453 40.5952 24.9296 40.5952 21.4604ZM37.977 34.6667C38.4579 34.6667 38.85 35.0367 38.85 35.4921C38.85 35.9475 38.4579 36.3175 37.977 36.3175H30.992C30.5112 36.3175 30.119 35.9475 30.119 35.4921C30.119 35.0367 30.5112 34.6667 30.992 34.6667H37.977ZM30.992 39.6191C30.5112 39.6191 30.119 39.2491 30.119 38.7937C30.119 38.3383 30.5112 37.9683 30.992 37.9683H37.977C38.4579 37.9683 38.85 38.3383 38.85 38.7937C38.85 39.2491 38.4579 39.6191 37.977 39.6191H30.992ZM9.16665 46.2223H6.54761V33.0159H9.16665V46.2223ZM20.8773 46.2223L18.2583 43.7461H10.9127V34.6667H20.0043L23.4964 31.3651H34.4841C34.965 31.3651 35.3571 31.7351 35.3571 32.1905C35.3571 32.6459 34.965 33.0159 34.4841 33.0159H25.3925L21.6446 36.5593L22.8791 37.7265L24.8809 35.8339V46.2223H20.8773ZM28.373 50.3493C27.41 50.3493 26.627 49.6089 26.627 48.6985V34.6667H28.5337C28.4357 34.9259 28.373 35.2015 28.373 35.4921C28.373 36.1285 28.6356 36.7036 29.0538 37.1429C28.6347 37.5822 28.373 38.1573 28.373 38.7937C28.373 39.4301 28.6356 40.0052 29.0538 40.4445C28.6347 40.8838 28.373 41.4589 28.373 42.0953C28.373 42.7317 28.6356 43.3068 29.0538 43.7461C28.6347 44.1854 28.373 44.7605 28.373 45.3969C28.373 46.4713 29.1053 47.3794 30.119 47.7211V48.6985C30.119 49.6089 29.336 50.3493 28.373 50.3493ZM37.977 46.2223H30.992C30.5112 46.2223 30.119 45.8523 30.119 45.3969C30.119 44.9414 30.5112 44.5715 30.992 44.5715H37.977C38.4579 44.5715 38.85 44.9414 38.85 45.3969C38.85 45.8523 38.4579 46.2223 37.977 46.2223Z" fill="black"/>
<path d="M2.18256 7.42847H3.92859V9.07926H2.18256V7.42847Z" fill="black"/>
<path d="M2.18256 11.5554H3.92859V13.2062H2.18256V11.5554Z" fill="black"/>
<path d="M2.18256 15.6826H3.92859V17.3334H2.18256V15.6826Z" fill="black"/>
<path d="M51.0714 34.6665H52.8175V36.3173H51.0714V34.6665Z" fill="black"/>
<path d="M51.0714 38.7937H52.8175V40.4445H51.0714V38.7937Z" fill="black"/>
<path d="M51.0714 42.9207H52.8175V44.5714H51.0714V42.9207Z" fill="black"/>
</g>
<defs>
<clipPath id="clip0">
<rect width="55" height="52" fill="white"/>
</clipPath>
</defs>
</svg>
