<svg width="58" height="56" viewBox="0 0 58 56" fill="none" xmlns="http://www.w3.org/2000/svg">
<path d="M42.75 13.0667C42.75 13.5822 43.1754 14 43.7 14C44.2247 14 44.65 13.5822 44.65 13.0667C44.6472 10.85 43.0601 8.93992 40.85 8.49338V8.40005C40.85 7.88458 40.4247 7.46671 39.9 7.46671C39.3754 7.46671 38.95 7.88458 38.95 8.40005V8.49338C36.7362 8.93503 35.1453 10.8474 35.1453 13.0667C35.1453 15.2861 36.7362 17.1984 38.95 17.64V23.1626C37.8151 22.7684 37.0546 21.7161 37.05 20.5334C37.05 20.0179 36.6247 19.6 36.1 19.6C35.5754 19.6 35.15 20.0179 35.15 20.5334C35.1529 22.7501 36.7399 24.6602 38.95 25.1067V25.2C38.95 25.7155 39.3754 26.1334 39.9 26.1334C40.4247 26.1334 40.85 25.7155 40.85 25.2V25.1067C43.0638 24.6651 44.6548 22.7527 44.6548 20.5334C44.6548 18.314 43.0638 16.4017 40.85 15.96V10.4384C41.9847 10.8326 42.745 11.8844 42.75 13.0667ZM37.05 13.0667C37.055 11.8844 37.8154 10.8326 38.95 10.4384V15.695C37.8154 15.3009 37.055 14.249 37.05 13.0667ZM42.75 20.5334C42.745 21.7157 41.9847 22.7675 40.85 23.1616V17.9051C41.9847 18.2992 42.745 19.351 42.75 20.5334Z" fill="white"/>
<path d="M39.9 3.73335C32.5546 3.73335 26.6 9.5835 26.6 16.8C26.6 24.0165 32.5546 29.8667 39.9 29.8667C47.2454 29.8667 53.2 24.0165 53.2 16.8C53.1921 9.5867 47.2421 3.74107 39.9 3.73335ZM39.9 28C33.6039 28 28.5 22.9856 28.5 16.8C28.5 10.6144 33.6039 5.60002 39.9 5.60002C46.196 5.60002 51.3 10.6144 51.3 16.8C51.2932 22.9828 46.1932 27.9933 39.9 28Z" fill="white"/>
<path d="M39.9 -6.27788e-05C30.8348 0.0146871 23.3554 6.97443 22.8484 15.8666H21.85C19.7513 15.8666 18.05 17.5381 18.05 19.5999V29.4802L16.8216 28.2734C16.4489 27.9197 15.8564 27.9248 15.4899 28.2848C15.1235 28.6448 15.1183 29.2269 15.4783 29.5931L18.3283 32.3931C18.6993 32.7575 19.3007 32.7575 19.6716 32.3931L22.5216 29.5931C22.8817 29.2269 22.8765 28.6448 22.5101 28.2848C22.1436 27.9248 21.5511 27.9197 21.1783 28.2734L19.95 29.4802V19.5999C19.95 18.569 20.8007 17.7333 21.85 17.7333H22.8484C23.3395 26.2621 30.2689 33.0699 38.95 33.5523V36.0135L38.6716 35.7401C38.2989 35.3864 37.7064 35.3914 37.3399 35.7514C36.9735 36.1115 36.9683 36.6936 37.3283 37.0598L39.2283 38.9265C39.5993 39.2908 40.2007 39.2908 40.5716 38.9265L42.4716 37.0598C42.8317 36.6936 42.8265 36.1115 42.4601 35.7514C42.0936 35.3914 41.5011 35.3864 41.1283 35.7401L40.85 36.0135V33.5523C50.0943 33.0542 57.2536 25.4142 56.9961 16.3219C56.7387 7.22962 49.1582 -0.00760249 39.9 -6.27788e-05ZM39.9 31.7333C31.5053 31.7333 24.7 25.0474 24.7 16.7999C24.7 8.55248 31.5053 1.8666 39.9 1.8666C48.2947 1.8666 55.1 8.55248 55.1 16.7999C55.09 25.0433 48.2906 31.7235 39.9 31.7333Z" fill="white"/>
<path d="M2.85 55.9999H7.6C8.40607 55.9974 9.17297 55.658 9.709 55.0666H33.535C34.9289 55.067 36.2959 54.6902 37.4861 53.9774L55.29 43.329C56.1452 42.817 56.7412 41.9746 56.9316 41.0087C57.121 40.0725 56.9056 39.1011 56.3369 38.3272C56.32 38.2999 56.3016 38.2734 56.2818 38.2479C55.3646 37.0452 53.7656 36.5561 52.3156 37.0346L34.7311 42.7932C34.44 42.8885 34.1353 42.937 33.8286 42.937H33.2833C33.7347 41.7223 33.6049 40.3725 32.9299 39.2624L32.8444 39.1224C31.8114 37.4399 29.9604 36.4081 27.9604 36.3999H22.99C21.2375 36.3978 19.5375 35.8118 18.1678 34.7377C16.4611 33.3999 14.3433 32.6698 12.16 32.6666H10.2752C9.87406 31.5519 8.80345 30.8048 7.6 30.7999H2.85C1.27599 30.7999 0 32.0535 0 33.5999V53.1999C0 54.7463 1.27599 55.9999 2.85 55.9999ZM16.9813 36.1955C18.6882 37.5335 20.8064 38.2635 22.99 38.2666H27.9595C29.2928 38.2702 30.5276 38.9569 31.217 40.0782L31.3025 40.2172C31.8209 41.067 31.7646 42.1404 31.16 42.9332H25.3888C23.5129 42.9315 21.6788 43.4772 20.1191 44.5012L19.4228 44.9567C18.9862 45.2428 18.8684 45.8224 19.1596 46.2512C19.4508 46.6801 20.0407 46.7959 20.4773 46.5098L21.1727 46.0543C22.4205 45.2351 23.8879 44.7985 25.3888 44.7999H33.8324C34.3431 44.8001 34.8506 44.7194 35.3353 44.561L52.9207 38.8014C53.5645 38.5833 54.2785 38.7791 54.7143 39.2932C54.7305 39.3203 54.7495 39.3464 54.7685 39.3726C55.0485 39.7387 55.158 40.204 55.0701 40.6537C54.9821 41.1035 54.7049 41.4958 54.3068 41.7339L36.499 52.3832C35.6059 52.9174 34.5805 53.1999 33.535 53.1999H10.45V34.5332H12.16C13.9122 34.5355 15.6119 35.1215 16.9813 36.1955ZM1.9 33.5999C1.9 33.0845 2.32533 32.6666 2.85 32.6666H7.6C8.12467 32.6666 8.55 33.0845 8.55 33.5999V53.1999C8.55 53.7154 8.12467 54.1332 7.6 54.1332H2.85C2.32533 54.1332 1.9 53.7154 1.9 53.1999V33.5999Z" fill="white"/>
</svg>
