<svg width="27" height="27" viewBox="0 0 27 27" fill="none" xmlns="http://www.w3.org/2000/svg">
<path d="M2.61292 24.3871H3.48388V25.2581H2.61292V24.3871Z" fill="url(#paint0_linear)"/>
<path d="M4.3548 24.3871H5.22577V25.2581H4.3548V24.3871Z" fill="url(#paint1_linear)"/>
<path d="M6.09674 24.3871H6.96771V25.2581H6.09674V24.3871Z" fill="url(#paint2_linear)"/>
<path d="M20.9033 24.3871H24.3871V25.2581H20.9033V24.3871Z" fill="url(#paint3_linear)"/>
<path d="M26.129 22.6452V8.27419C26.129 7.07364 25.1522 6.09677 23.9516 6.09677H22.6452C22.6452 2.73475 19.9104 0 16.5484 0C13.1864 0 10.4516 2.73475 10.4516 6.09677H3.04839C1.84783 6.09677 0.870968 7.07364 0.870968 8.27419V22.6452H0V24.8226C0 26.0231 0.976862 27 2.17742 27H24.8226C26.0231 27 27 26.0231 27 24.8226V22.6452H26.129ZM23.9516 6.96774C24.6718 6.96774 25.2581 7.55399 25.2581 8.27419V22.6452H24.3871V8.70968C24.3871 8.22933 23.9965 7.83871 23.5161 7.83871H22.3883C22.4723 7.55654 22.5329 7.26522 22.5754 6.96774H23.9516ZM11.5756 4.49646L16.1977 6.42254L17.7804 11.1697C17.3845 11.266 16.9735 11.3226 16.5484 11.3226C13.6667 11.3226 11.3226 8.97845 11.3226 6.09677C11.3226 5.53839 11.4127 5.00105 11.5756 4.49646V4.49646ZM18.6078 10.8979L17.0466 6.21436L20.5347 2.72603C21.3064 3.63676 21.7742 4.81244 21.7742 6.09677C21.7742 8.24719 20.4677 10.0971 18.6078 10.8979ZM16.5484 0.870968C17.8327 0.870968 19.0084 1.33877 19.9196 2.11001L16.447 5.5824L11.9131 3.69375C12.7845 2.019 14.5334 0.870968 16.5484 0.870968ZM1.74194 8.27419C1.74194 7.55399 2.32818 6.96774 3.04839 6.96774H10.5214C10.5639 7.26522 10.6241 7.55654 10.7085 7.83871H3.48387C3.00352 7.83871 2.6129 8.22933 2.6129 8.70968V22.6452H1.74194V8.27419ZM26.129 24.8226C26.129 25.5428 25.5428 26.129 24.8226 26.129H2.17742C1.45721 26.129 0.870968 25.5428 0.870968 24.8226V23.5161H9.84283C10.469 24.0792 11.2703 24.3871 12.1191 24.3871H14.8813C15.7302 24.3871 16.5314 24.0792 17.1576 23.5161H22.6452V22.6452H16.8036L16.676 22.7727C16.1965 23.2522 15.5594 23.5161 14.8809 23.5161H12.1187C11.4406 23.5161 10.8031 23.2522 10.3236 22.7727L10.1964 22.6452H3.48387V8.70968H11.0483C12.0294 10.7661 14.1224 12.1935 16.5484 12.1935C18.9744 12.1935 21.0674 10.7661 22.0485 8.70968H23.5161V23.5161H26.129V24.8226Z" fill="url(#paint4_linear)"/>
<path d="M21.3387 18.2903C21.0714 18.2903 20.8226 18.3717 20.6153 18.5101L19.096 17.371C19.1347 17.2477 19.1612 17.1193 19.1612 16.9838C19.1612 16.2636 18.575 15.6774 17.8548 15.6774C17.1346 15.6774 16.5483 16.2636 16.5483 16.9838C16.5483 17.1337 16.5788 17.2756 16.6253 17.4097L14.1864 19.3611C13.9865 19.2365 13.7526 19.1612 13.5 19.1612C13.2069 19.1612 12.939 19.2618 12.7209 19.4251L10.843 18.1731C10.8692 18.0708 10.8871 17.9654 10.8871 17.8548C10.8871 17.1346 10.3008 16.5483 9.5806 16.5483C8.8604 16.5483 8.27415 17.1346 8.27415 17.8548C8.27415 17.9654 8.29201 18.0708 8.31817 18.1731L6.44036 19.4251C6.22219 19.2614 5.95426 19.1612 5.66125 19.1612C4.94104 19.1612 4.3548 19.7475 4.3548 20.4677C4.3548 21.1879 4.94104 21.7741 5.66125 21.7741C6.38146 21.7741 6.9677 21.1879 6.9677 20.4677C6.9677 20.3571 6.94984 20.2516 6.92368 20.1494L8.8015 18.8974C9.01966 19.0611 9.28759 19.1612 9.5806 19.1612C9.87362 19.1612 10.1415 19.0611 10.3597 18.8974L12.2375 20.1494C12.2114 20.2516 12.1935 20.3575 12.1935 20.4677C12.1935 21.1879 12.7798 21.7741 13.5 21.7741C14.2202 21.7741 14.8064 21.1879 14.8064 20.4677C14.8064 20.3178 14.776 20.176 14.7294 20.0418L17.1684 18.0904C17.3683 18.215 17.6022 18.2903 17.8548 18.2903C18.1221 18.2903 18.3709 18.2088 18.5782 18.0704L20.0975 19.2095C20.0588 19.3328 20.0322 19.4613 20.0322 19.5967C20.0322 20.3169 20.6185 20.9032 21.3387 20.9032C22.0589 20.9032 22.6451 20.3169 22.6451 19.5967C22.6451 18.8765 22.0589 18.2903 21.3387 18.2903V18.2903ZM5.66125 20.9032C5.42139 20.9032 5.22577 20.7075 5.22577 20.4677C5.22577 20.2278 5.42139 20.0322 5.66125 20.0322C5.90111 20.0322 6.09673 20.2278 6.09673 20.4677C6.09673 20.7075 5.90111 20.9032 5.66125 20.9032ZM9.5806 18.2903C9.34075 18.2903 9.14512 18.0946 9.14512 17.8548C9.14512 17.6149 9.34075 17.4193 9.5806 17.4193C9.82046 17.4193 10.0161 17.6149 10.0161 17.8548C10.0161 18.0946 9.82046 18.2903 9.5806 18.2903ZM13.5 20.9032C13.2601 20.9032 13.0645 20.7075 13.0645 20.4677C13.0645 20.2278 13.2601 20.0322 13.5 20.0322C13.7398 20.0322 13.9354 20.2278 13.9354 20.4677C13.9354 20.7075 13.7398 20.9032 13.5 20.9032ZM17.8548 17.4193C17.6149 17.4193 17.4193 17.2237 17.4193 16.9838C17.4193 16.744 17.6149 16.5483 17.8548 16.5483C18.0947 16.5483 18.2903 16.744 18.2903 16.9838C18.2903 17.2237 18.0947 17.4193 17.8548 17.4193ZM21.3387 20.0322C21.0988 20.0322 20.9032 19.8366 20.9032 19.5967C20.9032 19.3569 21.0988 19.1612 21.3387 19.1612C21.5785 19.1612 21.7742 19.3569 21.7742 19.5967C21.7742 19.8366 21.5785 20.0322 21.3387 20.0322Z" fill="url(#paint5_linear)"/>
<path d="M11.3225 9.58069H4.3548V15.6775H11.3225V9.58069ZM10.4516 14.8065H5.22577V10.4517H10.4516V14.8065Z" fill="url(#paint6_linear)"/>
<path d="M6.09674 11.3226H9.58061V12.1936H6.09674V11.3226Z" fill="url(#paint7_linear)"/>
<path d="M6.09674 13.0646H9.58061V13.9355H6.09674V13.0646Z" fill="url(#paint8_linear)"/>
<path d="M12.1935 13.9354H13.0644V14.8064H12.1935V13.9354Z" fill="url(#paint9_linear)"/>
<path d="M13.9355 13.9354H22.6452V14.8064H13.9355V13.9354Z" fill="url(#paint10_linear)"/>
<defs>
<linearGradient id="paint0_linear" x1="2.77447" y1="24.4879" x2="3.47598" y2="24.7386" gradientUnits="userSpaceOnUse">
<stop stop-color="#B71DFF"/>
<stop offset="1" stop-color="#FF1A35"/>
</linearGradient>
<linearGradient id="paint1_linear" x1="4.51635" y1="24.4879" x2="5.21786" y2="24.7386" gradientUnits="userSpaceOnUse">
<stop stop-color="#B71DFF"/>
<stop offset="1" stop-color="#FF1A35"/>
</linearGradient>
<linearGradient id="paint2_linear" x1="6.25829" y1="24.4879" x2="6.95981" y2="24.7386" gradientUnits="userSpaceOnUse">
<stop stop-color="#B71DFF"/>
<stop offset="1" stop-color="#FF1A35"/>
</linearGradient>
<linearGradient id="paint3_linear" x1="21.5495" y1="24.4879" x2="22.589" y2="25.9742" gradientUnits="userSpaceOnUse">
<stop stop-color="#B71DFF"/>
<stop offset="1" stop-color="#FF1A35"/>
</linearGradient>
<linearGradient id="paint4_linear" x1="5.00806" y1="3.12397" x2="26.7551" y2="10.8969" gradientUnits="userSpaceOnUse">
<stop stop-color="#B71DFF"/>
<stop offset="1" stop-color="#FF1A35"/>
</linearGradient>
<linearGradient id="paint5_linear" x1="7.74736" y1="16.3828" x2="15.4755" y2="24.6695" gradientUnits="userSpaceOnUse">
<stop stop-color="#B71DFF"/>
<stop offset="1" stop-color="#FF1A35"/>
</linearGradient>
<linearGradient id="paint6_linear" x1="5.6472" y1="10.2861" x2="11.0712" y2="12.5017" gradientUnits="userSpaceOnUse">
<stop stop-color="#B71DFF"/>
<stop offset="1" stop-color="#FF1A35"/>
</linearGradient>
<linearGradient id="paint7_linear" x1="6.74294" y1="11.4234" x2="7.78253" y2="12.9097" gradientUnits="userSpaceOnUse">
<stop stop-color="#B71DFF"/>
<stop offset="1" stop-color="#FF1A35"/>
</linearGradient>
<linearGradient id="paint8_linear" x1="6.74294" y1="13.1653" x2="7.78253" y2="14.6516" gradientUnits="userSpaceOnUse">
<stop stop-color="#B71DFF"/>
<stop offset="1" stop-color="#FF1A35"/>
</linearGradient>
<linearGradient id="paint9_linear" x1="12.355" y1="14.0362" x2="13.0565" y2="14.2869" gradientUnits="userSpaceOnUse">
<stop stop-color="#B71DFF"/>
<stop offset="1" stop-color="#FF1A35"/>
</linearGradient>
<linearGradient id="paint10_linear" x1="15.5511" y1="14.0362" x2="16.1254" y2="16.0889" gradientUnits="userSpaceOnUse">
<stop stop-color="#B71DFF"/>
<stop offset="1" stop-color="#FF1A35"/>
</linearGradient>
</defs>
</svg>
