<svg width="33" height="33" viewBox="0 0 33 33" fill="none" xmlns="http://www.w3.org/2000/svg">
<path d="M14.0439 1.1942L14.6282 2.10523C16.7652 0.766542 19.4792 0.766542 21.6162 2.10523L22.2005 1.1942C19.7147 -0.39774 16.5297 -0.39774 14.0439 1.1942Z" fill="url(#paint0_linear)"/>
<path d="M11.6308 7.57343H10.5488C10.5473 8.57433 10.7456 9.56549 11.132 10.4888L12.1307 10.0712C11.7993 9.28025 11.6294 8.43103 11.6308 7.57343Z" fill="url(#paint1_linear)"/>
<path d="M20.6181 13.5659C19.8281 13.8971 18.9797 14.0669 18.123 14.0653V15.1472C19.1234 15.1491 20.1141 14.9511 21.0368 14.5646L20.6181 13.5659Z" fill="url(#paint2_linear)"/>
<path d="M24.6151 7.57343C24.6165 8.43042 24.4467 9.2791 24.1157 10.0696L25.1144 10.4872C25.5008 9.56448 25.6989 8.57379 25.697 7.57343H24.6151Z" fill="url(#paint3_linear)"/>
<path d="M18.1228 2.16345C15.135 2.16345 12.7129 4.58554 12.7129 7.57338C12.7129 10.5612 15.135 12.9833 18.1228 12.9833C21.1093 12.98 23.5295 10.5599 23.5328 7.57338C23.5328 4.58561 21.1107 2.16345 18.1228 2.16345ZM18.1228 11.9013C15.7326 11.9013 13.7949 9.96362 13.7949 7.57338C13.7949 5.18314 15.7326 3.24544 18.1228 3.24544C20.5131 3.24544 22.4508 5.18314 22.4508 7.57338C22.4481 9.96253 20.512 11.8987 18.1228 11.9013Z" fill="url(#paint4_linear)"/>
<path d="M19.3131 7.40083L18.664 7.18443V5.79625C18.9653 5.9014 19.177 6.17345 19.205 6.49142H20.2869C20.2386 5.57843 19.565 4.82037 18.664 4.66503V4.32745H17.582V4.66503C16.6809 4.82037 16.0073 5.57843 15.959 6.49142C15.9802 7.07542 16.3723 7.58058 16.9328 7.74598L17.582 7.96238V9.34949C17.281 9.24447 17.0693 8.97296 17.041 8.65539H15.959C16.0073 9.56839 16.6809 10.3265 17.582 10.4818V10.8194H18.664V10.4818C19.565 10.3265 20.2386 9.56839 20.2869 8.65539C20.2657 8.07139 19.8736 7.56631 19.3131 7.40083ZM17.582 6.82413L17.2736 6.72026C17.1367 6.67428 17.041 6.58015 17.041 6.49142C17.0689 6.17345 17.2806 5.9014 17.582 5.79625V6.82413ZM18.664 9.35057V8.32268L18.9723 8.42655C19.1092 8.47254 19.205 8.56667 19.205 8.65539C19.177 8.97336 18.9653 9.24541 18.664 9.35057Z" fill="url(#paint5_linear)"/>
<path d="M32.5711 22.3386L30.7896 20.5571L32.5711 18.7756C32.7822 18.5644 32.7822 18.2219 32.5711 18.0107L25.5382 10.9778C25.3269 10.7666 24.9844 10.7666 24.7732 10.9778L17.8523 17.8987L10.3904 10.4368C10.1791 10.2256 9.83666 10.2256 9.6254 10.4368L2.5925 17.4697C2.38131 17.6809 2.38131 18.0234 2.5925 18.2346L6.53796 22.1801H0.27002V23.2621H7.30292C7.37623 23.2623 7.44879 23.2473 7.51607 23.2182L11.2008 21.6391H19.2048V23.8031H13.2538C12.9551 23.8031 12.7128 24.0452 12.7128 24.3441C12.7128 24.5551 12.8356 24.7469 13.0272 24.8353L20.0601 28.0812C20.237 28.1617 20.4436 28.1411 20.6011 28.0271L29.9705 21.2658L31.3949 22.6902L20.6276 31.9179H17.6786L7.49011 28.1645C7.43019 28.1424 7.36683 28.1311 7.30292 28.131H0.27002V29.213H7.20608L17.3946 32.9664C17.4545 32.9886 17.5179 32.9999 17.5818 32.9999H20.8277C20.9568 33.0001 21.0816 32.9538 21.1794 32.8695L32.5402 23.1317C32.7671 22.9373 32.7935 22.5958 32.5991 22.3689C32.5901 22.3585 32.5808 22.3483 32.5711 22.3386ZM11.0899 20.5571C11.0166 20.5569 10.944 20.5718 10.8767 20.6009L10.7453 20.655C11.2794 19.2689 12.8362 18.5782 14.2224 19.1123C14.8971 19.3723 15.4387 19.8931 15.7251 20.5571H11.0899ZM16.8812 20.5571C16.4076 18.9496 14.9297 17.8475 13.2538 17.8521C11.3394 17.8636 9.73063 19.2935 9.49448 21.1933L7.80496 21.9172L3.73995 17.8521L10.0079 11.5842L18.9808 20.5571H16.8812ZM20.2267 26.9662L15.717 24.885H19.7458C20.0445 24.885 20.2867 24.6428 20.2867 24.3441V21.8631L23.2243 24.8006L20.2267 26.9662ZM20.3376 20.384C20.5425 19.2292 21.5483 18.389 22.7212 18.3931C24.0627 18.3907 25.1522 19.4762 25.1547 20.8177C25.1569 21.9915 24.3193 22.9989 23.1648 23.2112L20.3376 20.384ZM24.0429 24.0882C24.2599 24.0001 24.4674 23.8903 24.6626 23.7609L24.1126 24.1579L24.0429 24.0882ZM29.6735 20.1432L24.9063 23.5867C26.425 22.3763 26.6751 20.1639 25.4647 18.6451C24.2544 17.1263 22.0419 16.8763 20.5232 18.0867C20.0531 18.4612 19.6869 18.9501 19.4595 19.5065L18.6172 18.6636L25.1556 12.1252L31.4235 18.3931L29.6735 20.1432Z" fill="url(#paint6_linear)"/>
<defs>
<linearGradient id="paint0_linear" x1="14.9284" y1="0.102926" x2="17.6113" y2="4.45939" gradientUnits="userSpaceOnUse">
<stop stop-color="#4BA5BB"/>
<stop offset="1" stop-color="#302E9F"/>
</linearGradient>
<linearGradient id="paint1_linear" x1="10.7204" y1="7.71564" x2="12.5196" y2="8.12474" gradientUnits="userSpaceOnUse">
<stop stop-color="#4BA5BB"/>
<stop offset="1" stop-color="#302E9F"/>
</linearGradient>
<linearGradient id="paint2_linear" x1="18.439" y1="13.6431" x2="20.6226" y2="15.3291" gradientUnits="userSpaceOnUse">
<stop stop-color="#4BA5BB"/>
<stop offset="1" stop-color="#302E9F"/>
</linearGradient>
<linearGradient id="paint3_linear" x1="24.2872" y1="7.71556" x2="26.0858" y2="8.12461" gradientUnits="userSpaceOnUse">
<stop stop-color="#4BA5BB"/>
<stop offset="1" stop-color="#302E9F"/>
</linearGradient>
<linearGradient id="paint4_linear" x1="13.8861" y1="2.69125" x2="24.8956" y2="7.30485" gradientUnits="userSpaceOnUse">
<stop stop-color="#4BA5BB"/>
<stop offset="1" stop-color="#302E9F"/>
</linearGradient>
<linearGradient id="paint5_linear" x1="16.4283" y1="4.64413" x2="21.2306" y2="5.98577" gradientUnits="userSpaceOnUse">
<stop stop-color="#4BA5BB"/>
<stop offset="1" stop-color="#302E9F"/>
</linearGradient>
<linearGradient id="paint6_linear" x1="3.78972" y1="11.3867" x2="32.3737" y2="28.4988" gradientUnits="userSpaceOnUse">
<stop stop-color="#4BA5BB"/>
<stop offset="1" stop-color="#302E9F"/>
</linearGradient>
</defs>
</svg>
