<svg width="58" height="58" viewBox="0 0 58 58" fill="none" xmlns="http://www.w3.org/2000/svg">
<path d="M42.5938 0.90625C39.7259 0.90625 36.9225 1.75666 34.538 3.34994C32.1535 4.94322 30.295 7.20781 29.1975 9.85734C28.1 12.5069 27.8129 15.4223 28.3724 18.2351C28.9319 21.0478 30.3128 23.6314 32.3407 25.6593C34.3686 27.6872 36.9522 29.0682 39.7649 29.6276C42.5777 30.1871 45.4931 29.9 48.1427 28.8025C50.7922 27.705 53.0568 25.8465 54.6501 23.462C56.2433 21.0775 57.0938 18.2741 57.0938 15.4062C57.0938 11.5606 55.5661 7.87248 52.8468 5.1532C50.1275 2.43392 46.4394 0.90625 42.5938 0.90625ZM42.5938 28.0938C40.0844 28.0938 37.6314 27.3496 35.545 25.9555C33.4585 24.5614 31.8323 22.5799 30.872 20.2615C29.9117 17.9432 29.6605 15.3922 30.15 12.931C30.6396 10.4699 31.848 8.20921 33.6223 6.43483C35.3967 4.66045 37.6574 3.45209 40.1185 2.96254C42.5797 2.47299 45.1307 2.72424 47.4491 3.68453C49.7674 4.64482 51.7489 6.271 53.143 8.35745C54.5371 10.4439 55.2813 12.8969 55.2813 15.4062C55.2813 18.7712 53.9445 21.9983 51.5652 24.3777C49.1858 26.757 45.9587 28.0938 42.5938 28.0938Z" fill="#2D4DBC"/>
<path d="M15.4063 28.0938C12.5384 28.0938 9.735 28.9442 7.35049 30.5374C4.96598 32.1307 3.10747 34.3953 2.01 37.0448C0.912533 39.6944 0.625384 42.6098 1.18487 45.4226C1.74436 48.2353 3.12535 50.8189 5.15321 52.8468C7.18107 54.8747 9.76472 56.2557 12.5774 56.8151C15.3902 57.3746 18.3056 57.0875 20.9552 55.99C23.6047 54.8925 25.8693 53.034 27.4626 50.6495C29.0558 48.265 29.9063 45.4616 29.9063 42.5938C29.9063 38.7481 28.3786 35.06 25.6593 32.3407C22.94 29.6214 19.2519 28.0938 15.4063 28.0938ZM15.4063 55.2812C12.8969 55.2812 10.4439 54.5371 8.35746 53.143C6.27101 51.7489 4.64482 49.7674 3.68454 47.449C2.72425 45.1307 2.47299 42.5797 2.96254 40.1185C3.45209 37.6574 4.66046 35.3967 6.43484 33.6223C8.20922 31.848 10.4699 30.6396 12.931 30.15C15.3922 29.6605 17.9432 29.9117 20.2616 30.872C22.5799 31.8323 24.5614 33.4585 25.9555 35.545C27.3496 37.6314 28.0938 40.0844 28.0938 42.5938C28.0938 45.9587 26.757 49.1858 24.3777 51.5652C21.9983 53.9445 18.7712 55.2812 15.4063 55.2812Z" fill="#2D4DBC"/>
<path d="M48.9375 6.34375H36.25C36.0096 6.34375 35.7791 6.43923 35.6092 6.60918C35.4392 6.77914 35.3438 7.00965 35.3438 7.25V23.5625C35.3438 23.8029 35.4392 24.0334 35.6092 24.2033C35.7791 24.3733 36.0096 24.4688 36.25 24.4688H48.9375C49.1779 24.4688 49.4084 24.3733 49.5783 24.2033C49.7483 24.0334 49.8438 23.8029 49.8438 23.5625V7.25C49.8438 7.00965 49.7483 6.77914 49.5783 6.60918C49.4084 6.43923 49.1779 6.34375 48.9375 6.34375ZM48.0312 22.6562H37.1562V8.15625H48.0312V22.6562Z" fill="#2D4DBC"/>
<path d="M38.9688 10.875H46.2188V12.6875H38.9688V10.875Z" fill="#2D4DBC"/>
<path d="M38.9688 14.5H46.2188V16.3125H38.9688V14.5Z" fill="#2D4DBC"/>
<path d="M38.9688 18.125H46.2188V19.9375H38.9688V18.125Z" fill="#2D4DBC"/>
<path d="M15.4062 38.0625C15.887 38.0625 16.348 38.2535 16.6879 38.5934C17.0278 38.9333 17.2188 39.3943 17.2188 39.875H19.0312C19.0286 39.0734 18.7604 38.2952 18.2685 37.6623C17.7765 37.0293 17.0887 36.5773 16.3125 36.3769V34.4375H14.5V36.3769C13.6559 36.606 12.923 37.1327 12.4367 37.8597C11.9504 38.5867 11.7433 39.4651 11.8537 40.3328C11.9641 41.2005 12.3845 41.999 13.0374 42.5811C13.6903 43.1631 14.5316 43.4895 15.4062 43.5C15.7647 43.5 16.1152 43.6063 16.4132 43.8055C16.7113 44.0046 16.9436 44.2877 17.0808 44.6189C17.218 44.9501 17.2539 45.3145 17.1839 45.6661C17.114 46.0177 16.9414 46.3406 16.6879 46.5941C16.4344 46.8476 16.1114 47.0202 15.7599 47.0902C15.4083 47.1601 15.0438 47.1242 14.7126 46.987C14.3814 46.8498 14.0984 46.6175 13.8992 46.3195C13.7001 46.0214 13.5938 45.671 13.5938 45.3125H11.7812C11.7839 46.1141 12.0521 46.8923 12.544 47.5252C13.036 48.1582 13.7238 48.6102 14.5 48.8106V50.75H16.3125V48.8106C17.1566 48.5815 17.8895 48.0548 18.3758 47.3278C18.8621 46.6008 19.0692 45.7224 18.9588 44.8547C18.8484 43.987 18.428 43.1885 17.7751 42.6064C17.1222 42.0244 16.2809 41.698 15.4062 41.6875C14.9255 41.6875 14.4645 41.4965 14.1246 41.1566C13.7847 40.8167 13.5938 40.3557 13.5938 39.875C13.5938 39.3943 13.7847 38.9333 14.1246 38.5934C14.4645 38.2535 14.9255 38.0625 15.4062 38.0625Z" fill="#2D4DBC"/>
<path d="M15.4063 31.7188C13.2554 31.7188 11.1528 32.3566 9.36443 33.5515C7.57604 34.7465 6.18217 36.4449 5.35906 38.4321C4.53596 40.4192 4.3206 42.6058 4.74021 44.7154C5.15983 46.8249 6.19557 48.7626 7.71647 50.2835C9.23737 51.8044 11.1751 52.8402 13.2846 53.2598C15.3942 53.6794 17.5808 53.464 19.5679 52.6409C21.5551 51.8178 23.2535 50.424 24.4485 48.6356C25.6434 46.8472 26.2813 44.7446 26.2813 42.5938C26.2813 39.7095 25.1355 36.9434 23.096 34.904C21.0566 32.8645 18.2905 31.7188 15.4063 31.7188ZM15.4063 51.6563C13.6139 51.6563 11.8617 51.1247 10.3714 50.1289C8.88108 49.1331 7.71952 47.7178 7.0336 46.0618C6.34768 44.4059 6.16821 42.5837 6.51789 40.8257C6.86757 39.0678 7.73069 37.453 8.9981 36.1856C10.2655 34.9182 11.8803 34.0551 13.6382 33.7054C15.3962 33.3557 17.2184 33.5352 18.8743 34.2211C20.5303 34.907 21.9456 36.0686 22.9414 37.5589C23.9372 39.0492 24.4688 40.8014 24.4688 42.5938C24.4688 44.9973 23.514 47.3024 21.8144 49.0019C20.1149 50.7015 17.8098 51.6563 15.4063 51.6563Z" fill="#2D4DBC"/>
<path d="M41.8052 45.4486L42.9199 46.8714C43.4092 46.4907 43.8895 46.0829 44.3517 45.6661L43.1192 44.3339C42.7024 44.7145 42.2583 45.0951 41.8052 45.4486Z" fill="#2D4DBC"/>
<path d="M46.4634 40.3914L47.9768 41.3792C48.3212 40.8626 48.6384 40.3189 48.9374 39.7751L47.3424 38.8689C47.0706 39.4126 46.7715 39.8748 46.4634 40.3914Z" fill="#2D4DBC"/>
<path d="M48.1035 37.3555L49.7619 38.0896C50.0066 37.5187 50.2332 36.9296 50.4416 36.3405L48.7288 35.7515C48.5385 36.2952 48.3301 36.839 48.1035 37.3555Z" fill="#2D4DBC"/>
<path d="M44.3428 43.1103L45.675 44.3338C46.1009 43.8806 46.5087 43.4275 46.8893 42.911L45.4575 41.7963C45.104 42.2403 44.7325 42.6844 44.3428 43.1103Z" fill="#2D4DBC"/>
<path d="M49.2188 34.1023L50.9769 34.5463C51.1219 33.9482 51.2487 33.332 51.3575 32.7338L49.545 32.4438C49.4725 32.9876 49.3547 33.5313 49.2188 34.1023Z" fill="#2D4DBC"/>
<path d="M49.771 30.7038L51.5835 30.8488C51.5835 30.2416 51.656 29.6163 51.656 29.0363H49.8435C49.8435 29.5709 49.8435 30.1419 49.771 30.7038Z" fill="#2D4DBC"/>
<path d="M35.7788 48.7199L36.3679 50.4327C36.9569 50.2334 37.546 49.9977 38.1079 49.753L37.3829 48.0946C36.8572 48.3242 36.3226 48.5326 35.7788 48.7199Z" fill="#2D4DBC"/>
<path d="M38.9688 47.3334L39.7934 48.9375C40.3372 48.6384 40.8809 48.3122 41.3975 47.9768L40.4097 46.4543C39.9294 46.7625 39.4309 47.0615 38.9688 47.3334Z" fill="#2D4DBC"/>
<path d="M29 49.8439V51.6564C29.6253 51.6564 30.2506 51.6564 30.8669 51.5839L30.7219 49.7714C30.16 49.8439 29.58 49.8439 29 49.8439Z" fill="#2D4DBC"/>
<path d="M32.4438 49.5627L32.7338 51.3752C33.3501 51.2755 33.9663 51.1486 34.5463 50.9946L34.1023 49.2365C33.5767 49.3452 33.0057 49.463 32.4438 49.5627Z" fill="#2D4DBC"/>
<path d="M22.2212 9.27995L21.6321 7.56714C21.043 7.76651 20.463 8.00214 19.8921 8.24683L20.6171 9.91433C21.1427 9.6787 21.6865 9.47026 22.2212 9.27995Z" fill="#2D4DBC"/>
<path d="M19.0313 10.6666L18.2066 9.0625C17.6629 9.36156 17.1191 9.68781 16.6025 10.0231L17.5904 11.5456C18.0707 11.2375 18.5691 10.9384 19.0313 10.6666Z" fill="#2D4DBC"/>
<path d="M16.195 12.5516L15.0803 11.1288C14.5819 11.5094 14.1016 11.9172 13.6484 12.3341L14.8809 13.6663C15.2978 13.2857 15.7419 12.905 16.195 12.5516Z" fill="#2D4DBC"/>
<path d="M29.0002 8.15625V6.34375C28.3749 6.34375 27.7496 6.34375 27.1333 6.41625L27.2783 8.22875C27.8402 8.15625 28.4202 8.15625 29.0002 8.15625Z" fill="#2D4DBC"/>
<path d="M25.5561 8.43725L25.2661 6.62476C24.6499 6.72444 24.0336 6.85132 23.4536 7.00538L23.8977 8.7635C24.4686 8.65475 24.9942 8.53694 25.5561 8.43725Z" fill="#2D4DBC"/>
<path d="M13.6574 14.8898L12.3252 13.6664C11.9083 14.1195 11.5005 14.5726 11.1108 15.0892L12.5427 16.2039C12.8962 15.7508 13.2768 15.3067 13.6574 14.8898Z" fill="#2D4DBC"/>
<path d="M8.22875 27.2962L6.41625 27.1512C6.34375 27.7584 6.34375 28.3837 6.34375 29H8.15625C8.15625 28.4291 8.15625 27.8581 8.22875 27.2962Z" fill="#2D4DBC"/>
<path d="M8.78133 23.8978L7.0232 23.4537C6.8782 24.0519 6.75133 24.6681 6.64258 25.2662L8.45508 25.5562C8.52758 25.0125 8.64539 24.4687 8.78133 23.8978Z" fill="#2D4DBC"/>
<path d="M11.5366 17.6084L10.0231 16.6206C9.67875 17.1462 9.3525 17.69 9.0625 18.2247L10.6575 19.0856C10.9294 18.5872 11.2284 18.125 11.5366 17.6084Z" fill="#2D4DBC"/>
<path d="M9.89623 20.6444L8.23779 19.9375C7.99311 20.5084 7.76654 21.0975 7.55811 21.6866L9.27092 22.2756C9.46123 21.75 9.66967 21.1609 9.89623 20.6444Z" fill="#2D4DBC"/>
</svg>
