<svg width="33" height="33" viewBox="0 0 33 33" fill="none" xmlns="http://www.w3.org/2000/svg">
<path d="M30.25 11H29.089C29.8045 10.3004 30.25 9.3269 30.25 8.25C30.25 6.12755 28.523 4.4 26.4 4.4C24.277 4.4 22.55 6.12755 22.55 8.25C22.55 9.3269 22.9955 10.3004 23.7111 11H23.2667L17.9102 7.42885C19.3363 6.86455 20.35 5.4747 20.35 3.85C20.35 1.72755 18.623 0 16.5 0C14.377 0 12.65 1.72755 12.65 3.85C12.65 5.4747 13.6637 6.86455 15.0904 7.42885L9.73335 11H9.28895C10.0045 10.3004 10.45 9.3269 10.45 8.25C10.45 6.12755 8.723 4.4 6.6 4.4C4.477 4.4 2.75 6.12755 2.75 8.25C2.75 9.3269 3.1955 10.3004 3.91105 11H2.75C1.23365 11 0 12.2337 0 13.75V22C0 22.3041 0.2464 22.55 0.55 22.55H2.75V32.45C2.75 32.7542 2.9964 33 3.3 33H6.6H9.9C10.2036 33 10.45 32.7542 10.45 32.45V15.6943L16.5 11.6611L22.55 15.6943V32.45C22.55 32.7542 22.7964 33 23.1 33H26.4H29.7C30.0036 33 30.25 32.7542 30.25 32.45V22.55H32.45C32.7536 22.55 33 22.3041 33 22V13.75C33 12.2337 31.7663 11 30.25 11ZM23.65 8.25C23.65 6.73365 24.8836 5.5 26.4 5.5C27.9164 5.5 29.15 6.73365 29.15 8.25C29.15 9.76635 27.9164 11 26.4 11C25.9815 11 25.5887 10.8988 25.2329 10.7305C25.9237 10.3593 26.4 9.6382 26.4 8.8H25.3C25.3 9.4017 24.8138 9.89175 24.2132 9.8989C23.8645 9.438 23.65 8.87095 23.65 8.25ZM3.85 8.25C3.85 6.73365 5.08365 5.5 6.6 5.5C8.11635 5.5 9.35 6.73365 9.35 8.25C9.35 8.87095 9.1355 9.438 8.7868 9.8989C8.1862 9.89175 7.7 9.4017 7.7 8.8H6.6C6.6 9.6382 7.0763 10.3593 7.7671 10.7305C7.41125 10.8988 7.01855 11 6.6 11C5.08365 11 3.85 9.76635 3.85 8.25ZM7.3601 12.1L6.6 13.6202L5.8399 12.1H7.3601ZM15.95 10.7058L9.59475 14.9424C9.44185 15.0447 9.35 15.2163 9.35 15.4V31.9H7.15V21.45H6.05V31.9H3.85V14.85H2.75V21.45H1.1V13.75C1.1 12.8403 1.8403 12.1 2.75 12.1H4.6101L6.1083 15.0959C6.20125 15.2823 6.39155 15.4 6.6 15.4C6.80845 15.4 6.99875 15.2823 7.09225 15.0959L8.5899 12.1H9.9C10.0084 12.1 10.1151 12.0676 10.2053 12.0076L15.95 8.1774V10.7058ZM13.75 3.85C13.75 2.33365 14.9837 1.1 16.5 1.1C18.0163 1.1 19.25 2.33365 19.25 3.85C19.25 5.36635 18.0163 6.6 16.5 6.6C14.9837 6.6 13.75 5.36635 13.75 3.85ZM31.9 21.45H30.25V14.85H29.15V31.9H26.95V21.45H25.85V31.9H23.65V15.4C23.65 15.2163 23.5582 15.0447 23.4053 14.9424L17.05 10.7058V8.1774L22.7948 12.0076C22.885 12.0676 22.9916 12.1 23.1 12.1H25.85V18.15H26.95V12.1H30.25C31.1597 12.1 31.9 12.8403 31.9 13.75V21.45Z" fill="url(#paint0_linear)"/>
<defs>
<linearGradient id="paint0_linear" x1="3.57831" y1="1.60975" x2="37.1565" y2="15.681" gradientUnits="userSpaceOnUse">
<stop stop-color="#4BA5BB"/>
<stop offset="1" stop-color="#302E9F"/>
</linearGradient>
</defs>
</svg>
