<svg width="21" height="27" viewBox="0 0 21 27" fill="none" xmlns="http://www.w3.org/2000/svg">
<path d="M11.8896 2.79555C11.7498 2.66049 11.5473 2.69037 11.4375 2.86195L10.5196 4.2946L10.0477 3.6334C9.93051 3.46919 9.72711 3.45275 9.59327 3.59651C9.45947 3.74032 9.44599 3.99006 9.56321 4.15421L10.1601 4.99063C10.2543 5.12259 10.3871 5.19742 10.526 5.19742C10.5303 5.19742 10.5345 5.19731 10.5387 5.19721C10.6828 5.19247 10.8179 5.10778 10.9095 4.96486L11.9438 3.35052C12.0537 3.17893 12.0295 2.93041 11.8896 2.79555Z" fill="url(#paint0_linear)"/>
<path d="M18.5896 2.71094H13.0945C12.9166 2.71094 12.7725 2.88785 12.7725 3.10618C12.7725 3.3245 12.9166 3.50141 13.0945 3.50141H18.5896C18.7675 3.50141 18.9116 3.3245 18.9116 3.10618C18.9116 2.88785 18.7675 2.71094 18.5896 2.71094Z" fill="url(#paint1_linear)"/>
<path d="M18.5896 4.40686H13.0945C12.9166 4.40686 12.7725 4.58377 12.7725 4.8021C12.7725 5.02043 12.9166 5.19734 13.0945 5.19734H18.5896C18.7675 5.19734 18.9116 5.02043 18.9116 4.8021C18.9116 4.58377 18.7675 4.40686 18.5896 4.40686Z" fill="url(#paint2_linear)"/>
<path d="M11.8896 7.56618C11.7498 7.43112 11.5473 7.461 11.4375 7.63258L10.5196 9.06529L10.0477 8.40409C9.93051 8.23988 9.72711 8.22338 9.59327 8.3672C9.45947 8.51101 9.44599 8.76075 9.56321 8.9249L10.1601 9.76133C10.2543 9.89328 10.3871 9.96811 10.526 9.96811C10.5303 9.96811 10.5345 9.96801 10.5387 9.9679C10.6828 9.96316 10.8179 9.87848 10.9095 9.73556L11.9438 8.1212C12.0537 7.94962 12.0295 7.70109 11.8896 7.56618Z" fill="url(#paint3_linear)"/>
<path d="M18.5896 7.48169H13.0945C12.9166 7.48169 12.7725 7.6586 12.7725 7.87692C12.7725 8.09525 12.9166 8.27215 13.0945 8.27215H18.5896C18.7675 8.27215 18.9116 8.09525 18.9116 7.87692C18.9116 7.6586 18.7675 7.48169 18.5896 7.48169Z" fill="url(#paint4_linear)"/>
<path d="M18.5896 9.17749H13.0945C12.9166 9.17749 12.7725 9.3544 12.7725 9.57272C12.7725 9.79105 12.9166 9.96796 13.0945 9.96796H18.5896C18.7675 9.96796 18.9116 9.79105 18.9116 9.57272C18.9116 9.3544 18.7675 9.17749 18.5896 9.17749Z" fill="url(#paint5_linear)"/>
<path d="M11.8896 12.3368C11.7498 12.2018 11.5473 12.2316 11.4375 12.4032L10.5196 13.8359L10.0477 13.1747C9.93051 13.0105 9.72702 12.994 9.59327 13.1378C9.45947 13.2816 9.44599 13.5314 9.56321 13.6955L10.1601 14.5318C10.2542 14.6639 10.387 14.7387 10.526 14.7387C10.5302 14.7387 10.5344 14.7386 10.5386 14.7385C10.6826 14.7338 10.8178 14.6492 10.9095 14.5062L11.9438 12.8918C12.0537 12.7203 12.0295 12.4717 11.8896 12.3368Z" fill="url(#paint6_linear)"/>
<path d="M18.5896 12.2523H13.0945C12.9166 12.2523 12.7725 12.4292 12.7725 12.6476C12.7725 12.8659 12.9166 13.0428 13.0945 13.0428H18.5896C18.7675 13.0428 18.9116 12.8659 18.9116 12.6476C18.9116 12.4292 18.7675 12.2523 18.5896 12.2523Z" fill="url(#paint7_linear)"/>
<path d="M18.5896 13.9482H13.0945C12.9166 13.9482 12.7725 14.1252 12.7725 14.3435C12.7725 14.5618 12.9166 14.7387 13.0945 14.7387H18.5896C18.7675 14.7387 18.9116 14.5618 18.9116 14.3435C18.9116 14.1252 18.7675 13.9482 18.5896 13.9482Z" fill="url(#paint8_linear)"/>
<path d="M11.8896 17.1076C11.7498 16.9725 11.5473 17.0023 11.4375 17.174L10.5196 18.6066L10.0477 17.9455C9.93051 17.7812 9.72702 17.7647 9.59327 17.9086C9.45947 18.0524 9.44599 18.3021 9.56321 18.4663L10.1601 19.3026C10.2542 19.4346 10.387 19.5095 10.526 19.5095C10.5302 19.5095 10.5344 19.5094 10.5386 19.5092C10.6826 19.5046 10.8178 19.42 10.9095 19.277L11.9438 17.6626C12.0537 17.491 12.0295 17.2424 11.8896 17.1076Z" fill="url(#paint9_linear)"/>
<path d="M18.5896 17.0229H13.0945C12.9166 17.0229 12.7725 17.1999 12.7725 17.4182C12.7725 17.6365 12.9166 17.8134 13.0945 17.8134H18.5896C18.7675 17.8134 18.9116 17.6365 18.9116 17.4182C18.9116 17.1999 18.7675 17.0229 18.5896 17.0229Z" fill="url(#paint10_linear)"/>
<path d="M18.9116 19.1141C18.9116 18.8958 18.7675 18.7189 18.5896 18.7189H13.0945C12.9166 18.7189 12.7725 18.8958 12.7725 19.1141C12.7725 19.3324 12.9166 19.5094 13.0945 19.5094H18.5896C18.7675 19.5094 18.9116 19.3324 18.9116 19.1141Z" fill="url(#paint11_linear)"/>
<path d="M11.8896 21.8782C11.7498 21.7431 11.5473 21.773 11.4375 21.9446L10.5196 23.3773L10.0477 22.7161C9.93051 22.5519 9.72702 22.5353 9.59327 22.6792C9.45947 22.823 9.44599 23.0728 9.56321 23.2369L10.1601 24.0733C10.2542 24.2053 10.387 24.2801 10.526 24.2801C10.5302 24.2801 10.5344 24.2801 10.5386 24.2799C10.6826 24.2753 10.8178 24.1906 10.9095 24.0476L11.9438 22.4332C12.0537 22.2616 12.0295 22.0131 11.8896 21.8782Z" fill="url(#paint12_linear)"/>
<path d="M15.2863 21.7937H13.0945C12.9166 21.7937 12.7725 21.9706 12.7725 22.1889C12.7725 22.4073 12.9166 22.5842 13.0945 22.5842H15.2863C15.4642 22.5842 15.6084 22.4073 15.6084 22.1889C15.6084 21.9706 15.4642 21.7937 15.2863 21.7937Z" fill="url(#paint13_linear)"/>
<path d="M15.2863 23.4895H13.0945C12.9166 23.4895 12.7725 23.6664 12.7725 23.8847C12.7725 24.1031 12.9166 24.28 13.0945 24.28H15.2863C15.4642 24.28 15.6084 24.1031 15.6084 23.8847C15.6084 23.6664 15.4642 23.4895 15.2863 23.4895Z" fill="url(#paint14_linear)"/>
<path d="M19.8451 0H17.8985C17.7206 0 17.5765 0.176907 17.5765 0.395235C17.5765 0.613564 17.7206 0.790471 17.8985 0.790471H19.8451C19.9043 0.790471 19.9524 0.849545 19.9524 0.922216V22.4805H17.849C17.2702 22.4805 16.7993 23.0584 16.7993 23.7687V26.2005H6.46711C6.6058 25.9348 6.68666 25.6193 6.68666 25.281V18.6466C6.85493 18.7535 7.04627 18.8143 7.24929 18.8143C7.9072 18.8143 8.44248 18.1574 8.44248 17.3499V13.5262C8.44248 12.3897 8.14818 11.311 7.59138 10.4064C7.05297 9.53176 6.28758 8.87741 5.43622 8.56391C5.39822 8.54989 5.37169 8.50457 5.37169 8.45366V8.14965C6.43538 7.5754 7.18028 6.27038 7.18028 4.75516C7.18028 3.21184 6.40764 1.88633 5.3123 1.32931V0.922216C5.3123 0.849545 5.36044 0.790471 5.41965 0.790471H16.4064C16.5843 0.790471 16.7284 0.613564 16.7284 0.395235C16.7284 0.176907 16.5843 0 16.4064 0H5.41961C5.00529 0 4.66817 0.413732 4.66817 0.922216V1.10186C4.50277 1.06729 4.33308 1.04832 4.15977 1.04832C2.49429 1.04832 1.1393 2.71126 1.1393 4.75526C1.1393 6.32819 1.94205 7.67452 3.07084 8.21199V8.45372C3.07084 8.50462 3.0443 8.54994 3.0063 8.56396C2.55741 8.72933 2.13631 8.98433 1.75475 9.32197C1.61048 9.44966 1.57784 9.69665 1.68184 9.87377C1.78588 10.0508 1.98714 10.0908 2.13146 9.9632C2.45475 9.6771 2.8114 9.46109 3.19141 9.32107C3.49971 9.20767 3.71497 8.85096 3.71497 8.45372V8.42168C3.86019 8.44808 4.00867 8.4622 4.15977 8.4622C4.3539 8.4622 4.54352 8.43875 4.72756 8.39559V8.45372C4.72756 8.85096 4.9429 9.20767 5.25111 9.32107C5.97228 9.58667 6.62087 10.1414 7.0774 10.883C7.54905 11.6492 7.79835 12.5632 7.79835 13.5263V17.3499C7.79835 17.7216 7.55205 18.0239 7.24924 18.0239C6.96688 18.0239 6.72526 17.7646 6.68661 17.4402V13.028C6.68661 12.8097 6.54247 12.6328 6.36457 12.6328C6.18667 12.6328 6.04253 12.8097 6.04253 13.028V25.281C6.04253 25.788 5.7064 26.2005 5.29328 26.2005C4.88016 26.2005 4.54403 25.788 4.54403 25.281V18.1504C4.54403 17.9321 4.39989 17.7552 4.22203 17.7552C4.22199 17.7552 4.22203 17.7552 4.22199 17.7552C4.04418 17.7552 3.89999 17.932 3.89995 18.1503L3.89849 25.281C3.89849 25.788 3.56236 26.2005 3.14924 26.2005C2.73612 26.2005 2.4 25.788 2.4 25.281V12.9607C2.4 12.7424 2.25585 12.5655 2.07795 12.5655C1.90006 12.5655 1.75591 12.7424 1.75591 12.9607L1.75338 17.3146C1.75338 17.6924 1.49162 18.0238 1.19328 18.0238C0.890472 18.0238 0.64413 17.7215 0.64413 17.3499V13.5262C0.64413 12.7003 0.831946 11.8958 1.18727 11.1997C1.28165 11.0146 1.23605 10.7707 1.08529 10.6549C0.934528 10.5392 0.735805 10.595 0.641382 10.78C0.221824 11.6021 0 12.5517 0 13.5262V17.3499C0 18.1574 0.535279 18.8143 1.19324 18.8143C1.39488 18.8143 1.58682 18.7486 1.75587 18.634V25.2809C1.75587 26.2239 2.38093 26.9909 3.1492 26.9909C3.57979 26.9909 3.96547 26.75 4.22126 26.3721C4.47705 26.75 4.86264 26.9909 5.29328 26.9909H16.6767C16.9193 26.9909 17.1671 27.0523 17.3668 26.8547C17.4606 26.7619 17.5446 26.6478 17.6319 26.5462C17.9989 26.1192 19.9082 23.8975 20.496 23.2138C20.5602 23.1392 20.5965 23.0355 20.5965 22.927V0.922216C20.5965 0.413732 20.2594 0 19.8451 0V0ZM4.15977 7.67173C2.84944 7.67173 1.78339 6.3634 1.78339 4.75521C1.78339 3.14708 2.84944 1.83874 4.15977 1.83874C5.4701 1.83874 6.53615 3.14708 6.53615 4.75521C6.53615 6.3634 5.4701 7.67173 4.15977 7.67173ZM17.4434 25.6675V23.7687C17.4434 23.4943 17.6253 23.271 17.849 23.271H19.4747L17.4434 25.6675Z" fill="url(#paint15_linear)"/>
<path d="M4.70963 6.25268C4.56801 6.12056 4.36603 6.1544 4.25834 6.32814C4.25164 6.33899 4.23652 6.35718 4.2108 6.35718C4.185 6.35718 4.16984 6.33878 4.1631 6.32782C4.05597 6.15355 3.85407 6.11898 3.71207 6.25041C3.57007 6.38189 3.54186 6.62973 3.64899 6.80394C3.78128 7.01916 3.99134 7.14758 4.2108 7.14758C4.43258 7.14758 4.6368 7.02327 4.77112 6.80647C4.87872 6.63278 4.85124 6.38479 4.70963 6.25268Z" fill="url(#paint16_linear)"/>
<defs>
<linearGradient id="paint0_linear" x1="9.95253" y1="2.99863" x2="11.9817" y2="3.73639" gradientUnits="userSpaceOnUse">
<stop stop-color="#B71DFF"/>
<stop offset="1" stop-color="#FF1A35"/>
</linearGradient>
<linearGradient id="paint1_linear" x1="13.9112" y1="2.8024" x2="14.5517" y2="4.58052" gradientUnits="userSpaceOnUse">
<stop stop-color="#B71DFF"/>
<stop offset="1" stop-color="#FF1A35"/>
</linearGradient>
<linearGradient id="paint2_linear" x1="13.9112" y1="4.49832" x2="14.5517" y2="6.27644" gradientUnits="userSpaceOnUse">
<stop stop-color="#B71DFF"/>
<stop offset="1" stop-color="#FF1A35"/>
</linearGradient>
<linearGradient id="paint3_linear" x1="9.95253" y1="7.76927" x2="11.9817" y2="8.50701" gradientUnits="userSpaceOnUse">
<stop stop-color="#B71DFF"/>
<stop offset="1" stop-color="#FF1A35"/>
</linearGradient>
<linearGradient id="paint4_linear" x1="13.9112" y1="7.57315" x2="14.5517" y2="9.35125" gradientUnits="userSpaceOnUse">
<stop stop-color="#B71DFF"/>
<stop offset="1" stop-color="#FF1A35"/>
</linearGradient>
<linearGradient id="paint5_linear" x1="13.9112" y1="9.26895" x2="14.5517" y2="11.0471" gradientUnits="userSpaceOnUse">
<stop stop-color="#B71DFF"/>
<stop offset="1" stop-color="#FF1A35"/>
</linearGradient>
<linearGradient id="paint6_linear" x1="9.95253" y1="12.5399" x2="11.9817" y2="13.2776" gradientUnits="userSpaceOnUse">
<stop stop-color="#B71DFF"/>
<stop offset="1" stop-color="#FF1A35"/>
</linearGradient>
<linearGradient id="paint7_linear" x1="13.9112" y1="12.3438" x2="14.5517" y2="14.1219" gradientUnits="userSpaceOnUse">
<stop stop-color="#B71DFF"/>
<stop offset="1" stop-color="#FF1A35"/>
</linearGradient>
<linearGradient id="paint8_linear" x1="13.9112" y1="14.0397" x2="14.5518" y2="15.8178" gradientUnits="userSpaceOnUse">
<stop stop-color="#B71DFF"/>
<stop offset="1" stop-color="#FF1A35"/>
</linearGradient>
<linearGradient id="paint9_linear" x1="9.95253" y1="17.3106" x2="11.9817" y2="18.0484" gradientUnits="userSpaceOnUse">
<stop stop-color="#B71DFF"/>
<stop offset="1" stop-color="#FF1A35"/>
</linearGradient>
<linearGradient id="paint10_linear" x1="13.9112" y1="17.1144" x2="14.5518" y2="18.8926" gradientUnits="userSpaceOnUse">
<stop stop-color="#B71DFF"/>
<stop offset="1" stop-color="#FF1A35"/>
</linearGradient>
<linearGradient id="paint11_linear" x1="13.9112" y1="18.8103" x2="14.5517" y2="20.5885" gradientUnits="userSpaceOnUse">
<stop stop-color="#B71DFF"/>
<stop offset="1" stop-color="#FF1A35"/>
</linearGradient>
<linearGradient id="paint12_linear" x1="9.95253" y1="22.0813" x2="11.9817" y2="22.819" gradientUnits="userSpaceOnUse">
<stop stop-color="#B71DFF"/>
<stop offset="1" stop-color="#FF1A35"/>
</linearGradient>
<linearGradient id="paint13_linear" x1="13.2985" y1="21.8852" x2="14.2727" y2="23.1343" gradientUnits="userSpaceOnUse">
<stop stop-color="#B71DFF"/>
<stop offset="1" stop-color="#FF1A35"/>
</linearGradient>
<linearGradient id="paint14_linear" x1="13.2985" y1="23.581" x2="14.2727" y2="24.8301" gradientUnits="userSpaceOnUse">
<stop stop-color="#B71DFF"/>
<stop offset="1" stop-color="#FF1A35"/>
</linearGradient>
<linearGradient id="paint15_linear" x1="3.82032" y1="3.12396" x2="21.2344" y2="7.87202" gradientUnits="userSpaceOnUse">
<stop stop-color="#B71DFF"/>
<stop offset="1" stop-color="#FF1A35"/>
</linearGradient>
<linearGradient id="paint16_linear" x1="3.81636" y1="6.28369" x2="4.75676" y2="6.71473" gradientUnits="userSpaceOnUse">
<stop stop-color="#B71DFF"/>
<stop offset="1" stop-color="#FF1A35"/>
</linearGradient>
</defs>
</svg>
