<svg width="57" height="56" viewBox="0 0 57 56" fill="none" xmlns="http://www.w3.org/2000/svg">
<path d="M44.5312 7.875C45.5136 7.875 46.3125 8.65987 46.3125 9.625H48.0938C48.0938 7.99837 46.9538 6.64038 45.4219 6.24925V4.375H43.6406V6.125H40.9688V9.625C40.9688 11.5553 42.5665 13.125 44.5312 13.125C45.5136 13.125 46.3125 13.9099 46.3125 14.875V16.625H44.5312C43.5489 16.625 42.75 15.8401 42.75 14.875H40.9688C40.9688 16.5016 42.1087 17.8596 43.6406 18.2507V20.125H45.4219V18.375H48.0938V14.875C48.0938 12.9447 46.496 11.375 44.5312 11.375C43.5489 11.375 42.75 10.5901 42.75 9.625V7.875H44.5312Z" fill="white"/>
<path d="M56.1094 12.25C56.1094 5.978 50.9152 0.875 44.5312 0.875C39.7245 0.875 35.5947 3.76863 33.8464 7.875H10.3188L0.890625 17.1378V55.125H45.4219V23.5804C51.39 23.1306 56.1094 18.2262 56.1094 12.25ZM9.79688 10.8622V16.625H3.93122L9.79688 10.8622ZM2.67188 53.375V18.375H11.5781V9.625H33.2764C33.0725 10.4694 32.9531 11.3453 32.9531 12.25C32.9531 15.3886 34.2543 18.235 36.3544 20.2948L32.4953 22.6537C31.8853 22.1742 31.122 21.875 30.2812 21.875C28.6265 21.875 27.2433 22.9941 26.8452 24.5H23.0298C22.6317 22.9941 21.2485 21.875 19.5938 21.875C17.629 21.875 16.0312 23.4447 16.0312 25.375C16.0312 26.1511 16.2984 26.8625 16.7357 27.4435L7.3245 38.8229L8.70675 39.9271L18.1153 28.5504C18.5669 28.7543 19.0647 28.875 19.5938 28.875C21.2485 28.875 22.6317 27.7559 23.0298 26.25H26.8452C27.2433 27.7559 28.6265 28.875 30.2812 28.875C32.246 28.875 33.8438 27.3053 33.8438 25.375C33.8438 24.9069 33.7467 24.4624 33.5757 24.0537L37.7883 21.4786C39.4627 22.6625 41.4666 23.4167 43.6397 23.5804V53.375H2.67188ZM32.0625 25.375C32.0625 26.3401 31.2636 27.125 30.2812 27.125C29.2989 27.125 28.5 26.3401 28.5 25.375C28.5 24.4099 29.2989 23.625 30.2812 23.625C31.2636 23.625 32.0625 24.4099 32.0625 25.375ZM17.8125 25.375C17.8125 24.4099 18.6114 23.625 19.5938 23.625C20.5761 23.625 21.375 24.4099 21.375 25.375C21.375 26.3401 20.5761 27.125 19.5938 27.125C18.6114 27.125 17.8125 26.3401 17.8125 25.375ZM44.5312 21.875C39.1296 21.875 34.7344 17.5569 34.7344 12.25C34.7344 6.94312 39.1296 2.625 44.5312 2.625C49.9329 2.625 54.3281 6.94312 54.3281 12.25C54.3281 17.5569 49.9329 21.875 44.5312 21.875Z" fill="white"/>
<path d="M50.7656 11.375H52.5469V13.125H50.7656V11.375Z" fill="white"/>
<path d="M36.5156 11.375H38.2969V13.125H36.5156V11.375Z" fill="white"/>
<path d="M29.9633 33.25H19.1663L8.01562 46.9429V51.625H41.8594V25.375H39.7602L29.9633 33.25ZM18.7031 49.875H15.1406V40.9946L18.7031 36.6196V49.875ZM20.4844 35H24.0469V49.875H20.4844V35ZM25.8281 35H29.3906V49.875H25.8281V35ZM31.1719 34.5397L34.7344 31.6759V49.875H31.1719V34.5397ZM9.79688 47.5571L13.3594 43.1821V49.875H9.79688V47.5571ZM40.0781 49.875H36.5156V30.2444L40.0781 27.3805V49.875Z" fill="white"/>
<path d="M16.9219 11.375H31.1719V13.125H16.9219V11.375Z" fill="white"/>
<path d="M16.9219 14.875H31.1719V16.625H16.9219V14.875Z" fill="white"/>
<path d="M13.3594 11.375H15.1406V13.125H13.3594V11.375Z" fill="white"/>
<path d="M13.3594 14.875H15.1406V16.625H13.3594V14.875Z" fill="white"/>
<path d="M13.3594 18.375H15.1406V20.125H13.3594V18.375Z" fill="white"/>
<path d="M16.9219 18.375H31.1719V20.125H16.9219V18.375Z" fill="white"/>
<path d="M4.45312 20.125H6.23438V21.875H4.45312V20.125Z" fill="white"/>
<path d="M4.45312 23.625H6.23438V25.375H4.45312V23.625Z" fill="white"/>
<path d="M4.45312 27.125H6.23438V28.875H4.45312V27.125Z" fill="white"/>
</svg>
