<svg width="33" height="33" viewBox="0 0 33 33" fill="none" xmlns="http://www.w3.org/2000/svg">
<g clip-path="url(#clip0)">
<path d="M28.2627 0H4.7373C4.61765 0 4.50289 0.047534 4.41828 0.132145C4.33367 0.216756 4.28613 0.331514 4.28613 0.451172V24.8075C4.28618 24.8821 4.30471 24.9556 4.34007 25.0213C4.37543 25.087 4.42652 25.143 4.48877 25.1842L16.2192 32.9247C16.2928 32.9732 16.379 32.999 16.4671 32.999C16.5552 32.999 16.6414 32.9732 16.715 32.9247L28.5102 25.1839C28.5728 25.1429 28.6242 25.087 28.6597 25.0212C28.6953 24.9554 28.7139 24.8818 28.7139 24.807V0.450398C28.7137 0.330874 28.666 0.216316 28.5814 0.131872C28.4969 0.0474277 28.3822 -1.75627e-07 28.2627 0V0ZM27.8115 24.5646L16.4678 32.0087L5.18848 24.5646V0.902344H27.8115V24.5646Z" fill="url(#paint0_linear)"/>
<path d="M7.0669 23.7961L16.2231 29.8377C16.2968 29.8861 16.383 29.9119 16.4711 29.9119C16.5593 29.9119 16.6455 29.8861 16.7191 29.8377L25.9321 23.7917C25.9947 23.7507 26.046 23.6947 26.0816 23.6289C26.1171 23.563 26.1358 23.4894 26.1357 23.4145V3.02852C26.1355 2.909 26.0879 2.79444 26.0033 2.71C25.9187 2.62555 25.8041 2.57812 25.6846 2.57813H7.31543C7.19577 2.57813 7.08101 2.62566 6.9964 2.71027C6.91179 2.79488 6.86426 2.90964 6.86426 3.0293V23.4199C6.86432 23.4945 6.88287 23.5679 6.91823 23.6335C6.95359 23.6992 7.00467 23.755 7.0669 23.7961ZM7.7666 3.48047H25.2334V23.1722L16.4722 28.9214L7.7666 23.1773V3.48047Z" fill="url(#paint1_linear)"/>
<path d="M16.723 26.7527L23.3539 22.4011C23.4165 22.36 23.4679 22.3041 23.5034 22.2382C23.539 22.1724 23.5576 22.0987 23.5576 22.0239V18.4117C23.5576 18.3303 23.5356 18.2505 23.4939 18.1806C23.4522 18.1107 23.3924 18.0534 23.3208 18.0147C23.2492 17.9761 23.1684 17.9575 23.0871 17.961C23.0058 17.9645 22.927 17.9899 22.8589 18.0345L16.476 22.2235L10.1421 18.0433C10.0741 17.9984 9.99516 17.9728 9.91375 17.9691C9.83234 17.9655 9.75146 17.9839 9.6797 18.0226C9.60794 18.0612 9.54798 18.1185 9.5062 18.1885C9.46442 18.2585 9.44236 18.3385 9.44238 18.4199V22.0324C9.44236 22.1071 9.46087 22.1806 9.49623 22.2463C9.5316 22.312 9.58272 22.368 9.64502 22.4091L16.227 26.7522C16.3006 26.8006 16.3868 26.8264 16.475 26.8264C16.5631 26.8264 16.6494 26.8006 16.723 26.7522V26.7527ZM10.3447 21.7896V19.2586L16.227 23.1397C16.3006 23.1882 16.3868 23.214 16.475 23.214C16.5631 23.214 16.6494 23.1882 16.723 23.1397L22.6553 19.2468V21.7798L16.476 25.8354L10.3447 21.7896Z" fill="url(#paint2_linear)"/>
<path d="M9.64502 16.2165L16.227 20.5596C16.3006 20.608 16.3868 20.6338 16.475 20.6338C16.5631 20.6338 16.6494 20.608 16.723 20.5596L23.3539 16.2087C23.4165 16.1677 23.4679 16.1118 23.5035 16.0459C23.539 15.9801 23.5576 15.9064 23.5576 15.8316V12.2204C23.5577 12.139 23.5357 12.0591 23.4941 11.9891C23.4524 11.9192 23.3925 11.8618 23.3209 11.8232C23.2493 11.7845 23.1685 11.7659 23.0872 11.7695C23.0058 11.773 22.927 11.7985 22.8589 11.8432L16.476 16.0309L10.1421 11.8509C10.0741 11.8061 9.99516 11.7804 9.91375 11.7768C9.83234 11.7731 9.75146 11.7916 9.6797 11.8302C9.60794 11.8689 9.54798 11.9262 9.5062 11.9962C9.46442 12.0661 9.44236 12.1461 9.44238 12.2276V15.8401C9.44241 15.9147 9.46093 15.9881 9.49629 16.0538C9.53166 16.1195 9.58276 16.1754 9.64502 16.2165ZM10.3447 13.066L16.227 16.9474C16.3006 16.9958 16.3868 17.0216 16.475 17.0216C16.5631 17.0216 16.6494 16.9958 16.723 16.9474L22.6553 13.0544V15.5877L16.476 19.6428L10.3447 15.5977V13.066Z" fill="url(#paint3_linear)"/>
<path d="M14.03 10.0719L13.6015 12.5704C13.5873 12.6534 13.5967 12.7387 13.6285 12.8167C13.6603 12.8947 13.7133 12.9622 13.7815 13.0116C13.8497 13.0611 13.9303 13.0904 14.0144 13.0963C14.0984 13.1023 14.1824 13.0846 14.2568 13.0453L16.4998 11.8663L18.7428 13.0453C18.8173 13.0845 18.9013 13.102 18.9852 13.0959C19.0692 13.0898 19.1498 13.0604 19.2179 13.0109C19.286 12.9614 19.3389 12.8939 19.3706 12.8159C19.4023 12.7379 19.4116 12.6526 19.3974 12.5696L18.9696 10.0719L20.7852 8.30154C20.8455 8.24281 20.8881 8.16837 20.9083 8.08664C20.9285 8.00491 20.9254 7.91917 20.8994 7.83911C20.8734 7.75905 20.8254 7.68787 20.7611 7.63364C20.6967 7.5794 20.6184 7.54427 20.5351 7.53223L18.0263 7.16768L16.9043 4.89429C16.867 4.81884 16.8094 4.75532 16.7379 4.7109C16.6664 4.66648 16.584 4.64294 16.4998 4.64294C16.4156 4.64294 16.3332 4.66648 16.2617 4.7109C16.1902 4.75532 16.1326 4.81884 16.0953 4.89429L14.9733 7.16768L12.4645 7.53223C12.3812 7.54427 12.3029 7.5794 12.2385 7.63364C12.1742 7.68787 12.1262 7.75905 12.1002 7.83911C12.0742 7.91917 12.0711 8.00491 12.0913 8.08664C12.1115 8.16837 12.1541 8.24281 12.2144 8.30154L14.03 10.0719ZM15.3378 8.02723C15.4102 8.01678 15.479 7.98885 15.5381 7.94586C15.5973 7.90287 15.6451 7.84612 15.6774 7.7805L16.4998 6.11426L17.3222 7.7805C17.3545 7.84612 17.4023 7.90287 17.4615 7.94586C17.5206 7.98885 17.5894 8.01678 17.6618 8.02723L19.5005 8.29432L18.1697 9.5906C18.1174 9.64172 18.0783 9.70479 18.0559 9.77436C18.0334 9.84393 18.0282 9.91793 18.0407 9.98996L18.3548 11.8204L16.7099 10.957C16.6451 10.923 16.573 10.9052 16.4998 10.9052C16.4266 10.9052 16.3545 10.923 16.2897 10.957L14.6454 11.8215L14.9594 9.99099C14.9719 9.91896 14.9667 9.84497 14.9442 9.77539C14.9218 9.70582 14.8827 9.64275 14.8305 9.59164L13.4996 8.29458L15.3378 8.02723Z" fill="url(#paint4_linear)"/>
</g>
<defs>
<linearGradient id="paint0_linear" x1="6.93492" y1="1.6097" x2="33.5905" y2="9.87856" gradientUnits="userSpaceOnUse">
<stop stop-color="#4BA5BB"/>
<stop offset="1" stop-color="#302E9F"/>
</linearGradient>
<linearGradient id="paint1_linear" x1="8.95394" y1="3.91148" x2="30.1558" y2="10.1757" gradientUnits="userSpaceOnUse">
<stop stop-color="#4BA5BB"/>
<stop offset="1" stop-color="#302E9F"/>
</linearGradient>
<linearGradient id="paint2_linear" x1="10.973" y1="18.3931" x2="22.6569" y2="26.1883" gradientUnits="userSpaceOnUse">
<stop stop-color="#4BA5BB"/>
<stop offset="1" stop-color="#302E9F"/>
</linearGradient>
<linearGradient id="paint3_linear" x1="10.973" y1="12.2015" x2="22.656" y2="19.9971" gradientUnits="userSpaceOnUse">
<stop stop-color="#4BA5BB"/>
<stop offset="1" stop-color="#302E9F"/>
</linearGradient>
<linearGradient id="paint4_linear" x1="13.037" y1="5.05536" x2="21.9106" y2="8.94492" gradientUnits="userSpaceOnUse">
<stop stop-color="#4BA5BB"/>
<stop offset="1" stop-color="#302E9F"/>
</linearGradient>
<clipPath id="clip0">
<rect width="33" height="33" fill="white"/>
</clipPath>
</defs>
</svg>
