<svg width="27" height="25" viewBox="0 0 27 25" fill="none" xmlns="http://www.w3.org/2000/svg">
<path d="M23.7939 5.95819L13.865 0.0887884C13.6642 -0.0295962 13.4073 -0.0295962 13.2066 0.0887884L3.27153 5.95819C3.09439 6.06004 2.98606 6.23927 2.98511 6.43239V11.5229C2.99011 15.7164 5.18603 19.6487 8.87907 22.0766L13.1762 24.8984C13.3892 25.0338 13.6702 25.0338 13.8833 24.8984L18.1804 22.0766C21.8732 19.6487 24.0693 15.7164 24.0743 11.5229V6.43239C24.077 6.23972 23.9705 6.05982 23.7939 5.95819ZM22.8613 11.5284C22.857 15.3571 20.8515 18.9468 17.4794 21.1623L13.5357 23.7527L9.59216 21.1623C6.22006 18.9468 4.21438 15.3571 4.21009 11.5284V6.74831L13.5357 1.24023L22.8613 6.74831V11.5284Z" fill="#383838"/>
<path d="M10.2932 11.8164C10.0594 11.5935 9.67466 11.5884 9.43395 11.8051C9.19324 12.0216 9.18777 12.3779 9.42157 12.6008L11.9511 15.0051C12.1861 15.224 12.5658 15.2315 12.8106 15.022L17.6441 10.8005C17.8881 10.5869 17.8991 10.2307 17.6684 10.0047C17.4379 9.77872 17.0531 9.76858 16.8091 9.9822L12.4144 13.8256L10.2932 11.8164Z" fill="#383838"/>
</svg>
