<svg xmlns="http://www.w3.org/2000/svg">
	<symbol id="globe" >
	<g>
		<path d="M23.2664 12.2346H22.8379C22.449 9.74358 21.414 7.45038 19.8268 5.62295C17.7729 3.25786 15.042 1.95544 12.1374 1.95544C9.23281 1.95544 6.50183 3.25786 4.44801 5.62295C2.84942 7.46367 1.8106 9.77668 1.42826 12.2887H1.00838C0.5277 12.2887 0.136749 12.7389 0.136749 13.2924V16.9396C0.136749 17.4929 0.5277 17.9433 1.00838 17.9433H1.68828C2.26894 20.2652 3.42678 22.3684 5.05467 23.9786C5.20208 24.1243 5.4242 24.1051 5.55091 23.9354C5.67763 23.7655 5.66078 23.5097 5.51338 23.3638C5.09221 22.9474 4.70492 22.4953 4.35316 22.0137C4.89115 21.7527 5.44086 21.5374 5.9946 21.3609C6.25756 21.8952 6.55255 22.4108 6.87978 22.9031C7.59668 23.982 8.40623 24.9313 9.26907 25.7137C8.55217 25.4719 7.8589 25.1396 7.20499 24.721C7.03506 24.6124 6.82082 24.6829 6.72651 24.8785C6.63203 25.0742 6.69319 25.3209 6.86312 25.4297C8.46739 26.4559 10.2912 26.9984 12.1374 26.9984C15.042 26.9984 17.7728 25.696 19.8268 23.3309C21.1461 21.812 22.0835 19.9706 22.5859 17.9618H23.2664C23.7471 17.9618 24.138 17.5117 24.138 16.9582V13.2382C24.138 12.6849 23.7471 12.2346 23.2664 12.2346V12.2346ZM22.1214 12.2346H19.6731C19.6438 12.0245 19.6114 11.8145 19.5737 11.6047C19.3646 10.4423 19.0377 9.33242 18.5984 8.28471C18.6632 8.26426 18.7284 8.24423 18.7929 8.22315C19.241 8.07555 19.8114 7.87482 20.3717 7.59882C21.2468 8.9822 21.8407 10.5589 22.1214 12.2346ZM18.9676 12.2887H15.3309C15.3188 12.0855 15.3056 11.8822 15.2901 11.6794C15.2203 10.7727 15.1174 9.89497 14.9848 9.05558C15.9936 8.93497 16.968 8.74626 17.9028 8.49029C18.3486 9.52113 18.6773 10.618 18.8844 11.7692C18.9156 11.9421 18.9425 12.1154 18.9676 12.2887V12.2887ZM19.329 6.19583C19.5363 6.43451 19.7332 6.68205 19.9201 6.93697C19.4514 7.15372 18.9797 7.3186 18.5993 7.44385C18.4891 7.48011 18.3781 7.5149 18.2668 7.54906C18.0443 7.08983 17.7999 6.64346 17.5321 6.21164C16.8306 5.08065 15.9987 4.0905 15.0489 3.25069C16.6492 3.79848 18.1155 4.79853 19.329 6.19583ZM13.2227 2.83216C14.7173 3.79953 15.9746 5.09457 16.9594 6.68268C17.174 7.02911 17.3726 7.38565 17.5565 7.75084C16.6872 7.97919 15.7828 8.14851 14.8473 8.25751C14.4399 6.07333 13.8228 4.19192 13.0498 2.81297C13.1075 2.81866 13.1652 2.82499 13.2227 2.83216ZM12.1374 2.76595C12.146 2.76595 12.1544 2.76616 12.163 2.76616C13.0182 4.06562 13.7019 6.0067 14.1423 8.32794C13.3904 8.39035 12.6203 8.41586 11.833 8.40258C11.2987 8.39372 10.7268 8.37454 10.1315 8.33279C10.5719 6.00944 11.2561 4.06647 12.1117 2.76616C12.1204 2.76616 12.1288 2.76595 12.1374 2.76595V2.76595ZM11.2249 2.81297C10.45 4.19508 9.83196 6.08218 9.42453 8.2727C8.541 8.18414 7.61847 8.0376 6.69557 7.79554C6.88564 7.41454 7.09183 7.04302 7.31541 6.68247C8.30021 5.09457 9.55747 3.79953 11.0521 2.83194C11.1096 2.82499 11.1672 2.81866 11.2249 2.81297ZM9.2872 9.07266C9.1559 9.90678 9.05391 10.7788 8.98469 11.6794C8.96913 11.8822 8.95594 12.0855 8.94404 12.2887H5.30682C5.33173 12.1154 5.35919 11.9421 5.39032 11.7692C5.59431 10.6348 5.91696 9.5536 6.35278 8.53583C7.34636 8.81036 8.33903 8.97419 9.2872 9.07266ZM4.94572 6.19583C6.15922 4.79853 7.62561 3.79848 9.22585 3.25069C8.27585 4.0905 7.44396 5.08065 6.74263 6.21164C6.46686 6.65633 6.21581 7.11682 5.98819 7.59081C5.43647 7.41475 4.88859 7.19989 4.35261 6.93971C4.54012 6.68395 4.7377 6.43557 4.94572 6.19583ZM3.9027 7.59966C4.47878 7.89085 5.06731 8.12953 5.65932 8.32541C5.22863 9.36131 4.90745 10.4573 4.70108 11.6047C4.66024 11.8325 4.6249 12.0606 4.59396 12.2887H2.14424C2.42111 10.5931 3.01843 8.99759 3.9027 7.59966ZM1.00838 17.1328C0.915904 17.1328 0.840644 17.0461 0.840644 16.9394V13.2922C0.840644 13.1857 0.915904 13.099 1.00838 13.099H11.1676C11.3621 13.099 11.5196 12.9177 11.5196 12.6938C11.5196 12.4701 11.3621 12.2885 11.1676 12.2885H9.64921C9.6602 12.1093 9.6721 11.9299 9.68584 11.7509C9.7556 10.844 9.85888 9.96877 9.99219 9.13486C10.6342 9.1823 11.2495 9.20338 11.823 9.21287C11.9618 9.21519 12.1002 9.21646 12.2383 9.21646C12.9327 9.21646 13.614 9.18652 14.2817 9.12832C14.4153 9.96413 14.519 10.8417 14.5889 11.7509C14.6027 11.9299 14.6147 12.1093 14.6257 12.2885H13.365C13.1707 12.2885 13.013 12.4701 13.013 12.6938C13.013 12.9177 13.1707 13.099 13.365 13.099H18.824V17.1326H1.00838V17.1328ZM18.7396 17.9431C18.5369 18.8143 18.2564 19.659 17.9006 20.4627C16.9674 20.2074 15.9953 20.0183 14.9883 19.8977C15.0894 19.264 15.1723 18.6108 15.2364 17.9433H18.7396V17.9431ZM14.5291 17.9431C14.4655 18.5868 14.3838 19.216 14.2848 19.8258C13.4835 19.7557 12.6624 19.7267 11.823 19.7408C11.2484 19.7503 10.632 19.7714 9.98889 19.819C9.89038 19.2113 9.80907 18.5845 9.74572 17.9431H14.5291ZM3.90489 21.3531C3.25117 20.3158 2.7509 19.1637 2.42258 17.9431H4.80893C5.01109 18.87 5.29492 19.7701 5.65914 20.6285C5.06786 20.8241 4.48006 21.0624 3.90489 21.3531ZM5.5359 17.9431H9.03779C9.10133 18.6051 9.18374 19.2531 9.28372 19.8816C8.33701 19.9799 7.34599 20.1437 6.35424 20.4174C6.00797 19.6273 5.73476 18.7979 5.5359 17.9431ZM11.0486 26.1192C9.7318 25.265 8.48424 23.9839 7.43883 22.4106C7.17112 22.008 6.92703 21.5885 6.70509 21.1556C7.62414 20.9152 8.54265 20.7695 9.42252 20.6812C9.56169 21.4172 9.72667 22.1219 9.91675 22.7842C10.1973 23.7602 10.6377 25.0622 11.2299 26.1403C11.1694 26.1341 11.109 26.1268 11.0486 26.1192ZM12.1374 26.1879C12.1288 26.1879 12.1204 26.1875 12.1117 26.1875C11.5576 25.3422 11.0306 24.0805 10.5851 22.5297C10.4121 21.9273 10.261 21.288 10.1317 20.6209C10.727 20.5793 11.2987 20.5599 11.833 20.5511C12.6203 20.5382 13.3903 20.5637 14.1421 20.6261C14.013 21.2914 13.8621 21.929 13.6897 22.5297C13.2443 24.0805 12.7171 25.3422 12.163 26.1875C12.1544 26.1877 12.146 26.1879 12.1374 26.1879V26.1879ZM13.0442 26.1415C13.6367 25.0632 14.0775 23.7606 14.3578 22.7842C14.5468 22.1265 14.7107 21.4274 14.8491 20.6968C15.7806 20.8054 16.681 20.9734 17.5466 21.2003C17.3309 21.6173 17.0943 22.022 16.8359 22.4106C15.7894 23.9854 14.5406 25.2676 13.2225 26.1217C13.1632 26.1289 13.1037 26.1354 13.0442 26.1415V26.1415ZM19.329 22.7578C18.1029 24.1697 16.6186 25.1758 14.9991 25.7196C15.8643 24.9361 16.6763 23.9848 17.395 22.9031C17.7138 22.4236 18.0016 21.9218 18.2593 21.4023C18.3732 21.4373 18.4867 21.4729 18.5993 21.5098C18.9793 21.635 19.4506 21.7999 19.9192 22.0165C19.7323 22.2714 19.5363 22.5193 19.329 22.7578V22.7578ZM20.3706 21.3544C19.8106 21.0788 19.2406 20.8781 18.7929 20.7307C18.7284 20.7094 18.6632 20.6896 18.5984 20.6691C18.9685 19.8045 19.2565 18.8965 19.4616 17.9618H21.8502C21.5235 19.1749 21.0258 20.3187 20.3706 21.3544ZM23.4341 16.9396C23.4341 17.0461 23.3589 17.1328 23.2664 17.1328H19.5277V13.099H23.2664C23.3589 13.099 23.4341 13.1859 23.4341 13.2924V16.9396Z"/>
		<path d="M2.79949 15.8998C2.79949 15.9597 2.7213 16.0225 2.63029 16.0225C2.53159 16.0225 2.46384 15.9597 2.46384 15.8998V13.8906C2.46384 13.8187 2.53159 13.7706 2.63029 13.7706C2.7213 13.7706 2.79949 13.8187 2.79949 13.8906V14.8097C2.84618 14.6931 2.96319 14.5822 3.12708 14.5822C3.36623 14.5822 3.57425 14.8578 3.57425 15.1901V15.8996C3.57425 15.9805 3.48855 16.0225 3.40523 16.0225C3.32722 16.0225 3.23878 15.9805 3.23878 15.8996V15.1901C3.23878 15.0553 3.13477 14.9206 3.01263 14.9206C2.90606 14.9206 2.7993 15.0222 2.7993 15.1901V15.8998H2.79949Z"/>
		<path d="M4.3129 15.5373C4.3129 15.6541 4.34934 15.6961 4.45866 15.6961H4.5601C4.65624 15.6961 4.70312 15.7771 4.70312 15.8578C4.70312 15.9417 4.65624 16.0225 4.5601 16.0225H4.45866C4.14663 16.0225 3.97762 15.8758 3.97762 15.5373V14.0852C3.97762 14.0133 4.06588 13.9655 4.14407 13.9655C4.22976 13.9655 4.31308 14.0133 4.31308 14.0852V14.6001H4.61998C4.67455 14.6001 4.70568 14.672 4.70568 14.741C4.70568 14.8126 4.67455 14.8816 4.61998 14.8816H4.31308V15.5373H4.3129Z"/>
		<path d="M5.37151 15.5373C5.37151 15.6541 5.40776 15.6961 5.51708 15.6961H5.61853C5.71467 15.6961 5.76154 15.7771 5.76154 15.8578C5.76154 15.9417 5.71467 16.0225 5.61853 16.0225H5.51708C5.20506 16.0225 5.03604 15.8758 5.03604 15.5373V14.0852C5.03604 14.0133 5.12449 13.9655 5.20249 13.9655C5.28837 13.9655 5.37151 14.0133 5.37151 14.0852V14.6001H5.67841C5.73298 14.6001 5.76411 14.672 5.76411 14.741C5.76411 14.8126 5.73298 14.8816 5.67841 14.8816H5.37151V15.5373Z"/>
		<path d="M6.41445 14.7198V14.8097C6.47414 14.6931 6.59903 14.5822 6.76548 14.5822C7.0255 14.5822 7.23096 14.8577 7.23096 15.19V15.4355C7.23096 15.7559 7.01781 16.0494 6.77592 16.0494C6.6199 16.0494 6.48458 15.9356 6.43532 15.8129V16.5614C6.43532 16.6242 6.35731 16.6841 6.26356 16.6841C6.16742 16.6841 6.09985 16.6242 6.09985 16.5614V14.7198C6.09985 14.6479 6.16999 14.6001 6.25843 14.6001C6.34944 14.6001 6.41445 14.6479 6.41445 14.7198ZM6.89549 15.19C6.89549 15.0553 6.78892 14.9206 6.65891 14.9206C6.54977 14.9206 6.43532 15.0222 6.43532 15.19V15.4894C6.43532 15.5523 6.53146 15.711 6.66403 15.711C6.78635 15.711 6.89549 15.5734 6.89549 15.4355V15.19Z"/>
		<path d="M8.18546 15.6271C8.18546 15.3638 7.56909 15.5284 7.56909 15.0283C7.56909 14.8158 7.6861 14.5822 8.03457 14.5822C8.24534 14.5822 8.44805 14.6661 8.44805 14.7768C8.44805 14.8307 8.40392 14.9625 8.32591 14.9625C8.26347 14.9625 8.1829 14.8757 8.03988 14.8757C7.90987 14.8757 7.85787 14.9505 7.85787 15.0104C7.85787 15.229 8.48192 15.0793 8.48192 15.6122C8.48192 15.8789 8.31034 16.0495 8.00344 16.0495C7.73829 16.0495 7.53284 15.9236 7.53284 15.7918C7.53284 15.729 7.57953 15.6212 7.64454 15.6212C7.71998 15.6212 7.7773 15.7559 7.99575 15.7559C8.14902 15.7559 8.18546 15.687 8.18546 15.6271Z"/>
		<path d="M9.17124 14.9626C9.17124 15.0703 9.09067 15.1661 8.9971 15.1661C8.89565 15.1661 8.82021 15.0703 8.82021 14.9626C8.82021 14.8517 8.89565 14.7589 8.9971 14.7589C9.09067 14.7589 9.17124 14.8517 9.17124 14.9626ZM9.17124 15.8368C9.17124 15.9447 9.09067 16.0405 8.9971 16.0405C8.89565 16.0405 8.82021 15.9447 8.82021 15.8368C8.82021 15.7261 8.89565 15.6333 8.9971 15.6333C9.09067 15.6333 9.17124 15.7261 9.17124 15.8368Z"/>
		<path d="M10.6561 13.8486C10.6561 13.8665 10.6535 13.8844 10.6456 13.9024L9.71211 16.0764C9.6938 16.1182 9.65223 16.1422 9.61066 16.1422C9.53522 16.1422 9.48578 16.0735 9.48578 16.0104C9.48578 15.9925 9.49109 15.9746 9.49878 15.9596L10.4323 13.7767C10.4506 13.7347 10.4871 13.7139 10.5261 13.7139C10.5885 13.7139 10.6561 13.7676 10.6561 13.8486Z"/>
		<path d="M11.4416 13.8486C11.4416 13.8665 11.4389 13.8844 11.4312 13.9024L10.4975 16.0764C10.4794 16.1182 10.4378 16.1422 10.3962 16.1422C10.3208 16.1422 10.2713 16.0735 10.2713 16.0104C10.2713 15.9925 10.2765 15.9746 10.2843 15.9596L11.2179 13.7767C11.2362 13.7347 11.2724 13.7139 11.3116 13.7139C11.3739 13.7139 11.4416 13.7676 11.4416 13.8486Z"/>
		<path d="M12.9448 15.9865C12.9265 16.0375 12.8694 16.0555 12.8122 16.0555C12.7472 16.0555 12.6899 16.0314 12.6743 15.9865L12.474 15.3337L12.2764 15.9836C12.2609 16.0314 12.1984 16.0555 12.1334 16.0555C12.0789 16.0555 12.0215 16.0375 12.0034 15.9836L11.6029 14.8009C11.5925 14.7769 11.5899 14.7589 11.5899 14.744C11.5899 14.6512 11.7199 14.5852 11.8084 14.5852C11.8525 14.5852 11.8915 14.6061 11.9045 14.648L12.1645 15.4984L12.3596 14.7587C12.3779 14.69 12.422 14.6809 12.474 14.6809C12.5235 14.6809 12.5703 14.69 12.5885 14.7587L12.7809 15.5013L13.0435 14.648C13.0565 14.609 13.0929 14.5852 13.1398 14.5852C13.223 14.5852 13.3557 14.651 13.3557 14.7469C13.3557 14.7648 13.3531 14.7857 13.3453 14.8009L12.9448 15.9865Z"/>
		<path d="M14.903 15.9865C14.8849 16.0375 14.8278 16.0555 14.7705 16.0555C14.7055 16.0555 14.6483 16.0314 14.6326 15.9865L14.4324 15.3337L14.2347 15.9836C14.2191 16.0314 14.1568 16.0555 14.0917 16.0555C14.0371 16.0555 13.98 16.0375 13.9616 15.9836L13.5612 14.8009C13.5507 14.7769 13.5482 14.7589 13.5482 14.744C13.5482 14.6512 13.6782 14.5852 13.7666 14.5852C13.8108 14.5852 13.8498 14.6061 13.8629 14.648L14.123 15.4984L14.318 14.7587C14.3361 14.69 14.3804 14.6809 14.4324 14.6809C14.4819 14.6809 14.5286 14.69 14.5467 14.7587L14.7392 15.5013L15.0019 14.648C15.0149 14.609 15.0514 14.5852 15.0981 14.5852C15.1814 14.5852 15.314 14.651 15.314 14.7469C15.314 14.7648 15.3114 14.7857 15.3035 14.8009L14.903 15.9865Z"/>
		<path d="M16.8615 15.9865C16.8434 16.0375 16.7863 16.0555 16.7289 16.0555C16.6639 16.0555 16.6068 16.0314 16.5911 15.9865L16.3909 15.3337L16.1932 15.9836C16.1776 16.0314 16.1151 16.0555 16.0501 16.0555C15.9956 16.0555 15.9384 16.0375 15.9201 15.9836L15.5197 14.8009C15.5092 14.7769 15.5067 14.7589 15.5067 14.744C15.5067 14.6512 15.6367 14.5852 15.7251 14.5852C15.7692 14.5852 15.8082 14.6061 15.8214 14.648L16.0815 15.4984L16.2765 14.7587C16.2946 14.69 16.3387 14.6809 16.3907 14.6809C16.4402 14.6809 16.4871 14.69 16.5052 14.7587L16.6976 15.5013L16.9604 14.648C16.9732 14.609 17.0098 14.5852 17.0565 14.5852C17.1397 14.5852 17.2724 14.651 17.2724 14.7469C17.2724 14.7648 17.2699 14.7857 17.262 14.8009L16.8615 15.9865Z"/>
		<path d="M22.5032 14.2516L22.1236 14.1881L21.9539 13.792C21.8642 13.5828 21.6829 13.4531 21.4804 13.4531C21.2778 13.4531 21.0964 13.583 21.0068 13.792L20.8371 14.1881L20.4575 14.2516C20.257 14.2851 20.0938 14.4437 20.0312 14.6653C19.9686 14.8871 20.0198 15.126 20.1649 15.2888L20.4395 15.597L20.3747 16.0324C20.3403 16.2621 20.4209 16.49 20.5847 16.627C20.7485 16.7641 20.9614 16.782 21.1409 16.6734L21.4804 16.4678L21.8199 16.6734C21.8979 16.7204 21.9821 16.7438 22.0661 16.7438C22.1751 16.7438 22.2835 16.7044 22.376 16.627C22.5397 16.49 22.6203 16.2621 22.586 16.0324L22.5212 15.597L22.7959 15.2888C22.9409 15.126 22.992 14.8871 22.9295 14.6653C22.8669 14.4437 22.7036 14.2851 22.5032 14.2516V14.2516ZM21.9636 15.091C21.8393 15.2308 21.7825 15.4319 21.8118 15.6291L21.8321 15.7651L21.7261 15.701C21.5723 15.6078 21.3886 15.6078 21.2346 15.701L21.1286 15.7651L21.1487 15.6291C21.1782 15.4319 21.1215 15.2308 20.9969 15.091L20.9112 14.9946L21.0297 14.9748C21.2017 14.9461 21.3504 14.8217 21.4274 14.6423L21.4804 14.5185L21.5335 14.6423C21.6104 14.8217 21.7591 14.9461 21.931 14.9748L22.0495 14.9946L21.9636 15.091Z"/>
	</g>
	<defs>
		<clipPath>
			<rect width="24.0012" height="27.6364" transform="translate(0.182983 0.606079)"/>
		</clipPath>
	</defs>
	</symbol>

	<symbol id="home" width="20" height="21" viewBox="0 0 20 21">
		<path d="M4.50305 16.9854C4.30553 17.2177 4.19622 17.5148 4.19505 17.8227C4.19953 18.488 4.69574 19.0419 5.34337 19.1045C5.99101 19.167 6.57978 18.7179 6.70591 18.0651C6.94989 18.1435 7.19578 18.2103 7.4442 18.2638C7.61051 18.7415 8.03554 19.0748 8.52974 19.1151C9.02393 19.1553 9.49516 18.895 9.73325 18.4502C10.0007 18.4359 10.2669 18.4067 10.5324 18.3659V20.0915C10.5324 20.2705 10.6743 20.4156 10.8493 20.4156H17.8203C17.9953 20.4156 18.1372 20.2705 18.1372 20.0915V14.5814H19.0878C19.3496 14.5815 19.5845 14.4169 19.679 14.1672C19.7735 13.9175 19.7082 13.6341 19.5146 13.4538L17.5947 11.7165C17.7455 11.0621 17.8212 10.3919 17.8203 9.71958C17.8151 4.88858 13.9878 0.973621 9.26492 0.968262C9.08748 0.968262 8.91193 0.975717 8.73734 0.986413H8.7234C5.88314 1.1729 3.31914 2.79091 1.88192 5.30373L1.87876 5.30729C1.87876 5.30924 1.87876 5.31151 1.87622 5.31345C-0.404041 9.30212 0.746598 14.4173 4.50178 16.9854H4.50305ZM5.46252 18.4709C5.16851 18.4674 4.91549 18.2574 4.85144 17.9639C4.7874 17.6703 4.92917 17.3703 5.19382 17.2392H5.19604C5.2791 17.1978 5.3701 17.1756 5.46252 17.1744C5.81252 17.1744 6.09625 17.4646 6.09625 17.8227C6.09625 18.1807 5.81252 18.4709 5.46252 18.4709ZM8.63119 18.4709C8.28119 18.4709 7.99745 18.1807 7.99745 17.8227C7.99745 17.4646 8.28119 17.1744 8.63119 17.1744C8.98119 17.1744 9.26492 17.4646 9.26492 17.8227C9.26492 18.1807 8.98119 18.4709 8.63119 18.4709ZM13.3842 19.7674V17.1744C13.3842 16.6374 13.8098 16.202 14.3348 16.202C14.8598 16.202 15.2854 16.6374 15.2854 17.1744V19.7674H13.3842ZM17.8203 13.9332C17.6453 13.9332 17.5035 14.0783 17.5035 14.2573V19.7674H15.9191V17.1744C15.9191 16.2794 15.2098 15.5538 14.3348 15.5538C13.4598 15.5538 12.7505 16.2794 12.7505 17.1744V19.7674H11.1661V14.2573C11.1661 14.0783 11.0243 13.9332 10.8493 13.9332L9.57545 13.9397L14.3285 9.63822H14.3304C14.3345 9.63822 14.3405 9.64049 14.3418 9.63822L19.0878 13.9332H17.8203ZM17.1866 9.71958C17.1864 10.2239 17.1401 10.7271 17.0481 11.2225L14.7683 9.15917C14.526 8.92668 14.1494 8.92498 13.9051 9.15528L13.4995 9.52251C13.4957 9.52251 13.4922 9.52251 13.4884 9.52251C13.4137 9.53389 13.3375 9.52892 13.2647 9.50793C13.1539 9.47882 13.0702 9.38553 13.0515 9.27002C13.0515 9.13097 13.2416 8.97053 13.4095 8.82921L13.4846 8.76439C14.4459 7.9122 14.853 6.5771 14.536 5.31702C14.4495 5.01985 14.3423 4.72944 14.215 4.44804C14.0893 4.17501 13.9864 3.89158 13.9073 3.60079C13.8697 3.44479 13.8529 3.28429 13.8576 3.12368C15.9453 4.64175 17.1857 7.09945 17.1866 9.71958V9.71958ZM13.2701 2.73279C13.2016 3.07106 13.2091 3.42083 13.292 3.75572C13.3788 4.08257 13.4932 4.40108 13.6339 4.70767C13.7482 4.95994 13.8447 5.22022 13.9229 5.48653C14.17 6.50344 13.8427 7.5765 13.074 8.26913L13.0043 8.32877C12.6813 8.53361 12.4655 8.87612 12.4165 9.26159C12.4256 9.59892 12.6158 9.90361 12.9111 10.0541L9.14895 13.4603C8.95933 13.6421 8.8975 13.924 8.99297 14.1713C9.08845 14.4186 9.32186 14.5812 9.58179 14.5814H10.5324V17.7105C10.3211 17.7457 10.1088 17.772 9.89549 17.7893C9.88082 17.1258 9.37776 16.5814 8.73105 16.529C8.08434 16.4766 7.50376 16.9333 7.38717 17.586C7.13552 17.5253 6.88726 17.4506 6.64348 17.3624C6.45712 16.8604 5.98749 16.5278 5.46252 16.5262C5.33184 16.5279 5.20224 16.5506 5.07848 16.5936C1.54713 14.3502 0.31655 9.69313 2.26216 5.93544C2.48524 6.07784 2.7081 6.21992 2.93075 6.36167C3.20611 6.53637 3.48052 6.72793 3.54167 6.9775C3.55615 7.28166 3.4538 7.57955 3.25649 7.80758L3.21308 7.8724C2.93654 8.20294 2.76413 8.61125 2.71845 9.04378C2.70958 9.6379 3.09394 10.0687 3.43457 10.4489C3.55086 10.5785 3.66113 10.7026 3.75366 10.8287C4.06747 11.2577 4.20762 11.7939 4.14499 12.3259C4.1377 12.3907 4.12756 12.4523 4.11774 12.5151C4.07723 12.7161 4.06506 12.922 4.08161 13.1264C4.10903 13.5236 4.39399 13.8523 4.77619 13.9277C4.80647 13.9314 4.83694 13.9332 4.86744 13.9332C5.40612 13.9332 5.68401 13.3173 5.79238 13.0781C5.95178 12.7205 6.15401 12.3845 6.39443 12.0779C6.56205 11.8705 6.74837 11.6808 6.94577 11.4799C7.2148 11.2198 7.46297 10.9379 7.68788 10.6372C8.08174 10.0748 8.37041 9.2133 8.00062 8.48597C7.73379 8.04303 7.34422 7.69125 6.88145 7.47535C6.7189 7.37812 6.56458 7.28801 6.42611 7.18656C6.01231 6.8822 5.69676 6.45841 5.51987 5.96948C5.43029 5.74756 5.4 5.50527 5.4321 5.26743C5.45808 5.07816 5.57153 4.91326 5.73693 4.82435C5.92939 4.77049 6.13178 4.76538 6.32662 4.80944C6.62339 4.87037 6.93048 4.85252 7.2186 4.75758C7.58737 4.57431 7.87895 4.26085 8.0396 3.875C8.41376 3.15179 8.73028 2.3989 8.98608 1.62364C9.07892 1.6204 9.17145 1.61651 9.26492 1.61651C10.6736 1.61525 12.0568 2.00076 13.2701 2.73279V2.73279ZM8.29531 1.67906C8.06774 2.32778 7.79539 2.95914 7.48033 3.56838C7.38363 3.81425 7.21003 4.02044 6.98665 4.15471C6.79539 4.20487 6.59533 4.20875 6.40235 4.16606C6.09661 4.10189 5.77954 4.1243 5.48533 4.23088C5.12568 4.40433 4.87272 4.74796 4.80914 5.14945C4.75526 5.50074 4.795 5.8604 4.92416 6.19053C5.14531 6.80259 5.54023 7.33308 6.05823 7.71391C6.22173 7.83318 6.39538 7.93626 6.56522 8.03609C6.91869 8.19652 7.22135 8.4547 7.43914 8.78157C7.67742 9.2509 7.45846 9.85117 7.1755 10.2567C6.97061 10.5285 6.74492 10.7833 6.50058 11.0187C6.30095 11.2219 6.09435 11.4319 5.90645 11.6646C5.63143 12.0135 5.40012 12.3961 5.2179 12.8036C5.02207 13.235 4.90388 13.2898 4.85287 13.2827C4.80185 13.2755 4.72612 13.1712 4.71091 13.0467C4.70272 12.9026 4.71338 12.7581 4.7426 12.6169C4.75401 12.5453 4.7651 12.4733 4.77429 12.4023C4.8553 11.7043 4.67058 11.0012 4.25843 10.4388C4.14816 10.2887 4.02268 10.1471 3.90132 10.0119C3.61614 9.69235 3.34743 9.39059 3.35219 9.05675C3.40212 8.75426 3.53384 8.47211 3.73243 8.24223L3.77679 8.1774C4.08895 7.80064 4.22748 7.30467 4.15703 6.81609C3.99769 6.37597 3.67837 6.01578 3.26568 5.81066C3.03817 5.66631 2.81066 5.52154 2.58315 5.37633C3.85286 3.33358 5.94816 1.97767 8.29658 1.67906H8.29531Z"/>
		<path d="M10.3444 6.97521C10.4284 6.9885 10.5143 6.99466 10.5998 7.00017C10.7047 7.00083 10.8089 7.01665 10.9094 7.04717C10.9741 7.07697 11.0359 7.11311 11.0938 7.1551C11.1611 7.20188 11.231 7.24453 11.3033 7.28281C11.4241 7.34647 11.5577 7.38053 11.6936 7.38231C11.8452 7.38495 11.9928 7.33233 12.11 7.23386C12.3004 7.05497 12.3825 6.78546 12.3251 6.5276C12.301 6.41151 12.2648 6.29839 12.2171 6.19019C12.2019 6.15129 12.1854 6.11272 12.1721 6.0735C12.1035 5.87277 12.0913 5.65638 12.1369 5.44892C12.2076 5.13128 12.2779 4.56115 11.9563 4.31222C11.7468 4.16612 11.4701 4.17066 11.2652 4.32357C10.9169 4.54637 10.6034 4.82162 10.3352 5.14003C10.2224 5.26061 10.1134 5.37826 10.0057 5.48036C9.74291 5.6791 9.59397 5.99851 9.60834 6.33248C9.69024 6.68811 9.98821 6.9483 10.3444 6.97521V6.97521ZM10.4369 5.9552C10.5529 5.845 10.6714 5.71827 10.7934 5.58829C11.017 5.32245 11.2756 5.08966 11.5618 4.89662C11.5649 5.03417 11.5505 5.17156 11.519 5.30533C11.4472 5.63281 11.4668 5.97432 11.5754 6.29099C11.5926 6.34026 11.6119 6.38823 11.6315 6.43749C11.6615 6.50472 11.6852 6.57472 11.7022 6.64655C11.7111 6.69485 11.7057 6.73439 11.7107 6.73245C11.6676 6.73511 11.6245 6.72498 11.5869 6.70328C11.5364 6.67571 11.4874 6.64541 11.4401 6.61252C11.3458 6.54509 11.2447 6.48815 11.1385 6.44268C10.9779 6.38624 10.8096 6.35605 10.6397 6.35322C10.5732 6.34901 10.5067 6.34512 10.4414 6.33475C10.361 6.33133 10.2857 6.29331 10.2342 6.23006C10.2313 6.2132 10.2383 6.14384 10.4376 5.9552H10.4369Z"/>
		<path d="M1.02576 17.8226C1.02576 18.5387 1.59323 19.1191 2.29324 19.1191C2.99326 19.1191 3.56073 18.5387 3.56073 17.8226C3.56073 17.1066 2.99326 16.5261 2.29324 16.5261C1.59323 16.5261 1.02576 17.1066 1.02576 17.8226ZM2.92699 17.8226C2.92699 18.1806 2.64325 18.4709 2.29324 18.4709C1.94324 18.4709 1.6595 18.1806 1.6595 17.8226C1.6595 17.4646 1.94324 17.1744 2.29324 17.1744C2.64325 17.1744 2.92699 17.4646 2.92699 17.8226Z"/>
	</symbol>

	<symbol id="about" width="20" height="21" viewBox="0 0 20 21">
		<path d="M10.1217 0.968262C4.88709 0.968262 0.628815 5.33008 0.628815 10.6919C0.628815 16.0538 4.88709 20.4156 10.1217 20.4156C15.3562 20.4156 19.6145 16.0538 19.6145 10.6919C19.6145 5.33008 15.3562 0.968262 10.1217 0.968262ZM10.1217 19.6677C5.29017 19.6677 1.35903 15.6409 1.35903 10.6919C1.35903 5.74297 5.29017 1.71624 10.1217 1.71624C14.9532 1.71624 18.8843 5.74297 18.8843 10.6919C18.8843 15.6409 14.9532 19.6677 10.1217 19.6677Z"/>
		<path d="M10.1217 14.8058C9.91977 14.8058 9.75656 14.973 9.75656 15.1798V15.9278C9.75656 16.1346 9.91977 16.3017 10.1217 16.3017C10.3236 16.3017 10.4868 16.1346 10.4868 15.9278V15.1798C10.4868 14.973 10.3236 14.8058 10.1217 14.8058Z"/>
		<path d="M10.1629 4.33448C10.149 4.33448 10.1352 4.33411 10.1209 4.33411C9.34835 4.33411 8.62178 4.63891 8.07083 5.19577C7.51002 5.76237 7.20078 6.51894 7.20078 7.32601C7.20078 7.53283 7.36398 7.7 7.56588 7.7C7.76779 7.7 7.93099 7.53283 7.93099 7.32601C7.93099 6.7209 8.16284 6.15318 8.58344 5.72833C9.00442 5.30311 9.56486 5.06824 10.1531 5.08246C11.3072 5.09891 12.2959 6.11167 12.3119 7.29385C12.3225 8.07324 11.9472 8.79055 11.3075 9.21315C10.3363 9.85492 9.75654 10.9888 9.75654 12.2469V13.3098C9.75654 13.5166 9.91975 13.6838 10.1217 13.6838C10.3236 13.6838 10.4868 13.5166 10.4868 13.3098V12.2469C10.4868 11.2589 10.9526 10.3377 11.7033 9.84145C12.5558 9.27823 13.0564 8.32194 13.0422 7.28338C13.0203 5.68009 11.7285 4.35692 10.1629 4.33448Z"/>
	</symbol>

	<symbol id="tarifs" width="20" height="21" viewBox="0 0 20 21">
	<g clip-path="url(#clip0)">
		<path d="M3.10633 20.4132H15.1488C15.6738 20.4132 16.0995 19.9779 16.0995 19.4408V4.207H17.3672C17.7173 4.207 18.001 3.91679 18.001 3.55876V2.58648C17.9999 1.6918 17.2911 0.966859 16.4164 0.96582H3.10633C2.58118 0.96582 2.15555 1.40114 2.15555 1.93825V19.4408C2.15555 19.9779 2.58118 20.4132 3.10633 20.4132V20.4132ZM16.4164 1.61406C16.9414 1.61406 17.3672 2.04938 17.3672 2.58648V3.55876H4.69078V2.58648C4.68962 2.23455 4.57545 1.893 4.36568 1.61406H16.4164ZM2.78936 1.93825C2.78936 1.75916 2.93123 1.61406 3.10633 1.61406C3.63134 1.61406 4.05697 2.04938 4.05697 2.58648V3.55876C4.05697 3.91679 4.34073 4.207 4.69078 4.207H15.4657V19.4408C15.4657 19.6199 15.3238 19.765 15.1488 19.765H3.10633C2.93123 19.765 2.78936 19.6199 2.78936 19.4408V1.93825Z"/>
		<path d="M4.69078 9.06882H6.59221C6.94226 9.06882 7.22616 8.7786 7.22616 8.42058V8.09654C7.22616 7.91745 7.08414 7.77234 6.90918 7.77234C6.73423 7.77234 6.59221 7.91745 6.59221 8.09654V8.42058H4.69078V6.47587H5.64157C5.81652 6.47587 5.9584 6.33077 5.9584 6.15183C5.9584 5.97274 5.81652 5.82764 5.64157 5.82764H4.69078C4.34073 5.82764 4.05698 6.11785 4.05698 6.47587V8.42058C4.05698 8.7786 4.34073 9.06882 4.69078 9.06882Z"/>
		<path d="M4.69078 13.6067H6.59221C6.94226 13.6067 7.22616 13.3165 7.22616 12.9584V11.0137C7.22616 10.6557 6.94226 10.3654 6.59221 10.3654H4.69078C4.34073 10.3654 4.05698 10.6557 4.05698 11.0137V12.9584C4.05698 13.3165 4.34073 13.6067 4.69078 13.6067V13.6067ZM4.69078 11.0137H6.59221V12.9584H4.69078V11.0137Z"/>
		<path d="M4.69078 18.1443H6.59221C6.94226 18.1443 7.22616 17.854 7.22616 17.496V15.5513C7.22616 15.1933 6.94226 14.9031 6.59221 14.9031H4.69078C4.34073 14.9031 4.05698 15.1933 4.05698 15.5513V17.496C4.05698 17.854 4.34073 18.1443 4.69078 18.1443ZM4.69078 15.5513H6.59221V17.496H4.69078V15.5513Z"/>
		<path d="M8.49376 7.12349H10.0782C10.2533 7.12349 10.3952 6.97854 10.3952 6.79979C10.3952 6.6209 10.2533 6.47595 10.0782 6.47595H8.49376C8.31867 6.47595 8.17679 6.6209 8.17679 6.79979C8.17679 6.97854 8.31867 7.12349 8.49376 7.12349Z"/>
		<path d="M11.3459 7.12349H14.515C14.69 7.12349 14.8319 6.97854 14.8319 6.79979C14.8319 6.6209 14.69 6.47595 14.515 6.47595H11.3459C11.1709 6.47595 11.029 6.6209 11.029 6.79979C11.029 6.97854 11.1709 7.12349 11.3459 7.12349V7.12349Z"/>
		<path d="M8.49376 8.41987H11.6628C11.8378 8.41987 11.9798 8.27492 11.9798 8.09618C11.9798 7.91729 11.8378 7.77234 11.6628 7.77234H8.49376C8.31867 7.77234 8.17679 7.91729 8.17679 8.09618C8.17679 8.27492 8.31867 8.41987 8.49376 8.41987Z"/>
		<path d="M14.515 7.77234H12.9304C12.7555 7.77234 12.6136 7.91729 12.6136 8.09618C12.6136 8.27492 12.7555 8.41987 12.9304 8.41987H14.515C14.69 8.41987 14.8318 8.27492 14.8318 8.09618C14.8318 7.91729 14.69 7.77234 14.515 7.77234V7.77234Z"/>
		<path d="M8.49376 11.6612H10.0782C10.2533 11.6612 10.3952 11.5163 10.3952 11.3374C10.3952 11.1586 10.2533 11.0137 10.0782 11.0137H8.49376C8.31867 11.0137 8.17679 11.1586 8.17679 11.3374C8.17679 11.5163 8.31867 11.6612 8.49376 11.6612V11.6612Z"/>
		<path d="M14.515 11.0137H11.3459C11.1709 11.0137 11.029 11.1586 11.029 11.3374C11.029 11.5163 11.1709 11.6612 11.3459 11.6612H14.515C14.69 11.6612 14.8319 11.5163 14.8319 11.3374C14.8319 11.1586 14.69 11.0137 14.515 11.0137V11.0137Z"/>
		<path d="M8.49376 12.9577H11.6628C11.8378 12.9577 11.9798 12.8128 11.9798 12.6339C11.9798 12.4551 11.8378 12.3102 11.6628 12.3102H8.49376C8.31867 12.3102 8.17679 12.4551 8.17679 12.6339C8.17679 12.8128 8.31867 12.9577 8.49376 12.9577Z"/>
		<path d="M14.515 12.3102H12.9304C12.7555 12.3102 12.6136 12.4551 12.6136 12.6339C12.6136 12.8128 12.7555 12.9577 12.9304 12.9577H14.515C14.69 12.9577 14.8318 12.8128 14.8318 12.6339C14.8318 12.4551 14.69 12.3102 14.515 12.3102V12.3102Z"/>
		<path d="M8.49376 16.1989H10.0782C10.2533 16.1989 10.3952 16.054 10.3952 15.8752C10.3952 15.6963 10.2533 15.5514 10.0782 15.5514H8.49376C8.31867 15.5514 8.17679 15.6963 8.17679 15.8752C8.17679 16.054 8.31867 16.1989 8.49376 16.1989V16.1989Z"/>
		<path d="M14.515 15.5514H11.3459C11.1709 15.5514 11.029 15.6963 11.029 15.8752C11.029 16.054 11.1709 16.1989 11.3459 16.1989H14.515C14.69 16.1989 14.8319 16.054 14.8319 15.8752C14.8319 15.6963 14.69 15.5514 14.515 15.5514Z"/>
		<path d="M8.49376 17.4953H11.6628C11.8378 17.4953 11.9798 17.3504 11.9798 17.1716C11.9798 16.9927 11.8378 16.8478 11.6628 16.8478H8.49376C8.31867 16.8478 8.17679 16.9927 8.17679 17.1716C8.17679 17.3504 8.31867 17.4953 8.49376 17.4953Z"/>
		<path d="M14.515 16.8478H12.9304C12.7555 16.8478 12.6136 16.9927 12.6136 17.1716C12.6136 17.3504 12.7555 17.4953 12.9304 17.4953H14.515C14.69 17.4953 14.8318 17.3504 14.8318 17.1716C14.8318 16.9927 14.69 16.8478 14.515 16.8478V16.8478Z"/>
		<path d="M5.54875 6.89504C5.42443 6.77219 5.2267 6.77397 5.10441 6.8989C4.98226 7.02398 4.98052 7.22606 5.10063 7.35336L5.73444 8.0016C5.79392 8.06228 5.87443 8.09656 5.95843 8.09656H5.98483C6.07768 8.08854 6.1624 8.03928 6.21651 7.96169L7.80095 5.69279C7.86682 5.59857 7.87842 5.47557 7.83142 5.37023C7.78456 5.26474 7.6862 5.19293 7.57349 5.1818C7.46077 5.17067 7.3508 5.22201 7.28509 5.31622L5.91824 7.27354L5.54875 6.89504Z"/>
		</g>
		<defs>
		<clipPath >
		<rect width="19.0145" height="19.4474"  transform="translate(0.558624 0.96582)"/>
		</clipPath>
		</defs>
	</symbol>

	<symbol id="bot" width="20" height="21" viewBox="0 0 20 21">
	<g>
		<path d="M9.10957 9.5507C7.8057 9.94202 6.9093 11.1645 6.90739 12.5543V15.3724C6.90739 15.5453 7.04441 15.6856 7.21346 15.6856H12.7245C12.8936 15.6856 13.0306 15.5453 13.0306 15.3724V12.5543C13.0286 11.1645 12.1322 9.94202 10.8285 9.5507C11.7577 9.13465 12.2745 8.10929 12.0667 7.09379C11.8589 6.0781 10.9834 5.35083 9.96896 5.35083C8.95452 5.35083 8.07911 6.0781 7.87126 7.09379C7.66347 8.10929 8.18027 9.13465 9.10957 9.5507ZM12.4183 12.5543V15.0592H7.51971V12.5543C7.51971 11.1707 8.61622 10.0491 9.96896 10.0491C11.3215 10.0491 12.4183 11.1707 12.4183 12.5543ZM9.96896 5.97846C10.8144 5.97846 11.4998 6.67943 11.4998 7.54412C11.4998 8.40882 10.8144 9.10972 9.96896 9.10972C9.12345 9.10972 8.43815 8.40882 8.43815 7.54412C8.43931 6.6798 9.124 5.97953 9.96896 5.97846Z"/>
		<path d="M3.41281 5.71809L3.40182 5.7444L3.52938 5.79959C3.62361 5.85684 3.72508 5.9006 3.83115 5.92961L3.96601 5.98768L3.97706 5.96075C4.03495 5.97092 4.09332 5.97682 4.15195 5.97839C4.36986 5.97726 4.58366 5.91636 4.7707 5.80147L5.85568 6.91121L6.28869 6.4684L5.20359 5.35873C5.3158 5.1675 5.37553 4.94901 5.37657 4.72589C5.37516 4.66593 5.36927 4.60616 5.35932 4.54721L5.38566 4.53572L5.32863 4.39772C5.30051 4.2893 5.25773 4.18546 5.20169 4.0889L5.14785 3.95869L5.12213 3.96999C5.09009 3.92435 5.05528 3.88103 5.0179 3.84028C4.53333 3.36672 3.7705 3.36672 3.28605 3.84028C2.80799 4.32935 2.80799 5.12229 3.28605 5.61136C3.32595 5.64979 3.36831 5.68538 3.41281 5.71809ZM3.71906 4.28308C3.87265 4.12029 4.10038 4.05487 4.31443 4.11232C4.52848 4.16964 4.69569 4.34047 4.75192 4.55951C4.8079 4.77862 4.74394 5.01117 4.58483 5.16863C4.34248 5.40538 3.9611 5.40538 3.71906 5.16863C3.47991 4.92396 3.47991 4.52768 3.71906 4.28308Z"/>
		<path d="M16.5245 15.6341L16.536 15.6063L16.3648 15.5325C16.3047 15.5 16.2417 15.4727 16.177 15.4512L15.972 15.363L15.9566 15.4001C15.6851 15.3624 15.4091 15.4155 15.1697 15.5518L14.0823 14.4395L13.6493 14.8823L14.7344 15.9921C14.6221 16.1832 14.5624 16.4018 14.5613 16.6248C14.5631 16.6849 14.5686 16.7446 14.5786 16.8036L14.5521 16.815L14.6092 16.9529C14.6376 17.0614 14.6802 17.1651 14.7362 17.2616L14.7901 17.392L14.8159 17.3808C14.8479 17.4264 14.8826 17.4696 14.9203 17.5104C15.2278 17.836 15.6831 17.9664 16.1112 17.8521C16.5394 17.7373 16.874 17.3953 16.9857 16.9575C17.0979 16.5195 16.9702 16.0538 16.652 15.7392C16.6121 15.7011 16.5695 15.6659 16.5245 15.6341ZM16.2184 17.0677C15.9762 17.3043 15.5948 17.3043 15.3525 17.0677C15.1133 16.823 15.1133 16.4265 15.3524 16.182C15.5917 15.9373 15.9793 15.9373 16.2184 16.182C16.4577 16.4265 16.4577 16.823 16.2184 17.0677Z"/>
		<path d="M18.2355 9.42291C18.1767 9.42442 18.118 9.43063 18.06 9.44099L18.0435 9.401L17.7762 9.51683C17.7646 9.52179 17.7529 9.52644 17.7415 9.5319L17.4779 9.64554L17.4945 9.68528C17.2781 9.85422 17.1232 10.0926 17.0543 10.3623H15.4801V10.9886H17.0543C17.1232 11.2587 17.2785 11.4975 17.4958 11.6668L17.4791 11.7066L17.7429 11.8202C17.754 11.8255 17.7657 11.8302 17.7774 11.8353L18.0435 11.9499L18.06 11.9097C18.5132 11.9775 18.9653 11.7805 19.2315 11.3992C19.4975 11.0178 19.533 10.5165 19.3231 10.1001C19.1133 9.68365 18.6936 9.42241 18.2355 9.42291ZM18.2355 11.3016C17.8973 11.3016 17.6231 11.0213 17.6231 10.6754C17.6231 10.3296 17.8973 10.0491 18.2355 10.0491C18.5736 10.0491 18.8477 10.3296 18.8477 10.6754C18.8477 11.0213 18.5736 11.3016 18.2355 11.3016Z"/>
		<path d="M14.5521 4.53572L14.5786 4.54721C14.5686 4.60616 14.5631 4.66593 14.5613 4.72589C14.5624 4.94901 14.6221 5.1675 14.7344 5.35873L13.6493 6.4684L14.0823 6.91121L15.1673 5.80147C15.3541 5.91636 15.568 5.97726 15.786 5.97839C15.8447 5.97682 15.9031 5.97092 15.9609 5.96075L15.972 5.98768L16.107 5.92961C16.2128 5.9006 16.3143 5.85684 16.4085 5.79959L16.536 5.7444L16.5252 5.71809C16.5696 5.68538 16.6121 5.64979 16.652 5.61136C17.13 5.12229 17.13 4.32935 16.652 3.84028C16.1674 3.36672 15.4046 3.36672 14.9203 3.84028C14.8826 3.88103 14.8479 3.92435 14.8159 3.96999L14.7901 3.95869L14.7362 4.08915C14.6802 4.18558 14.6376 4.2893 14.6092 4.39772L14.5521 4.53572ZM15.3531 4.28308C15.5067 4.12029 15.7344 4.05487 15.9486 4.11232C16.1626 4.16964 16.33 4.34047 16.386 4.55951C16.4421 4.77862 16.378 5.01117 16.219 5.16863C15.9767 5.40538 15.5954 5.40538 15.3531 5.16863C15.1141 4.92396 15.1141 4.52768 15.3531 4.28308Z"/>
		<path d="M12.5029 3.65929L12.7405 3.08313L13.251 3.30288L13.0133 3.8791L12.5029 3.65929Z"/>
		<path d="M11.4879 3.21362L11.726 2.63721L12.2368 2.85733L11.9988 3.43362L11.4879 3.21362Z"/>
		<path d="M13.5235 4.09996L13.7611 3.52393L14.2714 3.74355L14.0339 4.31946L13.5235 4.09996Z"/>
		<path d="M17.0484 12.7507L17.2639 12.229L17.828 12.4723L17.6127 12.9939L17.0484 12.7507Z"/>
		<path d="M16.1873 14.84L16.4027 14.318L16.9669 14.5612L16.7514 15.083L16.1873 14.84Z"/>
		<path d="M16.6177 13.7953L16.8332 13.2738L17.3973 13.5169L17.1819 14.0385L16.6177 13.7953Z"/>
		<path d="M6.66943 18.0478L6.90687 17.4717L7.41728 17.6914L7.17979 18.2675L6.66943 18.0478Z"/>
		<path d="M7.68987 18.4888L7.92742 17.9124L8.43765 18.1323L8.20028 18.7084L7.68987 18.4888Z"/>
		<path d="M5.65831 17.6117L5.89636 17.0353L6.40733 17.2554L6.16934 17.8318L5.65831 17.6117Z"/>
		<path d="M5.38562 16.815L5.35928 16.8036C5.36923 16.7446 5.37512 16.6849 5.37653 16.6248C5.37549 16.4018 5.31576 16.1832 5.20355 15.9921L6.28865 14.8823L5.85564 14.4395L4.76815 15.5518C4.52875 15.4155 4.25282 15.3624 3.98132 15.4001L3.96597 15.363L3.76095 15.4515C3.69619 15.4727 3.63321 15.5 3.57311 15.5325L3.40179 15.6063L3.41333 15.6341C3.36833 15.6659 3.32592 15.7011 3.28602 15.7392C2.96774 16.0538 2.83981 16.5195 2.95208 16.9575C3.06423 17.3953 3.3986 17.7373 3.82675 17.8521C4.25479 17.9664 4.71026 17.836 5.01786 17.5104C5.05525 17.4696 5.09005 17.4264 5.12209 17.3808L5.14781 17.392L5.20165 17.2618C5.25769 17.1652 5.30048 17.0614 5.32859 16.9529L5.38562 16.815ZM4.58479 17.0677C4.34245 17.3043 3.96106 17.3043 3.71902 17.0677C3.47981 16.823 3.47981 16.4265 3.71878 16.182C3.95799 15.9373 4.34582 15.9373 4.58479 16.182C4.82401 16.4265 4.82401 16.823 4.58479 17.0677Z"/>
		<path d="M2.54036 7.83306L2.75576 7.31152L3.32007 7.55479L3.10461 8.07639L2.54036 7.83306Z"/>
		<path d="M2.10988 8.87792L2.32534 8.35608L2.88965 8.59922L2.67407 9.12112L2.10988 8.87792Z"/>
		<path d="M2.97113 6.78874L3.18641 6.26721L3.75072 6.51029L3.53519 7.03189L2.97113 6.78874Z"/>
		<path d="M2.10974 12.4718L2.67387 12.2286L2.88952 12.7505L2.32526 12.9937L2.10974 12.4718Z"/>
		<path d="M2.97113 14.5613L3.53519 14.3182L3.75072 14.8397L3.18641 15.0828L2.97113 14.5613Z"/>
		<path d="M2.54074 13.5166L3.10481 13.2734L3.32014 13.7951L2.75596 14.0382L2.54074 13.5166Z"/>
		<path d="M2.16184 11.834C2.17357 11.829 2.18505 11.8243 2.19646 11.8189L2.46017 11.7053L2.44348 11.6656C2.65998 11.4965 2.8151 11.2582 2.88379 10.9886H4.45819V10.3623H2.88379C2.81479 10.0921 2.65949 9.85322 2.44225 9.68402L2.45882 9.64428L2.1953 9.53065C2.18388 9.52525 2.17222 9.5206 2.16074 9.51564L1.89451 9.401L1.87794 9.44099C1.82005 9.43063 1.76131 9.42442 1.70262 9.42291C1.02622 9.42291 0.477936 9.98381 0.477936 10.6754C0.477936 11.3671 1.02622 11.9279 1.70262 11.9279C1.76131 11.9263 1.82005 11.9201 1.87794 11.9097L1.89451 11.9499L2.16184 11.834ZM1.09037 10.6754C1.09037 10.3296 1.36445 10.0491 1.70262 10.0491C2.04079 10.0491 2.315 10.3296 2.315 10.6754C2.315 11.0213 2.04079 11.3016 1.70262 11.3016C1.36445 11.3016 1.09037 11.0213 1.09037 10.6754Z"/>
		<path d="M13.5308 17.255L14.0415 17.035L14.2795 17.6113L13.7688 17.8314L13.5308 17.255Z"/>
		<path d="M11.4878 18.1363L11.9985 17.9161L12.2365 18.4925L11.7257 18.7128L11.4878 18.1363Z"/>
		<path d="M12.5093 17.6956L13.0199 17.4756L13.258 18.0521L12.7473 18.272L12.5093 17.6956Z"/>
		<path d="M11.1017 18.6603C11.0969 18.6483 11.0923 18.6364 11.087 18.625L10.976 18.3552L10.9371 18.3722C10.7718 18.1508 10.5388 17.9923 10.2752 17.922V16.3118H9.66273V17.922C9.39866 17.9925 9.16515 18.1513 8.99966 18.3735L8.96074 18.3564L8.84957 18.6262C8.8446 18.6377 8.83993 18.6495 8.83502 18.6616L8.72275 18.9337L8.76216 18.9505C8.67935 19.4421 8.88959 19.9369 9.29737 20.2105C9.70515 20.484 10.2328 20.484 10.6405 20.2105C11.0483 19.9369 11.2587 19.4421 11.1759 18.9505L11.215 18.9337L11.1017 18.6603ZM9.96898 19.7563C9.63088 19.7563 9.35679 19.4759 9.35679 19.13C9.35679 18.7841 9.63088 18.5038 9.96898 18.5038C10.3071 18.5038 10.5814 18.7841 10.5814 19.13C10.5814 19.4759 10.3071 19.7563 9.96898 19.7563Z"/>
		<path d="M16.1871 6.50987L16.7511 6.2666L16.9667 6.78871L16.4025 7.03179L16.1871 6.50987Z"/>
		<path d="M17.0483 8.59922L17.6126 8.35608L17.8279 8.87767L17.2637 9.12082L17.0483 8.59922Z"/>
		<path d="M16.6179 7.55448L17.1822 7.3114L17.3973 7.83293L16.8331 8.07608L16.6179 7.55448Z"/>
		<path d="M8.83619 2.69044C8.8411 2.70237 8.84576 2.71436 8.85086 2.72572L8.96196 2.9955L9.00094 2.97855C9.16619 3.19992 9.39927 3.35838 9.66273 3.42876V5.03893H10.2752V3.42876C10.5394 3.35831 10.7729 3.19954 10.9383 2.97729L10.9772 2.9943L11.0883 2.72447C11.0936 2.71304 11.098 2.70117 11.1031 2.68925L11.215 2.41709L11.1759 2.40026C11.1861 2.34093 11.1918 2.28097 11.1936 2.22077C11.1936 1.52903 10.6453 0.968262 9.96898 0.968262C9.29277 0.968262 8.74429 1.52903 8.74429 2.22077C8.74607 2.28097 8.75197 2.34093 8.76216 2.40026L8.72275 2.41709L8.83619 2.69044ZM9.96898 1.59458C10.3071 1.59458 10.5814 1.8749 10.5814 2.22077C10.5814 2.56657 10.3071 2.84714 9.96898 2.84714C9.63088 2.84714 9.35679 2.56657 9.35679 2.22077C9.35679 1.8749 9.63088 1.59458 9.96898 1.59458Z"/>
		<path d="M5.65858 3.73807L6.16913 3.51794L6.40706 4.09442L5.89658 4.31436L5.65858 3.73807Z"/>
		<path d="M7.70143 2.85757L8.21191 2.6377L8.44996 3.21398L7.93936 3.43411L7.70143 2.85757Z"/>
		<path d="M6.68021 3.29788L7.19081 3.078L7.4288 3.65422L6.9182 3.87435L6.68021 3.29788Z"/>
		</g>
		<defs>
		<clipPath >
		<rect width="19.0145" height="19.4474"  transform="translate(0.477936 0.968262)"/>
		</clipPath>
		</defs>
	</symbol>

	<symbol id="faq" width="20" height="21" viewBox="0 0 20 21">
	<g >
		<path d="M6.34876 14.3762C6.27969 14.3057 6.18387 14.265 6.0862 14.265C5.98853 14.265 5.89271 14.3056 5.82364 14.3762C5.75456 14.4468 5.71482 14.5446 5.71482 14.6444C5.71482 14.7443 5.75456 14.8422 5.82364 14.9127C5.89271 14.9833 5.98853 15.0239 6.0862 15.0239C6.18387 15.0239 6.27969 14.9833 6.34876 14.9127C6.41784 14.8422 6.45758 14.7443 6.45758 14.6444C6.45758 14.5446 6.41784 14.4468 6.34876 14.3762Z"/>
		<path d="M18.7508 14.7964L16.0659 12.0504C15.6652 11.6405 15.1325 11.4148 14.5658 11.4148C13.999 11.4148 13.4663 11.6405 13.0656 12.0504L12.1293 13.0079C12.1293 13.008 12.1293 13.008 12.1292 13.008C12.1292 13.0081 12.1292 13.0081 12.1291 13.0081L11.7551 13.3906L7.22421 8.75658L8.53468 7.41631C9.36185 6.57027 9.36185 5.19368 8.53468 4.34765L5.85212 1.60405C5.02495 0.758124 3.67901 0.758124 2.85181 1.60405L2.14423 2.3277C-0.233958 4.76007 -0.233958 8.7178 2.14423 11.1502L4.75322 13.8186C4.89824 13.9668 5.1334 13.9668 5.27846 13.8186C5.42348 13.6702 5.42348 13.4297 5.27846 13.2814L2.66946 10.613C0.747367 8.64715 0.594249 5.54677 2.20992 3.4L5.03019 6.28452C5.10272 6.35866 5.19776 6.39577 5.29279 6.39577C5.38783 6.39577 5.4829 6.35866 5.55539 6.28452C5.70041 6.1362 5.70045 5.89569 5.55539 5.74733L2.7033 2.83026L3.37701 2.1412C3.91461 1.59144 4.78932 1.59136 5.32692 2.1412L8.00945 4.8848C8.54705 5.43465 8.54705 6.32927 8.00945 6.87911L6.43637 8.48796C6.36674 8.55922 6.32759 8.65581 6.32759 8.75654C6.32759 8.85727 6.36674 8.95386 6.43637 9.02512L11.4925 14.1964C11.6376 14.3447 11.8727 14.3447 12.0177 14.1964L12.3918 13.8138L16.995 18.5218C16.0632 19.2574 14.9267 19.6562 13.7302 19.6562C12.2994 19.6562 10.9542 19.0863 9.94239 18.0515L7.29626 15.3451C7.15127 15.1969 6.91608 15.1969 6.77105 15.3451C6.62603 15.4935 6.62603 15.734 6.77105 15.8823L9.41719 18.5887C10.5692 19.767 12.101 20.4159 13.7302 20.4159C15.3595 20.4159 16.8912 19.767 18.0433 18.5887L18.7508 17.865C19.1515 17.4552 19.3722 16.9103 19.3722 16.3307C19.3722 15.7511 19.1515 15.2062 18.7508 14.7964ZM18.2256 17.3278L17.5519 18.0169L12.9171 13.2766L13.5908 12.5875C13.8512 12.3211 14.1975 12.1745 14.5658 12.1745C14.9341 12.1745 15.2803 12.3211 15.5407 12.5875L18.2256 15.3336C18.486 15.5999 18.6294 15.954 18.6294 16.3307C18.6294 16.7074 18.486 17.0615 18.2256 17.3278Z"/>
		<path d="M6.45682 6.6694C6.38775 6.59845 6.29193 6.55823 6.19426 6.55823C6.09659 6.55823 6.00077 6.59845 5.9317 6.6694C5.86262 6.73997 5.82288 6.83752 5.82288 6.93765C5.82288 7.03744 5.86262 7.13533 5.9317 7.2059C6.00077 7.27647 6.09659 7.31707 6.19426 7.31707C6.29193 7.31707 6.38775 7.27647 6.45682 7.2059C6.5259 7.13533 6.56564 7.03744 6.56564 6.93765C6.56564 6.83786 6.5259 6.73997 6.45682 6.6694Z"/>
		<path d="M16.014 3.71192C15.9702 3.06059 15.4569 2.53562 14.8201 2.49073C14.4589 2.46562 14.1148 2.58986 13.8512 2.84162C13.5911 3.08984 13.442 3.44076 13.442 3.80449C13.442 4.01423 13.6083 4.18432 13.8134 4.18432C14.0185 4.18432 14.1848 4.01423 14.1848 3.80449C14.1848 3.64834 14.2463 3.50359 14.358 3.39697C14.4695 3.29046 14.6153 3.23793 14.769 3.24864C15.0379 3.26756 15.2546 3.48923 15.2731 3.76419C15.2918 4.04219 15.1136 4.28786 14.8495 4.34833C14.5602 4.41442 14.3582 4.67165 14.3582 4.97373V5.65788C14.3582 5.86762 14.5245 6.03771 14.7296 6.03771C14.9347 6.03771 15.1009 5.86762 15.1009 5.65788V5.06584C15.6764 4.89028 16.0561 4.33546 16.014 3.71192Z"/>
		<path d="M14.9922 6.7408C14.9231 6.67022 14.8273 6.63 14.7296 6.63C14.6319 6.63 14.5361 6.67026 14.4671 6.7408C14.398 6.81175 14.3582 6.90926 14.3582 7.00943C14.3582 7.10921 14.398 7.2071 14.4671 7.27768C14.5361 7.34825 14.6319 7.38885 14.7296 7.38885C14.8273 7.38885 14.9231 7.34829 14.9922 7.27768C15.0613 7.20707 15.101 7.10921 15.101 7.00943C15.101 6.90926 15.0613 6.81175 14.9922 6.7408Z"/>
		<path d="M17.5149 0.968262H11.9443C10.9204 0.968262 10.0874 1.82022 10.0874 2.86742V7.19647C10.0874 8.24367 10.9204 9.09563 11.9443 9.09563H13.3527L14.4399 10.5435C14.5102 10.6371 14.619 10.6919 14.7344 10.6919C14.7346 10.6919 14.7349 10.6919 14.7351 10.6919C14.8507 10.6917 14.9597 10.6364 15.0298 10.5424L16.1079 9.09563H17.5149C18.5388 9.09563 19.3718 8.24367 19.3718 7.19647V2.86742C19.3718 1.82022 18.5389 0.968262 17.5149 0.968262ZM18.6291 7.19647H18.6291C18.6291 7.82479 18.1293 8.33597 17.5149 8.33597H15.9241C15.8082 8.33597 15.699 8.39127 15.6288 8.48554L14.7334 9.68703L13.8304 8.48444C13.7601 8.39081 13.6513 8.33597 13.5359 8.33597H11.9444C11.33 8.33597 10.8302 7.82479 10.8302 7.19647V2.86742C10.8302 2.2391 11.33 1.72792 11.9444 1.72792H17.515C18.1293 1.72792 18.6291 2.2391 18.6291 2.86742V7.19647Z"/>
		</g>
		<defs>
		<clipPath >
		<rect width="19.0145" height="19.4474"  transform="translate(0.358795 0.968262)"/>
		</clipPath>
		</defs>
	</symbol>

	<symbol id="news" width="20" height="20" viewBox="0 0 20 20">
	<g >
		<path d="M18.3198 1.66919H4.42912C3.90071 1.66919 3.47094 2.09837 3.47094 2.62589V4.07815H1.25068C0.722272 4.07815 0.292358 4.50734 0.292358 5.03485V17.345C0.292358 18.3681 1.12278 19.2013 2.14629 19.2087H2.15005C2.15339 19.2088 2.15643 19.2091 2.15976 19.2091H11.9978C12.1513 19.2091 12.2759 19.0849 12.2759 18.9315C12.2759 18.7782 12.1513 18.6538 11.9978 18.6538H3.48817C3.82118 18.317 4.02716 17.8546 4.02716 17.345V10.8524C4.02716 10.6991 3.90259 10.5748 3.74905 10.5748C3.59536 10.5748 3.47094 10.6991 3.47094 10.8524V17.345C3.47094 18.0643 2.88661 18.6498 2.16686 18.6537C2.16454 18.6537 2.16222 18.6534 2.15976 18.6534C1.43681 18.6532 0.848581 18.0663 0.848581 17.345V5.03485C0.848581 4.81361 1.02892 4.63343 1.25068 4.63343H3.47094V9.8159C3.47094 9.96932 3.59536 10.0935 3.74905 10.0935C3.90259 10.0935 4.02716 9.96932 4.02716 9.8159V2.62589C4.02716 2.4045 4.2075 2.22447 4.42912 2.22447H18.3198C18.5415 2.22447 18.7219 2.4045 18.7219 2.62589V17.345C18.7219 18.0667 18.1336 18.6538 17.4107 18.6538H13.0361C12.8824 18.6538 12.758 18.7782 12.758 18.9315C12.758 19.0849 12.8824 19.2091 13.0361 19.2091H17.4107C18.4404 19.2091 19.2781 18.3729 19.2781 17.345V2.62589C19.2781 2.09837 18.8482 1.66919 18.3198 1.66919V1.66919Z"/>
		<path d="M6.3856 12.7476H10.1999C10.5628 12.7476 10.858 12.4529 10.858 12.0907V8.28279C10.858 7.92056 10.5628 7.62585 10.1999 7.62585H6.3856C6.02275 7.62585 5.72755 7.92056 5.72755 8.28279V12.0907C5.72755 12.4529 6.02275 12.7476 6.3856 12.7476V12.7476ZM6.28377 8.28279C6.28377 8.22668 6.3294 8.18113 6.3856 8.18113H10.1999C10.256 8.18113 10.3017 8.22668 10.3017 8.28279V12.0907C10.3017 12.1466 10.256 12.1923 10.1999 12.1923H6.3856C6.3294 12.1923 6.28377 12.1466 6.28377 12.0907V8.28279Z"/>
		<path d="M11.8689 8.18113H17.0306C17.1841 8.18113 17.3087 8.05692 17.3087 7.90349C17.3087 7.75007 17.1841 7.62585 17.0306 7.62585H11.8689C11.7153 7.62585 11.5908 7.75007 11.5908 7.90349C11.5908 8.05692 11.7153 8.18113 11.8689 8.18113V8.18113Z"/>
		<path d="M11.8689 10.4642H17.0306C17.1841 10.4642 17.3087 10.3399 17.3087 10.1866C17.3087 10.0332 17.1841 9.90894 17.0306 9.90894H11.8689C11.7153 9.90894 11.5908 10.0332 11.5908 10.1866C11.5908 10.3399 11.7153 10.4642 11.8689 10.4642V10.4642Z"/>
		<path d="M11.8689 12.7474H17.0306C17.1841 12.7474 17.3087 12.6231 17.3087 12.4698C17.3087 12.3164 17.1841 12.1921 17.0306 12.1921H11.8689C11.7153 12.1921 11.5908 12.3164 11.5908 12.4698C11.5908 12.6231 11.7153 12.7474 11.8689 12.7474V12.7474Z"/>
		<path d="M6.00566 15.0306H17.0306C17.1841 15.0306 17.3087 14.9064 17.3087 14.753C17.3087 14.5997 17.1841 14.4753 17.0306 14.4753H6.00566C5.85212 14.4753 5.72755 14.5997 5.72755 14.753C5.72755 14.9064 5.85212 15.0306 6.00566 15.0306V15.0306Z"/>
		<path d="M6.00566 17.3139H17.0306C17.1841 17.3139 17.3087 17.1897 17.3087 17.0363C17.3087 16.8829 17.1841 16.7587 17.0306 16.7587H6.00566C5.85212 16.7587 5.72755 16.8829 5.72755 17.0363C5.72755 17.1897 5.85212 17.3139 6.00566 17.3139V17.3139Z"/>
		<path d="M5.73465 6.20493V3.2712C5.73465 3.2109 5.76333 3.16491 5.82069 3.13339C5.87805 3.10172 5.94757 3.08582 6.02898 3.08582C6.13776 3.08582 6.22062 3.10548 6.27812 3.14467C6.33534 3.18386 6.39878 3.26831 6.46831 3.39773L7.34219 5.08396V3.26672C7.34219 3.20642 7.37087 3.1613 7.42823 3.13108C7.48544 3.101 7.55497 3.08582 7.63652 3.08582C7.71807 3.08582 7.78745 3.101 7.84481 3.13108C7.90217 3.1613 7.93085 3.20642 7.93085 3.26672V6.20493C7.93085 6.26233 7.9013 6.30745 7.8425 6.34057C7.78369 6.37382 7.71503 6.39031 7.63652 6.39031C7.47646 6.39031 7.36319 6.32856 7.29685 6.20493L6.32331 4.38769V6.20493C6.32331 6.26233 6.29391 6.30745 6.2351 6.34057C6.17629 6.37382 6.10749 6.39031 6.02898 6.39031C5.94757 6.39031 5.87805 6.37382 5.82083 6.34057C5.76333 6.30745 5.73465 6.26233 5.73465 6.20493Z"/>
		<path d="M8.47418 6.20493V3.2712C8.47418 3.21393 8.49982 3.16882 8.55124 3.13556C8.60252 3.10244 8.66278 3.08582 8.7323 3.08582H10.3443C10.4046 3.08582 10.4508 3.11155 10.4824 3.16274C10.5141 3.21393 10.53 3.27279 10.53 3.33902C10.53 3.41132 10.5134 3.47321 10.4802 3.5244C10.4469 3.57573 10.4016 3.60118 10.3443 3.60118H9.06285V4.50525H9.75118C9.80839 4.50525 9.85373 4.52868 9.88704 4.57538C9.92022 4.62209 9.93687 4.67704 9.93687 4.74038C9.93687 4.79764 9.92094 4.84955 9.88922 4.8964C9.8575 4.94311 9.81158 4.96639 9.75118 4.96639H9.06285V5.87508H10.3443C10.4016 5.87508 10.4469 5.90068 10.4802 5.95187C10.5134 6.0032 10.53 6.06495 10.53 6.13725C10.53 6.20348 10.5141 6.26233 10.4824 6.31352C10.4508 6.36486 10.4046 6.39031 10.3443 6.39031H8.7323C8.66278 6.39031 8.60252 6.37382 8.55124 6.34071C8.49982 6.30745 8.47418 6.26233 8.47418 6.20493V6.20493Z"/>
		<path d="M10.8244 3.32094C10.8244 3.25761 10.8651 3.20266 10.9466 3.15595C11.028 3.10924 11.1126 3.08582 11.2001 3.08582C11.3089 3.08582 11.3738 3.125 11.3948 3.20338L12.1103 5.65355L12.4952 4.0804C12.5223 3.97181 12.6189 3.91758 12.7849 3.91758C12.948 3.91758 13.043 3.97181 13.0703 4.0804L13.4551 5.65355L14.1705 3.20338C14.1917 3.125 14.2566 3.08582 14.3654 3.08582C14.4528 3.08582 14.5373 3.10924 14.6188 3.15595C14.7004 3.20266 14.7411 3.25761 14.7411 3.32094C14.7411 3.33902 14.7381 3.35709 14.7321 3.37517L13.8355 6.21852C13.7902 6.35127 13.6618 6.41749 13.4506 6.41749C13.3601 6.41749 13.2786 6.40014 13.2061 6.36544C13.1337 6.33088 13.0898 6.28186 13.0747 6.21852L12.7851 4.99806L12.4907 6.21852C12.4755 6.28186 12.4318 6.33088 12.3593 6.36544C12.2869 6.40014 12.2054 6.41749 12.1148 6.41749C12.0213 6.41749 11.9383 6.40014 11.8658 6.36544C11.7933 6.33088 11.7481 6.28186 11.73 6.21852L10.8333 3.37517C10.8273 3.35709 10.8244 3.33902 10.8244 3.32094V3.32094Z"/>
		<path d="M14.8906 5.87058C14.8906 5.80131 14.9169 5.73118 14.9698 5.66032C15.0225 5.58961 15.0822 5.55418 15.1487 5.55418C15.1878 5.55418 15.2324 5.57298 15.2823 5.61058C15.3321 5.64803 15.3803 5.68968 15.4271 5.73494C15.4739 5.78034 15.5411 5.82185 15.6287 5.85944C15.7162 5.89704 15.8128 5.91569 15.9184 5.91569C16.0634 5.91569 16.1841 5.88258 16.2807 5.81621C16.3773 5.74998 16.4256 5.65208 16.4256 5.52252C16.4256 5.43199 16.3992 5.35145 16.3463 5.28059C16.2936 5.20988 16.2241 5.15103 16.138 5.10432C16.0521 5.05761 15.9577 5.01235 15.8551 4.96868C15.7524 4.92501 15.649 4.87599 15.5449 4.82176C15.4407 4.76754 15.3457 4.70651 15.2597 4.63869C15.1736 4.57088 15.1041 4.4805 15.0514 4.36742C14.9985 4.25448 14.9721 4.12564 14.9721 3.98104C14.9721 3.81893 15.0046 3.67578 15.0695 3.55199C15.1344 3.42807 15.2211 3.33176 15.3298 3.26293C15.4384 3.1941 15.5546 3.14363 15.6784 3.11153C15.8021 3.07943 15.9335 3.06323 16.0724 3.06323C16.1508 3.06323 16.2338 3.06873 16.3214 3.07957C16.4089 3.09042 16.5017 3.1082 16.6 3.13293C16.698 3.15766 16.778 3.19641 16.8398 3.2489C16.9017 3.30154 16.9327 3.36343 16.9327 3.43472C16.9327 3.50182 16.9115 3.57123 16.8694 3.64295C16.8271 3.71467 16.7697 3.75039 16.6973 3.75039C16.6701 3.75039 16.596 3.72176 16.4754 3.6645C16.3546 3.60723 16.2203 3.5786 16.0724 3.5786C15.9093 3.5786 15.7833 3.60955 15.6944 3.67129C15.6053 3.73318 15.5607 3.81821 15.5607 3.92666C15.5607 4.01415 15.5969 4.09021 15.6694 4.15499C15.7419 4.21978 15.8317 4.27256 15.9389 4.31319C16.0459 4.35382 16.1622 4.40516 16.2875 4.46691C16.4127 4.52865 16.529 4.59575 16.6362 4.66805C16.7432 4.74035 16.8332 4.84504 16.9056 4.98213C16.978 5.11936 17.0142 5.27987 17.0142 5.46366C17.0142 5.77268 16.9153 6.01128 16.7177 6.17916C16.5199 6.34705 16.2596 6.43106 15.9365 6.43106C15.6497 6.43106 15.4038 6.37221 15.1985 6.25465C14.9931 6.13737 14.8906 6.00925 14.8906 5.87058V5.87058Z"/>
		</g>
		<defs>
		<clipPath >
		<rect width="18.9857" height="18.9536"  transform="translate(0.292358 0.96582)"/>
		</clipPath>
		</defs>
	</symbol>

	<symbol id="tlg" width="31" height="31" viewBox="0 0 31 31">
		<path d="M15.5 31C24.0625 31 31 24.0625 31 15.5C31 6.93754 24.0625 0 15.5 0C6.93754 0 0 6.93754 0 15.5C0 24.0625 6.93754 31 15.5 31ZM7.09254 15.1642L22.0371 9.40204C22.7308 9.15146 23.3365 9.57125 23.1118 10.6201L23.1131 10.6188L20.5685 22.6068C20.3799 23.4567 19.8749 23.6633 19.1683 23.2629L15.2933 20.407L13.4243 22.2076C13.2176 22.4143 13.0433 22.5887 12.6428 22.5887L12.918 18.6452L20.0996 12.1572C20.4122 11.882 20.0299 11.727 19.6178 12.0009L10.7428 17.5886L6.91687 16.3951C6.08633 16.1316 6.06825 15.5646 7.09254 15.1642Z"/>
	</symbol>

	<symbol id="vk" width="31" height="31" viewBox="0 0 31 31">
		<path d="M15.5 0C6.93988 0 0 6.93956 0 15.5C0 24.0604 6.93988 31 15.5 31C24.0601 31 31 24.0604 31 15.5C31 6.93956 24.0601 0 15.5 0ZM23.3624 17.1764C24.0849 17.882 24.8492 18.5461 25.4977 19.3247C25.785 19.6691 26.0559 20.0252 26.262 20.4257C26.5563 20.9969 26.2905 21.6233 25.7793 21.6572L22.6038 21.6566C21.7837 21.7244 21.1311 21.3936 20.5808 20.833C20.1416 20.3861 19.7341 19.9088 19.311 19.4468C19.1382 19.2571 18.9561 19.0786 18.7392 18.9381C18.3063 18.6565 17.9302 18.7427 17.6822 19.1949C17.4295 19.6551 17.3717 20.1651 17.3476 20.6772C17.3131 21.426 17.0873 21.6217 16.336 21.6569C14.7306 21.732 13.2074 21.4885 11.7917 20.6791C10.5429 19.9653 9.57623 18.9577 8.73391 17.817C7.09369 15.5932 5.83751 13.1526 4.70883 10.6418C4.4548 10.0763 4.64064 9.7738 5.26445 9.76207C6.30085 9.74209 7.33725 9.74462 8.37365 9.76112C8.79544 9.76777 9.07452 10.0091 9.23657 10.4071C9.79663 11.7851 10.4832 13.0961 11.3436 14.312C11.5729 14.6358 11.807 14.9586 12.1403 15.1873C12.5081 15.4397 12.7885 15.3563 12.962 14.9456C13.073 14.6846 13.1208 14.4056 13.145 14.1259C13.2274 13.1678 13.2372 12.21 13.0945 11.2558C13.0057 10.6586 12.6699 10.273 12.0746 10.1601C11.7714 10.1027 11.8158 9.9904 11.9633 9.81725C12.2192 9.51787 12.459 9.33266 12.9382 9.33266L16.5259 9.33203C17.0914 9.44303 17.2182 9.69674 17.295 10.2663L17.2982 14.2533C17.2915 14.4737 17.4088 15.127 17.8046 15.2713C18.1218 15.376 18.3311 15.1217 18.5207 14.9209C19.3811 14.0079 19.9941 12.9303 20.5431 11.8149C20.7854 11.323 20.9944 10.814 21.1973 10.3041C21.3483 9.92698 21.583 9.74145 22.0086 9.7478L25.4634 9.75192C25.5652 9.75192 25.6686 9.75287 25.7695 9.77031C26.3517 9.86989 26.5113 10.1204 26.3311 10.6884C26.0476 11.5808 25.4967 12.3242 24.9583 13.0695C24.3811 13.8674 23.7655 14.6374 23.194 15.4388C22.6688 16.1714 22.7104 16.5402 23.3624 17.1764Z"/>
	</symbol>

	<symbol id="user" width="20" height="20" viewBox="0 0 20 20">
		<g>
			<path d="M7.49978 9.584C5.20233 9.584 3.33319 7.71501 3.33319 5.41756C3.33319 3.12012 5.20233 1.25098 7.49978 1.25098C9.79722 1.25098 11.6664 3.12012 11.6664 5.41756C11.6664 7.71501 9.79722 9.584 7.49978 9.584ZM7.49978 2.50094C5.89155 2.50094 4.58315 3.80919 4.58315 5.41756C4.58315 7.02579 5.89155 8.33404 7.49978 8.33404C9.108 8.33404 10.4164 7.02579 10.4164 5.41756C10.4164 3.80919 9.108 2.50094 7.49978 2.50094Z"/>
			<path d="M14.3745 18.7498H0.624973C0.279982 18.7498 -7.62939e-06 18.4698 -7.62939e-06 18.1248V15.2082C-7.62939e-06 13.0258 1.77575 11.25 3.95815 11.25H11.0414C13.2238 11.25 14.9995 13.0258 14.9995 15.2082V18.1248C14.9995 18.4698 14.7195 18.7498 14.3745 18.7498ZM1.24995 17.4998H13.7496V15.2082C13.7496 13.715 12.5345 12.5 11.0414 12.5H3.95815C2.46497 12.5 1.24995 13.715 1.24995 15.2082V17.4998Z"/>
			<path d="M19.3745 9.79196H12.2914C11.9464 9.79196 11.6664 9.51197 11.6664 9.16697C11.6664 8.82198 11.9464 8.54199 12.2914 8.54199H19.3745C19.7195 8.54199 19.9994 8.82198 19.9994 9.16697C19.9994 9.51197 19.7195 9.79196 19.3745 9.79196Z"/>
			<path d="M16.0411 13.1249C15.8811 13.1249 15.7212 13.064 15.5994 12.9416C15.3553 12.6973 15.3553 12.3015 15.5994 12.0574L18.491 9.1658L15.5994 6.2742C15.3553 6.03007 15.3553 5.63426 15.5994 5.39013C15.8435 5.146 16.2393 5.146 16.4836 5.39013L19.8168 8.72331C20.0609 8.96744 20.0609 9.3634 19.8168 9.60753L16.4836 12.9407C16.3611 13.064 16.201 13.1249 16.0411 13.1249Z"/>
		</g>
		<defs>
			<clipPath>
			<rect width="20" height="20"/>
			</clipPath>
		</defs>
	</symbol>



</svg>






