<svg width="33" height="33" viewBox="0 0 33 33" fill="none" xmlns="http://www.w3.org/2000/svg">
<path d="M19.8279 18.7239H13.25C12.3419 18.7239 11.6055 19.4602 11.6055 20.3684V31.3316C11.6055 32.2398 12.3419 32.9761 13.25 32.9761H19.8279C20.7361 32.9761 21.4724 32.2398 21.4724 31.3316V20.3684C21.4724 19.4602 20.7361 18.7239 19.8279 18.7239ZM20.376 31.3316C20.376 31.6343 20.1306 31.8797 19.8279 31.8797H13.25C12.9475 31.8797 12.7019 31.6343 12.7019 31.3316V20.3684C12.7019 20.0657 12.9475 19.8203 13.25 19.8203H19.8279C20.1306 19.8203 20.376 20.0657 20.376 20.3684V31.3316Z" fill="url(#paint0_linear)"/>
<path d="M31.3388 13.2424H24.7611C23.853 13.2424 23.1167 13.9787 23.1167 14.8868V31.3317C23.1167 32.2399 23.853 32.9762 24.7611 32.9762H31.3388C32.2473 32.9762 32.9833 32.2399 32.9833 31.3317V14.8868C32.9833 13.9787 32.2473 13.2424 31.3388 13.2424ZM31.8871 31.3317C31.8871 31.6343 31.6418 31.8798 31.3388 31.8798H24.7611C24.4586 31.8798 24.2128 31.6343 24.2128 31.3317V14.8868C24.2128 14.5843 24.4586 14.3387 24.7611 14.3387H31.3388C31.6418 14.3387 31.8871 14.5843 31.8871 14.8868V31.3317Z" fill="url(#paint1_linear)"/>
<path d="M8.31605 15.9832H1.73826C0.830161 15.9832 0.09375 16.7196 0.09375 17.6277V31.3316C0.09375 32.2399 0.830161 32.9762 1.73826 32.9762H8.31605C9.22443 32.9762 9.96043 32.2399 9.96043 31.3316V17.6277C9.96043 16.7196 9.22443 15.9832 8.31605 15.9832ZM8.86431 31.3316C8.86431 31.6343 8.61884 31.8798 8.31605 31.8798H1.73826C1.43547 31.8798 1.19 31.6343 1.19 31.3316V17.6277C1.19 17.3252 1.43547 17.0794 1.73826 17.0794H8.31605C8.61884 17.0794 8.86431 17.3252 8.86431 17.6277V31.3316Z" fill="url(#paint2_linear)"/>
<path d="M25.3101 10.5017C25.3101 9.96478 25.1513 9.43956 24.8536 8.99263L28.7346 5.11173C29.9117 5.89079 31.4875 5.65163 32.3805 4.55853C33.2739 3.46544 33.1938 1.87358 32.1956 0.875382C31.1974 -0.122682 29.6056 -0.202631 28.5125 0.690388C27.4192 1.58368 27.1802 3.15935 27.9596 4.33651L24.0785 8.21769C23.0092 7.505 21.5872 7.63747 20.6679 8.53557L14.6798 4.4406C15.1944 3.24328 14.7961 1.8489 13.7264 1.1044C12.6565 0.35962 11.211 0.469876 10.2664 1.36824C9.32221 2.26688 9.13996 3.70515 9.83016 4.81086L4.4113 9.90856C3.2458 9.0745 1.63804 9.26018 0.693051 10.3376C-0.252077 11.4148 -0.226158 13.0332 0.752293 14.0802C1.73129 15.1267 3.34413 15.261 4.48234 14.3905C5.62083 13.5201 5.91375 11.9284 5.16006 10.7093L10.579 5.61159C11.6506 6.37543 13.1153 6.26202 14.0562 5.34198L20.0443 9.43681C19.6123 10.4598 19.8412 11.6426 20.6229 12.4316C21.4052 13.2203 22.586 13.4592 23.6128 13.0362C24.6399 12.6133 25.3101 11.6124 25.3101 10.5017ZM30.2437 1.18284C31.1519 1.18284 31.888 1.91925 31.888 2.82735C31.888 3.73587 31.1519 4.47187 30.2437 4.47187C29.3354 4.47187 28.5991 3.73587 28.5991 2.82735C28.5991 1.91925 29.3354 1.18284 30.2437 1.18284ZM2.83577 13.7907C1.92753 13.7907 1.19126 13.0544 1.19126 12.1462C1.19126 11.2381 1.92753 10.5017 2.83577 10.5017C3.74401 10.5017 4.48015 11.2381 4.48015 12.1462C4.48015 13.0544 3.74401 13.7907 2.83577 13.7907ZM12.1544 5.02013C11.2463 5.02013 10.5099 4.28385 10.5099 3.37561C10.5099 2.46751 11.2463 1.7311 12.1544 1.7311C13.0628 1.7311 13.799 2.46751 13.799 3.37561C13.799 4.28385 13.0628 5.02013 12.1544 5.02013ZM22.5695 12.1462C21.6614 12.1462 20.925 11.4099 20.925 10.5017C20.925 9.59356 21.6614 8.85715 22.5695 8.85715C23.4777 8.85715 24.2137 9.59356 24.2137 10.5017C24.2137 11.4099 23.4777 12.1462 22.5695 12.1462Z" fill="url(#paint3_linear)"/>
<defs>
<linearGradient id="paint0_linear" x1="12.6754" y1="19.4191" x2="23.562" y2="22.5775" gradientUnits="userSpaceOnUse">
<stop stop-color="#4BA5BB"/>
<stop offset="1" stop-color="#302E9F"/>
</linearGradient>
<linearGradient id="paint1_linear" x1="24.1866" y1="14.2051" x2="35.4928" y2="16.574" gradientUnits="userSpaceOnUse">
<stop stop-color="#4BA5BB"/>
<stop offset="1" stop-color="#302E9F"/>
</linearGradient>
<linearGradient id="paint2_linear" x1="1.16363" y1="16.8121" x2="12.3065" y2="19.5234" gradientUnits="userSpaceOnUse">
<stop stop-color="#4BA5BB"/>
<stop offset="1" stop-color="#302E9F"/>
</linearGradient>
<linearGradient id="paint3_linear" x1="3.57928" y1="0.796769" x2="24.7779" y2="20.48" gradientUnits="userSpaceOnUse">
<stop stop-color="#4BA5BB"/>
<stop offset="1" stop-color="#302E9F"/>
</linearGradient>
</defs>
</svg>
