<svg width="54" height="51" viewBox="0 0 54 51" fill="none" xmlns="http://www.w3.org/2000/svg">
<path d="M40.9687 50.75C40.8518 50.7501 40.7359 50.7276 40.6278 50.6836C40.5197 50.6396 40.4216 50.5751 40.3389 50.4938L36.7237 46.9418C36.4598 47.4206 36.0858 47.8323 35.6314 48.144C35.177 48.4557 34.6548 48.6589 34.1064 48.7373C33.558 48.8157 32.9985 48.7673 32.4725 48.5958C31.9465 48.4243 31.4686 48.1345 31.0767 47.7495C30.6848 47.3645 30.3898 46.8949 30.2153 46.3782C30.0407 45.8614 29.9914 45.3117 30.0713 44.7729C30.1511 44.2341 30.3579 43.7211 30.6752 43.2747C30.9924 42.8283 31.4114 42.4608 31.8988 42.2016L28.7608 39.1188C28.5938 38.9546 28.5 38.7321 28.5 38.5C28.5 38.2679 28.5938 38.0454 28.7608 37.8812L32.3762 34.3294C31.8888 34.0702 31.4698 33.7027 31.1525 33.2563C30.8353 32.8099 30.6285 32.2968 30.5486 31.758C30.4688 31.2193 30.5181 30.6696 30.6927 30.1528C30.8672 29.6361 31.1622 29.1665 31.5541 28.7815C31.9459 28.3965 32.4239 28.1067 32.9499 27.9352C33.4759 27.7637 34.0354 27.7153 34.5838 27.7937C35.1322 27.8721 35.6544 28.0753 36.1088 28.387C36.5632 28.6987 36.9372 29.1104 37.2011 29.5891L40.3389 26.5062C40.506 26.3422 40.7325 26.2501 40.9687 26.2501C41.2049 26.2501 41.4315 26.3422 41.5986 26.5062L53.1767 37.8812C53.3437 38.0454 53.4375 38.2679 53.4375 38.5C53.4375 38.7321 53.3437 38.9546 53.1767 39.1188L41.5986 50.4938C41.5159 50.5751 41.4177 50.6396 41.3097 50.6836C41.2016 50.7276 41.0857 50.7501 40.9687 50.75ZM36.2615 44.3756C36.3785 44.3756 36.4944 44.3982 36.6025 44.4421C36.7106 44.4861 36.8088 44.5506 36.8916 44.6318L40.9687 48.6376L51.2874 38.5L40.9687 28.3624L37.3692 31.8989C37.242 32.0238 37.0794 32.108 36.9027 32.1403C36.7259 32.1727 36.5434 32.1518 36.379 32.0803C36.2146 32.0088 36.076 31.8901 35.9816 31.7399C35.8871 31.5896 35.8411 31.4147 35.8497 31.2383C35.8466 30.8941 35.74 30.5584 35.5434 30.2735C35.3468 29.9885 35.069 29.7669 34.7447 29.6365C34.4204 29.5061 34.0641 29.4727 33.7206 29.5405C33.377 29.6083 33.0615 29.7742 32.8136 30.0175C32.5657 30.2608 32.3965 30.5706 32.3271 30.908C32.2577 31.2455 32.2913 31.5955 32.4237 31.9143C32.5561 32.233 32.7813 32.5062 33.0712 32.6997C33.361 32.8932 33.7025 32.9982 34.0529 33.0017C34.2327 32.9928 34.4109 33.0376 34.5642 33.1303C34.7175 33.2229 34.8386 33.359 34.9116 33.5206C34.9847 33.6822 35.0061 33.8617 34.9733 34.0355C34.9404 34.2094 34.8547 34.3693 34.7274 34.4944L30.6501 38.5L34.2498 42.0364C34.3769 42.1613 34.4626 42.3211 34.4955 42.4947C34.5285 42.6684 34.5072 42.8477 34.4344 43.0093C34.3617 43.1708 34.2409 43.3069 34.0879 43.3997C33.9349 43.4925 33.757 43.5376 33.5774 43.5292C33.227 43.5323 32.8854 43.637 32.5953 43.8301C32.3052 44.0233 32.0797 44.2963 31.947 44.6149C31.8143 44.9335 31.7803 45.2835 31.8492 45.621C31.9182 45.9585 32.0871 46.2685 32.3348 46.5121C32.5824 46.7556 32.8977 46.9219 33.2412 46.99C33.5847 47.0582 33.941 47.0252 34.2654 46.8951C34.5898 46.7651 34.868 46.5438 35.0649 46.259C35.2618 45.9743 35.3687 45.6387 35.3722 45.2945C35.3662 45.1761 35.3847 45.0576 35.4266 44.9464C35.4686 44.8353 35.5331 44.7336 35.6163 44.6477C35.6995 44.5617 35.7996 44.4933 35.9105 44.4465C36.0214 44.3997 36.1408 44.3756 36.2616 44.3756H36.2615ZM35.3787 45.365L35.3789 45.3657L35.3787 45.365ZM35.3782 45.3606L35.3787 45.3646L35.3782 45.3606ZM35.3781 45.3594L35.3782 45.3602L35.3781 45.3594ZM33.5143 43.524L33.5151 43.5241L33.5143 43.524ZM33.5122 43.5238L33.5137 43.5239L33.5122 43.5238ZM33.9811 33.0082L33.9792 33.0084L33.9811 33.0082ZM33.9829 33.0079L33.9812 33.0081L33.9829 33.0079ZM33.9866 33.0074L33.983 33.0079L33.9866 33.0074ZM33.9882 33.0072L33.9867 33.0074L33.9882 33.0072Z" fill="white"/>
<path d="M48.9844 3.0165e-08H0.890625C0.773658 -3.01469e-05 0.657831 0.0225819 0.549761 0.066544C0.441692 0.110506 0.343498 0.174957 0.26079 0.256214C0.178081 0.337472 0.11248 0.433943 0.0677323 0.540116C0.0229851 0.64629 -3.06853e-05 0.760085 3.07037e-08 0.875V48.125C-3.06853e-05 48.2399 0.0229851 48.3537 0.0677323 48.4599C0.11248 48.5661 0.178081 48.6625 0.26079 48.7438C0.343498 48.825 0.441692 48.8895 0.549761 48.9335C0.657831 48.9774 0.773658 49 0.890625 49H29.3906V47.25H17.8125V42.2056C17.8123 42.0367 17.7624 41.8715 17.6687 41.7298C17.5751 41.5881 17.4418 41.4761 17.2848 41.4072C17.1278 41.3383 16.9539 41.3155 16.784 41.3415C16.6142 41.3675 16.4556 41.4412 16.3274 41.5537C16.0711 41.7791 15.754 41.9268 15.4141 41.979C15.0743 42.0312 14.7264 41.9856 14.4124 41.8477C14.0984 41.7098 13.8317 41.4856 13.6446 41.2021C13.4575 40.9186 13.3579 40.5879 13.3579 40.25C13.3579 39.9121 13.4575 39.5814 13.6446 39.2979C13.8317 39.0144 14.0984 38.7901 14.4124 38.6523C14.7264 38.5144 15.0743 38.4688 15.4141 38.521C15.754 38.5731 16.0711 38.7208 16.3274 38.9463C16.4556 39.0588 16.6142 39.1325 16.784 39.1585C16.9539 39.1845 17.1278 39.1617 17.2848 39.0928C17.4418 39.0239 17.5751 38.9119 17.6687 38.7702C17.7624 38.6285 17.8123 38.4633 17.8125 38.2944V33.25H22.947C23.1189 33.2498 23.2871 33.2007 23.4313 33.1088C23.5755 33.0168 23.6895 32.8858 23.7596 32.7316C23.8298 32.5773 23.853 32.4065 23.8265 32.2396C23.8001 32.0727 23.725 31.9169 23.6105 31.7909C23.3811 31.5392 23.2307 31.2276 23.1776 30.8937C23.1245 30.5599 23.1709 30.2181 23.3113 29.9096C23.4516 29.6011 23.6798 29.3391 23.9684 29.1552C24.257 28.9714 24.5936 28.8736 24.9375 28.8736C25.2814 28.8736 25.618 28.9714 25.9066 29.1552C26.1952 29.3391 26.4234 29.6011 26.5638 29.9096C26.7041 30.2181 26.7505 30.5599 26.6974 30.8937C26.6443 31.2276 26.494 31.5392 26.2645 31.7909C26.15 31.9169 26.0749 32.0727 26.0485 32.2396C26.022 32.4065 26.0452 32.5773 26.1154 32.7316C26.1855 32.8858 26.2995 33.0168 26.4437 33.1088C26.5879 33.2007 26.7561 33.2498 26.928 33.25H29.3906V31.5H28.3876C28.462 31.2141 28.4997 30.9201 28.5 30.625C28.5 29.6967 28.1247 28.8065 27.4566 28.1501C26.7885 27.4937 25.8823 27.125 24.9375 27.125C23.9927 27.125 23.0865 27.4937 22.4184 28.1501C21.7503 28.8065 21.375 29.6967 21.375 30.625C21.3753 30.9201 21.413 31.2141 21.4874 31.5H17.8125V27.8895C18.1035 27.9626 18.4027 27.9997 18.7031 28C19.648 28 20.5541 27.6313 21.2222 26.9749C21.8903 26.3185 22.2656 25.4283 22.2656 24.5C22.2656 23.5717 21.8903 22.6815 21.2222 22.0251C20.5541 21.3687 19.648 21 18.7031 21C18.4027 21.0003 18.1035 21.0374 17.8125 21.1105V17.5H22.947C23.1189 17.4998 23.2871 17.4508 23.4313 17.3588C23.5755 17.2668 23.6895 17.1358 23.7596 16.9816C23.8298 16.8273 23.853 16.6565 23.8265 16.4896C23.8001 16.3227 23.725 16.1669 23.6105 16.0409C23.3811 15.7892 23.2307 15.4776 23.1776 15.1437C23.1245 14.8099 23.1709 14.4681 23.3113 14.1596C23.4516 13.8511 23.6798 13.5891 23.9684 13.4052C24.257 13.2214 24.5936 13.1236 24.9375 13.1236C25.2814 13.1236 25.618 13.2214 25.9066 13.4052C26.1952 13.5891 26.4234 13.8511 26.5638 14.1596C26.7041 14.4681 26.7505 14.8099 26.6974 15.1437C26.6443 15.4776 26.494 15.7892 26.2645 16.0409C26.15 16.1669 26.0749 16.3227 26.0485 16.4896C26.022 16.6565 26.0452 16.8273 26.1154 16.9816C26.1855 17.1358 26.2995 17.2668 26.4437 17.3588C26.5879 17.4507 26.7561 17.4998 26.928 17.5H32.0625V22.5444C32.0627 22.7133 32.1126 22.8785 32.2063 23.0202C32.2999 23.1619 32.4332 23.2739 32.5902 23.3428C32.7472 23.4117 32.9211 23.4345 33.0909 23.4085C33.2608 23.3825 33.4194 23.3088 33.5476 23.1963C33.8868 22.8981 34.3292 22.7389 34.7841 22.7513C35.2391 22.7636 35.6719 22.9466 35.9938 23.2627C36.3156 23.5788 36.5021 24.0039 36.5149 24.4509C36.5277 24.8978 36.3658 25.3326 36.0625 25.6659L37.3884 26.834C37.8473 26.3306 38.148 25.7074 38.2542 25.0398C38.3604 24.3721 38.2675 23.6885 37.9869 23.0716C37.7062 22.4546 37.2497 21.9307 36.6725 21.5631C36.0954 21.1955 35.4222 20.9999 34.7344 21C34.434 21.0003 34.1348 21.0374 33.8438 21.1105V17.5H37.5187C37.4443 17.7859 37.4065 18.0799 37.4062 18.375C37.4062 19.3033 37.7816 20.1935 38.4497 20.8499C39.1178 21.5063 40.0239 21.875 40.9688 21.875C41.9136 21.875 42.8197 21.5063 43.4878 20.8499C44.1559 20.1935 44.5312 19.3033 44.5312 18.375C44.531 18.0799 44.4932 17.7859 44.4188 17.5H48.0938V30.625H49.875V0.875C49.875 0.760085 49.852 0.64629 49.8073 0.540116C49.7625 0.433943 49.6969 0.337472 49.6142 0.256214C49.5315 0.174957 49.4333 0.110506 49.3252 0.066544C49.2172 0.0225819 49.1013 -3.01469e-05 48.9844 3.0165e-08ZM16.0312 36.8605C15.7402 36.7874 15.441 36.7503 15.1406 36.75C14.1958 36.75 13.2897 37.1188 12.6216 37.7751C11.9535 38.4315 11.5781 39.3217 11.5781 40.25C11.5781 41.1783 11.9535 42.0685 12.6216 42.7249C13.2897 43.3812 14.1958 43.75 15.1406 43.75C15.441 43.7497 15.7402 43.7126 16.0312 43.6395V47.25H1.78125V33.25H5.45619C5.3818 33.5359 5.34403 33.8299 5.34375 34.125C5.34375 35.0533 5.71908 35.9435 6.38718 36.5999C7.05528 37.2562 7.96142 37.625 8.90625 37.625C9.85108 37.625 10.7572 37.2562 11.4253 36.5999C12.0934 35.9435 12.4688 35.0533 12.4688 34.125C12.4685 33.8299 12.4307 33.5359 12.3563 33.25H16.0312V36.8605ZM18.7031 22.75C18.992 22.7498 19.2765 22.8185 19.5323 22.9504C19.788 23.0823 20.0073 23.2732 20.1712 23.5069C20.3352 23.7405 20.4388 24.0099 20.4732 24.2916C20.5076 24.5734 20.4717 24.8591 20.3687 25.1242C20.2657 25.3893 20.0986 25.6258 19.8818 25.8134C19.665 26.0009 19.4051 26.1338 19.1244 26.2007C18.8437 26.2676 18.5506 26.2664 18.2705 26.1972C17.9904 26.1281 17.7316 25.993 17.5164 25.8037C17.3882 25.6912 17.2296 25.6175 17.0597 25.5915C16.8898 25.5655 16.7159 25.5883 16.559 25.6572C16.402 25.7261 16.2686 25.8381 16.175 25.9798C16.0814 26.1215 16.0315 26.2867 16.0312 26.4556V31.5H10.8968C10.7249 31.5002 10.5567 31.5492 10.4125 31.6412C10.2683 31.7332 10.1542 31.8642 10.0841 32.0184C10.014 32.1726 9.99075 32.3435 10.0172 32.5104C10.0437 32.6773 10.1187 32.8331 10.2333 32.959C10.4627 33.2108 10.613 33.5224 10.6661 33.8562C10.7192 34.1901 10.6728 34.5319 10.5325 34.8404C10.3922 35.1489 10.1639 35.4109 9.87535 35.5947C9.58677 35.7786 9.25019 35.8764 8.90625 35.8764C8.56231 35.8764 8.22572 35.7786 7.93714 35.5947C7.64856 35.4109 7.42032 35.1489 7.28 34.8404C7.13967 34.5319 7.09325 34.1901 7.14635 33.8562C7.19945 33.5224 7.34979 33.2108 7.57922 32.959C7.69378 32.8331 7.76881 32.6773 7.79528 32.5104C7.82175 32.3435 7.79851 32.1726 7.72838 32.0184C7.65825 31.8642 7.54422 31.7332 7.40003 31.6412C7.25583 31.5492 7.08764 31.5002 6.91572 31.5H1.78125V17.5H6.91572C7.08764 17.4998 7.25584 17.4508 7.40003 17.3588C7.54423 17.2668 7.65827 17.1358 7.7284 16.9816C7.79853 16.8273 7.82176 16.6565 7.79529 16.4896C7.76883 16.3227 7.69379 16.1669 7.57923 16.0409C7.3498 15.7892 7.19946 15.4776 7.14636 15.1437C7.09326 14.8099 7.13968 14.4681 7.28001 14.1596C7.42033 13.8511 7.64857 13.5891 7.93715 13.4052C8.22573 13.2214 8.56231 13.1236 8.90625 13.1236C9.25019 13.1236 9.58678 13.2214 9.87536 13.4052C10.1639 13.5891 10.3922 13.8511 10.5325 14.1596C10.6728 14.4681 10.7192 14.8099 10.6661 15.1437C10.6131 15.4776 10.4627 15.7892 10.2333 16.0409C10.1187 16.1669 10.0437 16.3227 10.0172 16.4896C9.99075 16.6565 10.014 16.8273 10.0841 16.9816C10.1542 17.1358 10.2683 17.2668 10.4125 17.3588C10.5567 17.4507 10.7249 17.4998 10.8968 17.5H16.0312V22.5444C16.0315 22.7133 16.0814 22.8785 16.175 23.0202C16.2686 23.1619 16.402 23.2739 16.5589 23.3428C16.7159 23.4117 16.8898 23.4345 17.0597 23.4085C17.2296 23.3825 17.3882 23.3088 17.5164 23.1963C17.8423 22.9087 18.265 22.7498 18.7031 22.75ZM17.5164 10.0537C17.3882 9.94119 17.2296 9.86747 17.0597 9.84147C16.8898 9.81547 16.7159 9.83829 16.559 9.90719C16.402 9.97609 16.2686 10.0881 16.175 10.2298C16.0814 10.3715 16.0315 10.5367 16.0312 10.7056V15.75H12.3563C12.4307 15.4641 12.4685 15.1701 12.4688 14.875C12.4688 13.9467 12.0934 13.0565 11.4253 12.4001C10.7572 11.7437 9.85108 11.375 8.90625 11.375C7.96142 11.375 7.05528 11.7437 6.38718 12.4001C5.71908 13.0565 5.34375 13.9467 5.34375 14.875C5.34403 15.1701 5.3818 15.4641 5.45619 15.75H1.78125V1.75H16.0312V6.79439C16.0315 6.9633 16.0814 7.12854 16.175 7.27021C16.2686 7.41187 16.402 7.52391 16.5589 7.59281C16.7159 7.66171 16.8898 7.68454 17.0597 7.65854C17.2296 7.63253 17.3882 7.55881 17.5164 7.44626C17.7726 7.22086 18.0898 7.07315 18.4296 7.02099C18.7694 6.96882 19.1173 7.01442 19.4313 7.15229C19.7454 7.29015 20.012 7.51438 20.1992 7.7979C20.3863 8.08142 20.4858 8.4121 20.4858 8.75C20.4858 9.08791 20.3863 9.41859 20.1992 9.70211C20.012 9.98562 19.7454 10.2099 19.4313 10.3477C19.1173 10.4856 18.7694 10.5312 18.4296 10.479C18.0898 10.4269 17.7726 10.2792 17.5164 10.0537V10.0537ZM33.5476 10.0537C33.4194 9.9412 33.2608 9.86748 33.0909 9.84148C32.9211 9.81548 32.7472 9.83831 32.5902 9.90721C32.4332 9.97611 32.2999 10.0881 32.2063 10.2298C32.1126 10.3715 32.0627 10.5367 32.0625 10.7056V15.75H28.3876C28.462 15.4641 28.4997 15.1701 28.5 14.875C28.5 13.9467 28.1247 13.0565 27.4566 12.4001C26.7885 11.7437 25.8823 11.375 24.9375 11.375C23.9927 11.375 23.0865 11.7437 22.4184 12.4001C21.7503 13.0565 21.375 13.9467 21.375 14.875C21.3753 15.1701 21.413 15.4641 21.4874 15.75H17.8125V12.1395C18.1035 12.2126 18.4027 12.2497 18.7031 12.25C19.648 12.25 20.5541 11.8813 21.2222 11.2249C21.8903 10.5685 22.2656 9.67826 22.2656 8.75C22.2656 7.82174 21.8903 6.9315 21.2222 6.27513C20.5541 5.61875 19.648 5.25 18.7031 5.25C18.4027 5.25027 18.1035 5.28738 17.8125 5.36047V1.75H32.0625V6.79439C32.0627 6.96329 32.1126 7.12854 32.2063 7.2702C32.2999 7.41186 32.4332 7.52389 32.5902 7.59279C32.7472 7.66169 32.9211 7.68452 33.0909 7.65852C33.2608 7.63252 33.4194 7.55881 33.5476 7.44626C33.8038 7.22086 34.121 7.07315 34.4608 7.02099C34.8006 6.96882 35.1486 7.01442 35.4626 7.15229C35.7766 7.29015 36.0432 7.51438 36.2304 7.7979C36.4175 8.08142 36.5171 8.4121 36.5171 8.75C36.5171 9.08791 36.4175 9.41859 36.2304 9.70211C36.0432 9.98562 35.7766 10.2099 35.4626 10.3477C35.1486 10.4856 34.8006 10.5312 34.4608 10.479C34.121 10.4269 33.8038 10.2792 33.5476 10.0537V10.0537ZM48.0938 15.75H42.9593C42.7874 15.7502 42.6192 15.7992 42.475 15.8912C42.3308 15.9832 42.2167 16.1142 42.1466 16.2684C42.0765 16.4226 42.0532 16.5935 42.0797 16.7604C42.1062 16.9273 42.1812 17.0831 42.2958 17.209C42.5252 17.4608 42.6755 17.7724 42.7286 18.1062C42.7817 18.4401 42.7353 18.7819 42.595 19.0904C42.4547 19.3989 42.2264 19.6609 41.9379 19.8447C41.6493 20.0286 41.3127 20.1264 40.9687 20.1264C40.6248 20.1264 40.2882 20.0286 39.9996 19.8447C39.7111 19.6609 39.4828 19.3989 39.3425 19.0904C39.2022 18.7819 39.1558 18.4401 39.2089 18.1062C39.2619 17.7724 39.4123 17.4608 39.6417 17.209C39.7563 17.0831 39.8313 16.9273 39.8578 16.7604C39.8842 16.5935 39.861 16.4226 39.7909 16.2684C39.7208 16.1142 39.6067 15.9832 39.4625 15.8912C39.3183 15.7992 39.1501 15.7502 38.9782 15.75H33.8438V12.1395C34.1348 12.2126 34.434 12.2497 34.7344 12.25C35.6792 12.25 36.5853 11.8813 37.2534 11.2249C37.9215 10.5685 38.2969 9.67826 38.2969 8.75C38.2969 7.82174 37.9215 6.9315 37.2534 6.27513C36.5853 5.61875 35.6792 5.25 34.7344 5.25C34.434 5.25027 34.1348 5.28738 33.8438 5.36047V1.75H48.0938V15.75Z" fill="white"/>
</svg>
