<svg width="55" height="51" viewBox="0 0 55 51" fill="none" xmlns="http://www.w3.org/2000/svg">
<path d="M46.1771 25.5C46.1771 15.9505 37.7985 8.18125 27.5 8.18125C17.2015 8.18125 8.82292 15.9505 8.82292 25.5C8.82292 29.9966 10.6811 34.0981 13.7222 37.18L9.75024 40.863C9.17091 41.4001 9.58925 42.3141 10.3984 42.3141C10.633 42.3141 10.8677 42.2311 11.0466 42.0651L15.0243 38.3768C18.3526 41.1522 22.7334 42.8191 27.501 42.8189C37.7992 42.8182 46.1771 35.0492 46.1771 25.5ZM36.5131 24.65H28.4167V10.679C30.9686 12.5472 36.1414 17.2254 36.5131 24.65ZM26.5833 9.90462V24.65H18.4881C18.7509 19.5171 21.3479 15.7095 23.5463 13.378C23.8795 13.0247 23.8407 12.4877 23.4596 12.1787C23.0785 11.8696 22.4994 11.9057 22.1661 12.2591C19.7604 14.8105 16.9163 18.9911 16.6532 24.65H10.6815C11.1428 16.713 18.0238 10.3324 26.5833 9.90462ZM10.6815 26.35H16.6524C16.9835 33.5681 21.4699 38.4204 24.4364 40.8591C16.9481 39.5778 11.1061 33.6565 10.6815 26.35ZM18.4863 26.35H26.5833V40.3126C22.0476 36.9739 18.7707 32.08 18.4863 26.35ZM28.4167 41.0954V26.35H36.5116C36.2404 31.6614 33.4783 35.5661 31.1408 37.9468C30.7999 38.2939 30.8272 38.8315 31.2015 39.1475C31.5758 39.4636 32.1556 39.4383 32.4964 39.0912C35.0526 36.4878 38.0754 32.2034 38.3468 26.35H41.25C41.7562 26.35 42.1667 25.9694 42.1667 25.5C42.1667 25.0306 41.7562 24.65 41.25 24.65H38.3477C38.0171 17.4336 33.5327 12.5807 30.5675 10.1417C38.3955 11.4828 44.3438 17.859 44.3438 25.5C44.3438 33.827 37.2797 40.6524 28.4167 41.0954ZM48.1177 43.5223L43.6742 39.4021C43.3163 39.0701 42.7359 39.0701 42.378 39.4021C42.0199 39.734 42.0199 40.2722 42.378 40.6041L46.8461 44.7473C45.0173 47.4594 47.1321 51 50.5885 51C53.021 51 55 49.165 55 46.9094C55 43.6266 51.0238 41.6935 48.1177 43.5223ZM50.5885 49.3C49.1669 49.3 48.0104 48.2276 48.0104 46.9094C48.0104 45.5911 49.1669 44.5188 50.5885 44.5188C52.0102 44.5188 53.1667 45.5911 53.1667 46.9094C53.1667 48.2276 52.0102 49.3 50.5885 49.3ZM6.743 7.56096L11.2112 11.7042C11.5693 12.0362 12.1495 12.0361 12.5075 11.7042C12.8655 11.3723 12.8655 10.8341 12.5075 10.5022L8.06415 6.3818C10.0364 3.68698 7.95151 0 4.41146 0C1.97897 0 0 1.83504 0 4.09063C0 7.30023 3.82342 9.25363 6.743 7.56096ZM4.41146 1.7C5.83309 1.7 6.98958 2.77238 6.98958 4.09063C6.98958 5.40887 5.83309 6.48125 4.41146 6.48125C2.98982 6.48125 1.83333 5.40887 1.83333 4.09063C1.83333 2.77238 2.98982 1.7 4.41146 1.7ZM4.41146 42.8188C1.97897 42.8188 0 44.6538 0 46.9094C0 49.165 1.97897 51 4.41146 51C6.84395 51 8.82292 49.165 8.82292 46.9094C8.82292 44.6538 6.84395 42.8188 4.41146 42.8188ZM4.41146 49.3C2.98982 49.3 1.83333 48.2276 1.83333 46.9094C1.83333 45.5911 2.98982 44.5188 4.41146 44.5188C5.83309 44.5188 6.98958 45.5911 6.98958 46.9094C6.98958 48.2276 5.83309 49.3 4.41146 49.3ZM43.6742 11.5979L48.1177 7.47766C51.0238 9.30644 55 7.37322 55 4.09063C55 1.83504 53.021 0 50.5885 0C47.1272 0 45.0206 3.54535 46.846 6.2526L42.3778 10.3958C42.0198 10.7277 42.0198 11.2659 42.3778 11.5978C42.7359 11.9299 43.3163 11.9299 43.6742 11.5979ZM50.5885 1.7C52.0102 1.7 53.1667 2.77238 53.1667 4.09063C53.1667 5.40887 52.0102 6.48125 50.5885 6.48125C49.1669 6.48125 48.0104 5.40887 48.0104 4.09063C48.0104 2.77238 49.1669 1.7 50.5885 1.7Z" fill="black"/>
</svg>
