<svg width="27" height="27" viewBox="0 0 27 27" fill="none" xmlns="http://www.w3.org/2000/svg">
<g clip-path="url(#clip0)">
<path d="M25.003 18.5325H17.7337V11.2633C17.7337 11.0427 17.555 10.8639 17.3343 10.8639H9.6657C9.44506 10.8639 9.26629 11.0427 9.26629 11.2633V18.5325H1.99707C1.77643 18.5325 1.59766 18.7113 1.59766 18.9319V26.6006C1.59766 26.8212 1.77643 27 1.99707 27H15.8698C16.0905 27 16.2693 26.8212 16.2693 26.6006C16.2693 26.38 16.0905 26.2012 15.8698 26.2012H2.39648V19.3313H9.6657C9.88634 19.3313 10.0651 19.1525 10.0651 18.9319V11.6627H16.9349V18.9319C16.9349 19.1525 17.1137 19.3313 17.3343 19.3313H24.6036V26.2012H17.8136C17.593 26.2012 17.4142 26.38 17.4142 26.6006C17.4142 26.8212 17.593 27 17.8136 27H25.003C25.2236 27 25.4024 26.8212 25.4024 26.6006V18.9319C25.4024 18.7113 25.2236 18.5325 25.003 18.5325Z" fill="#2D4DBC"/>
<path d="M13.2177 12.6851L11.9396 13.9632C11.7858 14.1171 11.7858 14.3741 11.9396 14.528C12.0935 14.6819 12.3505 14.6819 12.5045 14.528L13.1007 13.9317V17.2279C13.1007 17.4484 13.2795 17.6273 13.5002 17.6273C13.7208 17.6273 13.8996 17.4484 13.8996 17.2279V12.9675C13.8996 12.6192 13.4642 12.4386 13.2177 12.6851Z" fill="#2D4DBC"/>
<path d="M7.10946 24.4971H5.9057C6.66396 23.9045 7.50888 23.0004 7.50888 21.9142C7.50888 20.9893 6.75636 20.2367 5.83134 20.2367C4.90633 20.2367 4.15381 20.9892 4.15381 21.9142C4.15381 22.1348 4.33258 22.3136 4.55322 22.3136C4.77386 22.3136 4.95263 22.1348 4.95263 21.9142C4.95263 21.4297 5.34682 21.0355 5.83134 21.0355C6.31587 21.0355 6.71005 21.4297 6.71005 21.9142C6.71005 23.1057 5.02403 24.2132 4.37466 24.5392C4.20844 24.6223 4.12038 24.8155 4.16641 24.9954C4.21103 25.1702 4.37287 25.2959 4.55327 25.2959H7.10946C7.33011 25.2959 7.50888 25.117 7.50888 24.8965C7.50888 24.6759 7.33005 24.4971 7.10946 24.4971Z" fill="#2D4DBC"/>
<path d="M21.0048 22.0885L21.9143 20.8757C22.1081 20.6173 21.9172 20.2367 21.5948 20.2367H19.0386C18.818 20.2367 18.6392 20.4155 18.6392 20.6361C18.6392 20.8567 18.818 21.0355 19.0386 21.0355H20.796L19.9972 22.1006C19.8034 22.359 19.9943 22.7396 20.3167 22.7396C20.8012 22.7396 21.1954 23.1338 21.1954 23.6183C21.1954 24.1029 20.8012 24.4971 20.3167 24.4971C19.8322 24.4971 19.438 24.1029 19.438 23.6183C19.438 23.3977 19.2592 23.2189 19.0386 23.2189C18.8179 23.2189 18.6392 23.3977 18.6392 23.6183C18.6392 24.5433 19.3917 25.2959 20.3167 25.2959C21.2417 25.2959 21.9942 24.5434 21.9942 23.6183C21.9942 22.9385 21.5876 22.3517 21.0048 22.0885Z" fill="#2D4DBC"/>
<path d="M21.1685 4.47327H20.3164C20.0958 4.47327 19.917 4.65209 19.917 4.87268C19.917 5.09326 20.0958 5.27209 20.3164 5.27209H21.1685C21.3891 5.27209 21.5679 5.09326 21.5679 4.87268C21.5679 4.65214 21.3891 4.47327 21.1685 4.47327Z" fill="#2D4DBC"/>
<path d="M21.0251 1.18205C20.869 1.02607 20.6162 1.02607 20.4602 1.18205L19.6081 2.03414C19.362 2.2802 19.5412 2.71594 19.8905 2.71594C19.9927 2.71594 20.0949 2.67697 20.1729 2.59892L21.025 1.74684C21.181 1.5909 21.181 1.33799 21.0251 1.18205Z" fill="#2D4DBC"/>
<path d="M21.0252 7.99861L20.1731 7.14653C20.0171 6.99054 19.7642 6.99054 19.6082 7.14653C19.4522 7.30252 19.4522 7.55544 19.6082 7.71137L20.4602 8.56345C20.6227 8.72588 20.897 8.71496 21.0464 8.54057C21.1802 8.38426 21.1705 8.144 21.0252 7.99861Z" fill="#2D4DBC"/>
<path d="M6.68362 4.47327H5.83154C5.6109 4.47327 5.43213 4.65209 5.43213 4.87268C5.43213 5.09326 5.6109 5.27209 5.83154 5.27209H6.68362C6.90426 5.27209 7.08303 5.09326 7.08303 4.87268C7.08303 4.65214 6.90426 4.47327 6.68362 4.47327Z" fill="#2D4DBC"/>
<path d="M7.39188 2.03414L6.53979 1.18205C6.38375 1.02607 6.13089 1.02607 5.9749 1.18205C5.81891 1.33804 5.81891 1.59096 5.9749 1.74689L6.82693 2.59898C6.98941 2.7614 7.26368 2.75048 7.41308 2.57609C7.54692 2.41973 7.53727 2.17953 7.39188 2.03414Z" fill="#2D4DBC"/>
<path d="M7.39187 7.14653C7.23589 6.99054 6.98302 6.99054 6.82698 7.14653L5.9749 7.99861C5.81891 8.1546 5.81891 8.40751 5.9749 8.56345C6.12878 8.71728 6.38586 8.71728 6.53979 8.56345L7.39187 7.71137C7.54786 7.55538 7.54786 7.30247 7.39187 7.14653Z" fill="#2D4DBC"/>
<path d="M13.4998 0C10.7542 0 8.52051 2.23372 8.52051 4.97929C8.52051 7.72485 10.7542 9.95857 13.4998 9.95857C16.2454 9.95857 18.4791 7.72485 18.4791 4.97929C18.4791 2.23372 16.2454 0 13.4998 0ZM13.4998 9.15975C11.1947 9.15975 9.31933 7.28441 9.31933 4.97929C9.31933 2.67416 11.1947 0.79882 13.4998 0.79882C15.8049 0.79882 17.6803 2.67416 17.6803 4.97929C17.6803 7.28441 15.8049 9.15975 13.4998 9.15975Z" fill="#2D4DBC"/>
<path d="M14.6075 4.54801C14.8282 4.54801 15.0069 4.36918 15.0069 4.1486V3.87169C15.0069 3.23471 14.5203 2.70932 13.8992 2.64762V2.21008C13.8992 1.98949 13.7205 1.81067 13.4998 1.81067C13.2792 1.81067 13.1004 1.98949 13.1004 2.21008V2.66671C12.4702 2.78894 11.9927 3.34466 11.9927 4.01006C11.9927 4.76474 12.6067 5.37868 13.3613 5.37868H13.6382C13.9524 5.37868 14.208 5.63428 14.208 5.94853C14.208 6.26272 13.9525 6.51843 13.6383 6.51843H13.2229C12.985 6.51843 12.7915 6.32489 12.7915 6.08706C12.7915 5.86647 12.6127 5.68765 12.3921 5.68765C12.1714 5.68765 11.9927 5.86647 11.9927 6.08706C11.9927 6.72404 12.4793 7.24943 13.1004 7.31113V7.74861C13.1004 7.9692 13.2791 8.14802 13.4998 8.14802C13.7204 8.14802 13.8992 7.9692 13.8992 7.74861V7.29199C14.5294 7.16975 15.0069 6.61403 15.0069 5.94863C15.0069 5.19395 14.3929 4.58002 13.6383 4.58002H13.3613C13.0472 4.58002 12.7915 4.32441 12.7915 4.01017C12.7915 3.69598 13.0472 3.44037 13.3613 3.44037H13.7767C14.0146 3.44037 14.2081 3.63391 14.2081 3.87174V4.14865C14.2081 4.36918 14.3869 4.54801 14.6075 4.54801Z" fill="#2D4DBC"/>
</g>
<defs>
<clipPath id="clip0">
<rect width="27" height="27" fill="white"/>
</clipPath>
</defs>
</svg>
